SplineFontDB: 3.0
FontName: Boon-400i
FullName: Boon 400 Oblique
FamilyName: Boon
Weight: 400
Copyright: Copyright 2013-2015, Sungsit Sawaiwan (https://fontuni.com | uni@fontuni.com). This Font Software is licensed under the SIL Open Font License, Version 1.1 (http://scripts.sil.org/OFL).
Version: 1.0
ItalicAngle: -9
UnderlinePosition: -120
UnderlineWidth: 60
Ascent: 960
Descent: 240
InvalidEm: 0
sfntRevision: 0x00010000
LayerCount: 2
Layer: 0 0 "Back" 1
Layer: 1 0 "Fore" 0
XUID: [1021 556 -266790205 9909043]
StyleMap: 0x0000
FSType: 0
OS2Version: 3
OS2_WeightWidthSlopeOnly: 0
OS2_UseTypoMetrics: 0
CreationTime: 1369324892
ModificationTime: 1445624907
PfmFamily: 17
TTFWeight: 400
TTFWidth: 5
LineGap: 90
VLineGap: 0
Panose: 2 0 5 3 0 0 0 0 0 0
OS2TypoAscent: 960
OS2TypoAOffset: 0
OS2TypoDescent: -240
OS2TypoDOffset: 0
OS2TypoLinegap: 90
OS2WinAscent: 1320
OS2WinAOffset: 0
OS2WinDescent: 480
OS2WinDOffset: 0
HheadAscent: 1320
HheadAOffset: 0
HheadDescent: -480
HheadDOffset: 0
OS2SubXSize: 780
OS2SubYSize: 840
OS2SubXOff: 26
OS2SubYOff: 168
OS2SupXSize: 780
OS2SupYSize: 840
OS2SupXOff: -90
OS2SupYOff: 576
OS2StrikeYSize: 59
OS2StrikeYPos: 310
OS2CapHeight: 780
OS2XHeight: 600
OS2Vendor: 'FUni'
OS2CodePages: 20010193.00000000
OS2UnicodeRanges: a30000ff.5000207b.00000000.00000000
Lookup: 1 0 0 "ThaiRC.rd" { "ThaiRC.rd subtable"  } ['ccmp' ('thai' <'PAL ' 'SAN ' > ) 'locl' ('thai' <'PAL ' 'SAN ' > ) 'ss01' ('thai' <'dflt' > ) ]
Lookup: 6 0 0 "ThaiContextRC.rd" { "ThaiContextRC.rd subtable"  } ['ccmp' ('thai' <'dflt' > ) ]
Lookup: 2 0 0 "ThaiDecomp" { "ThaiDecomp subtable"  } ['ccmp' ('thai' <'dflt' > ) ]
Lookup: 1 0 0 "ThaiT.0E4D" { "ThaiT.0E4D subtable"  } []
Lookup: 1 0 0 "Thai0E4D.0E48" { "Thai0E4D.0E48 subtable"  } []
Lookup: 1 0 0 "Thai0E4D.0E49" { "Thai0E4D.0E49 subtable"  } []
Lookup: 1 0 0 "Thai0E4D.0E4A" { "Thai0E4D.0E4A subtable"  } []
Lookup: 1 0 0 "Thai0E4D.0E4B" { "Thai0E4D.0E4B subtable"  } []

StartChar: .notdef
Encoding: 65536 -1 0
Width: 660
Flags: W
LayerCount: 2
Fore
SplineSet
42 0 m 1
 137 600 l 1
 365 600 l 1
 593 600 l 1
 498 0 l 1
 270 0 l 1
 42 0 l 1
281 69 m 1
 424 69 l 1
 497 531 l 1
 354 531 l 1
 211 531 l 1
 138 69 l 1
 281 69 l 1
EndSplineSet
EndChar

StartChar: exclam
Encoding: 33 33 5
Width: 330
GlyphClass: 2
Flags: W
LayerCount: 2
Fore
SplineSet
126 133 m 0
 163 133 188 112 188 78 c 0
 188 74 188 69 187 65 c 0
 180 23 146 -3 105 -3 c 0
 68 -3 42 18 42 53 c 0
 42 57 42 61 43 65 c 0
 50 107 85 133 126 133 c 0
178 810 m 1
 288 810 l 1
 179 270 l 1
 117 270 l 1
 178 810 l 1
EndSplineSet
EndChar

StartChar: quotedbl
Encoding: 34 34 6
Width: 540
GlyphClass: 2
Flags: W
LayerCount: 2
Fore
SplineSet
199 900 m 1
 287 900 l 1
 215 540 l 1
 157 540 l 1
 199 900 l 1
419 900 m 1
 507 900 l 1
 435 540 l 1
 377 540 l 1
 419 900 l 1
EndSplineSet
EndChar

StartChar: numbersign
Encoding: 35 35 7
Width: 810
GlyphClass: 2
Flags: W
LayerCount: 2
Fore
SplineSet
34 214 m 1
 44 276 l 1
 176 276 l 1
 274 504 l 1
 140 504 l 1
 150 566 l 1
 300 566 l 1
 392 780 l 1
 466 780 l 1
 374 566 l 1
 590 566 l 1
 682 780 l 1
 756 780 l 1
 664 566 l 1
 780 566 l 1
 770 504 l 1
 638 504 l 1
 540 276 l 1
 674 276 l 1
 664 214 l 1
 514 214 l 1
 422 0 l 1
 348 0 l 1
 440 214 l 1
 224 214 l 1
 132 0 l 1
 58 0 l 1
 150 214 l 1
 34 214 l 1
348 504 m 1
 250 276 l 1
 466 276 l 1
 564 504 l 1
 348 504 l 1
EndSplineSet
EndChar

StartChar: dollar
Encoding: 36 36 8
Width: 660
GlyphClass: 2
Flags: W
LayerCount: 2
Fore
SplineSet
36 182 m 1
 130 188 l 1
 130 129 169 70 249 58 c 1
 298 368 l 1
 273 379 248 389 227 398 c 0
 172 422 116 470 116 554 c 0
 116 564 116 574 118 585 c 0
 135 691 225 780 365 792 c 1
 383 900 l 1
 452 900 l 1
 434 791 l 1
 567 775 611 673 611 605 c 2
 611 603 l 1
 516 596 l 1
 516 599 l 2
 516 654 485 705 423 720 c 1
 377 428 l 1
 403 417 429 407 450 400 c 0
 510 379 567 331 567 240 c 0
 567 228 566 214 564 200 c 0
 547 93 458 2 307 -11 c 1
 290 -120 l 1
 221 -120 l 1
 238 -12 l 1
 86 1 36 109 36 180 c 2
 36 182 l 1
312 455 m 1
 354 722 l 1
 281 712 224 666 211 585 c 0
 210 578 210 572 210 566 c 0
 210 507 256 479 292 463 c 0
 299 460 305 458 312 455 c 1
363 342 m 1
 318 58 l 1
 403 69 458 118 471 200 c 0
 472 209 473 216 473 224 c 0
 473 291 424 320 393 331 c 0
 383 334 373 338 363 342 c 1
EndSplineSet
EndChar

StartChar: percent
Encoding: 37 37 9
Width: 780
GlyphClass: 2
Flags: W
LayerCount: 2
Fore
SplineSet
22 0 m 1
 23 5 l 1
 700 780 l 1
 761 780 l 1
 760 775 l 1
 83 0 l 1
 22 0 l 1
61 576 m 2
 64 594 l 2
 78 681 119 790 230 790 c 0
 316 790 339 726 339 656 c 0
 339 635 337 614 334 594 c 2
 331 576 l 2
 317 489 276 380 165 380 c 0
 79 380 56 444 56 514 c 0
 56 535 58 556 61 576 c 2
172 424 m 0
 218 424 257 480 272 576 c 2
 275 594 l 2
 278 615 280 633 280 650 c 0
 280 711 259 746 223 746 c 0
 177 746 138 690 123 594 c 2
 120 576 l 2
 117 555 115 537 115 520 c 0
 115 459 136 424 172 424 c 0
449 186 m 2
 452 204 l 2
 466 291 507 400 618 400 c 0
 704 400 727 336 727 266 c 0
 727 245 725 224 722 204 c 2
 719 186 l 2
 705 99 664 -10 553 -10 c 0
 467 -10 444 54 444 124 c 0
 444 145 446 166 449 186 c 2
560 34 m 0
 606 34 645 90 660 186 c 2
 663 204 l 2
 666 225 668 243 668 260 c 0
 668 321 647 356 611 356 c 0
 565 356 526 300 511 204 c 2
 508 186 l 2
 505 165 503 147 503 130 c 0
 503 69 524 34 560 34 c 0
EndSplineSet
EndChar

StartChar: ampersand
Encoding: 38 38 10
Width: 810
GlyphClass: 2
Flags: W
LayerCount: 2
Fore
SplineSet
606 149 m 1
 671 68 723 5 723 5 c 1
 722 0 l 1
 616 0 l 1
 616 0 587 37 544 90 c 1
 464 25 364 -18 251 -18 c 0
 105 -18 36 51 36 138 c 0
 36 147 36 156 38 166 c 0
 56 282 178 362 285 425 c 1
 254 475 229 537 229 595 c 0
 229 605 229 615 231 625 c 0
 248 733 328 798 430 798 c 0
 532 798 575 738 575 674 c 0
 575 666 574 659 573 651 c 0
 557 552 488 479 390 418 c 1
 433 363 500 279 563 202 c 1
 609 261 642 333 661 405 c 1
 739 393 l 1
 717 308 671 221 606 149 c 1
504 140 m 1
 442 218 369 312 321 376 c 1
 219 312 142 243 130 166 c 0
 129 159 128 152 128 146 c 0
 128 86 175 52 262 52 c 0
 361 52 441 86 504 140 c 1
421 736 m 0
 357 736 323 683 313 623 c 0
 312 616 311 609 311 601 c 0
 311 558 330 509 355 467 c 1
 432 519 482 582 493 651 c 0
 494 657 494 663 494 669 c 0
 494 711 469 736 421 736 c 0
EndSplineSet
EndChar

StartChar: quotesingle
Encoding: 39 39 11
Width: 330
GlyphClass: 2
Flags: W
LayerCount: 2
Fore
SplineSet
204 900 m 1
 292 900 l 1
 220 540 l 1
 162 540 l 1
 204 900 l 1
EndSplineSet
EndChar

StartChar: parenleft
Encoding: 40 40 12
Width: 390
GlyphClass: 2
Flags: W
LayerCount: 2
Fore
SplineSet
74 390 m 0
 109 611 208 784 338 909 c 1
 392 886 l 1
 272 768 191 600 158 390 c 0
 149 332 144 278 144 227 c 0
 144 92 176 -20 235 -106 c 1
 174 -129 l 1
 105 -33 62 92 62 245 c 0
 62 291 66 339 74 390 c 0
EndSplineSet
Substitution2: "Latin.subs subtable" parenleft.subs
Substitution2: "Latin.sups subtable" parenleft.sups
EndChar

StartChar: parenright
Encoding: 41 41 13
Width: 390
GlyphClass: 2
Flags: W
LayerCount: 2
Fore
SplineSet
320 390 m 0
 285 169 186 -4 56 -129 c 1
 1 -106 l 1
 121 12 203 180 236 390 c 0
 245 447 249 501 249 552 c 0
 249 688 218 800 158 886 c 1
 220 909 l 1
 289 813 332 688 332 535 c 0
 332 489 328 441 320 390 c 0
EndSplineSet
Substitution2: "Latin.subs subtable" parenright.subs
Substitution2: "Latin.sups subtable" parenright.sups
EndChar

StartChar: asterisk
Encoding: 42 42 14
Width: 570
GlyphClass: 2
Flags: W
LayerCount: 2
Fore
SplineSet
103 702 m 1
 139 778 l 1
 313 700 l 1
 329 900 l 1
 409 900 l 1
 360 700 l 1
 557 778 l 1
 570 702 l 1
 368 655 l 1
 475 503 l 1
 402 456 l 1
 325 628 l 1
 192 456 l 1
 136 503 l 1
 291 655 l 1
 103 702 l 1
EndSplineSet
EndChar

StartChar: plus
Encoding: 43 43 15
Width: 600
GlyphClass: 2
Flags: W
LayerCount: 2
Fore
SplineSet
89 328 m 1
 99 392 l 1
 259 392 l 1
 285 555 l 1
 371 555 l 1
 345 392 l 1
 505 392 l 1
 495 328 l 1
 335 328 l 1
 309 165 l 1
 223 165 l 1
 249 328 l 1
 89 328 l 1
EndSplineSet
EndChar

StartChar: comma
Encoding: 44 44 16
Width: 330
GlyphClass: 2
Flags: W
LayerCount: 2
Fore
SplineSet
42 63 m 0
 48 104 81 133 125 133 c 0
 177 133 198 96 198 51 c 0
 198 43 197 34 196 25 c 0
 180 -79 100 -152 29 -195 c 1
 7 -156 l 1
 61 -123 110 -72 129 1 c 1
 121 -2 112 -3 102 -3 c 0
 66 -3 41 18 41 52 c 0
 41 56 41 59 42 63 c 0
EndSplineSet
EndChar

StartChar: hyphen
Encoding: 45 45 17
Width: 600
GlyphClass: 2
Flags: W
LayerCount: 2
Fore
SplineSet
100 395 m 1
 506 395 l 1
 494 325 l 1
 88 325 l 1
 100 395 l 1
EndSplineSet
EndChar

StartChar: period
Encoding: 46 46 18
Width: 330
GlyphClass: 2
Flags: W
LayerCount: 2
Fore
SplineSet
126 133 m 0
 163 133 188 112 188 78 c 0
 188 74 188 69 187 65 c 0
 180 23 146 -3 105 -3 c 0
 68 -3 42 18 42 53 c 0
 42 57 42 61 43 65 c 0
 50 107 85 133 126 133 c 0
EndSplineSet
EndChar

StartChar: slash
Encoding: 47 47 19
Width: 510
GlyphClass: 2
Flags: W
LayerCount: 2
Fore
SplineSet
-10 0 m 1
 -9 5 l 1
 443 780 l 1
 524 780 l 1
 523 775 l 1
 72 0 l 1
 -10 0 l 1
EndSplineSet
Substitution2: "LatinSlash.frac subtable" fraction
EndChar

StartChar: zero
Encoding: 48 48 20
Width: 660
GlyphClass: 2
Flags: W
LayerCount: 2
Fore
SplineSet
66 374 m 2
 71 406 l 2
 100 587 184 798 396 798 c 0
 560 798 608 672 608 531 c 0
 608 490 604 447 597 406 c 2
 592 374 l 2
 563 193 479 -18 267 -18 c 0
 103 -18 55 108 55 249 c 0
 55 290 59 333 66 374 c 2
278 52 m 0
 386 52 467 178 498 374 c 2
 503 406 l 2
 510 449 513 488 513 523 c 0
 513 651 470 728 385 728 c 0
 277 728 196 602 165 406 c 2
 160 374 l 2
 153 331 150 292 150 257 c 0
 150 129 193 52 278 52 c 0
EndSplineSet
Substitution2: "Latin.dnom subtable" zero.dnom
Substitution2: "Latin.numr subtable" zero.numr
Substitution2: "Latin.subs subtable" zero.subs
Substitution2: "Latin.sups subtable" zero.sups
Substitution2: "Latin.pnum subtable" zero.pnum
EndChar

StartChar: one
Encoding: 49 49 21
Width: 660
GlyphClass: 2
Flags: W
LayerCount: 2
Fore
SplineSet
142 630 m 1
 428 786 l 1
 493 779 l 1
 382 74 l 1
 534 74 l 1
 522 0 l 1
 82 0 l 1
 94 74 l 1
 289 74 l 1
 385 681 l 1
 171 562 l 1
 142 630 l 1
EndSplineSet
Substitution2: "Latin.dnom subtable" one.dnom
Substitution2: "Latin.numr subtable" one.numr
Substitution2: "Latin.subs subtable" one.subs
Substitution2: "Latin.sups subtable" one.sups
Substitution2: "Latin.pnum subtable" one.pnum
EndChar

StartChar: two
Encoding: 50 50 22
Width: 660
GlyphClass: 2
Flags: W
LayerCount: 2
Fore
SplineSet
23 36 m 0
 51 212 210 312 332 386 c 0
 418 438 500 492 514 580 c 0
 516 589 516 600 516 610 c 0
 516 667 488 728 385 728 c 0
 300 728 238 663 217 605 c 1
 122 614 l 1
 147 685 237 798 395 798 c 0
 574 798 608 687 608 614 c 0
 608 601 607 590 606 580 c 0
 586 455 465 379 381 327 c 0
 270 259 163 190 132 74 c 1
 534 74 l 1
 522 0 l 1
 22 0 l 1
 22 0 20 16 23 36 c 0
EndSplineSet
Substitution2: "Latin.dnom subtable" two.dnom
Substitution2: "Latin.numr subtable" two.numr
Substitution2: "Latin.subs subtable" two.subs
Substitution2: "Latin.sups subtable" two.sups
Substitution2: "Latin.pnum subtable" two.pnum
EndChar

StartChar: three
Encoding: 51 51 23
Width: 660
GlyphClass: 2
Flags: W
LayerCount: 2
Fore
SplineSet
6 122 m 1
 101 139 l 1
 108 106 135 44 249 44 c 0
 397 44 443 138 454 205 c 0
 455 214 456 223 456 232 c 0
 456 291 424 351 308 351 c 2
 208 351 l 1
 219 420 l 1
 309 420 l 2
 385 420 471 476 486 573 c 0
 488 582 488 593 488 603 c 0
 488 660 460 721 357 721 c 0
 272 721 209 655 188 597 c 1
 93 607 l 1
 118 678 208 791 366 791 c 0
 545 791 579 680 579 607 c 0
 579 594 578 583 577 573 c 0
 563 483 500 427 437 396 c 1
 526 367 552 298 552 240 c 0
 552 229 552 220 550 210 c 0
 538 132 472 -25 238 -25 c 0
 62 -25 15 78 6 122 c 1
EndSplineSet
Substitution2: "Latin.dnom subtable" three.dnom
Substitution2: "Latin.numr subtable" three.numr
Substitution2: "Latin.subs subtable" three.subs
Substitution2: "Latin.sups subtable" three.sups
Substitution2: "Latin.pnum subtable" three.pnum
EndChar

StartChar: four
Encoding: 52 52 24
Width: 660
GlyphClass: 2
Flags: W
LayerCount: 2
Fore
SplineSet
381 206 m 1
 18 206 l 1
 18 250 l 1
 484 786 l 1
 561 779 l 1
 481 274 l 1
 606 274 l 1
 596 206 l 1
 471 206 l 1
 438 0 l 1
 348 0 l 1
 381 206 l 1
393 274 m 1
 454 657 l 1
 123 274 l 1
 393 274 l 1
EndSplineSet
Substitution2: "Latin.dnom subtable" four.dnom
Substitution2: "Latin.numr subtable" four.numr
Substitution2: "Latin.subs subtable" four.subs
Substitution2: "Latin.sups subtable" four.sups
Substitution2: "Latin.pnum subtable" four.pnum
EndChar

StartChar: five
Encoding: 53 53 25
Width: 660
GlyphClass: 2
Flags: W
LayerCount: 2
Fore
SplineSet
27 129 m 1
 122 146 l 1
 129 113 156 51 270 51 c 0
 418 51 467 154 479 231 c 0
 481 246 483 261 483 276 c 0
 483 344 454 412 346 412 c 0
 270 412 195 359 160 317 c 1
 96 354 l 1
 178 780 l 1
 618 780 l 1
 607 711 l 1
 254 711 l 1
 199 421 l 1
 242 450 301 479 373 479 c 0
 542 479 577 362 577 279 c 0
 577 263 576 248 574 236 c 0
 561 152 493 -18 259 -18 c 0
 83 -18 36 85 27 129 c 1
EndSplineSet
Substitution2: "Latin.dnom subtable" five.dnom
Substitution2: "Latin.numr subtable" five.numr
Substitution2: "Latin.subs subtable" five.subs
Substitution2: "Latin.sups subtable" five.sups
Substitution2: "Latin.pnum subtable" five.pnum
EndChar

StartChar: six
Encoding: 54 54 26
Width: 660
GlyphClass: 2
Flags: W
LayerCount: 2
Fore
SplineSet
75 294 m 2
 97 438 l 2
 118 570 180 798 410 798 c 0
 578 798 613 686 620 642 c 1
 526 627 l 1
 520 666 497 728 399 728 c 0
 272 728 215 592 191 438 c 2
 186 405 l 1
 233 448 296 477 373 477 c 0
 528 477 578 375 578 277 c 0
 578 261 576 245 574 230 c 0
 552 94 446 -18 281 -18 c 0
 138 -18 68 63 68 207 c 0
 68 234 70 263 75 294 c 2
165 266 m 0
 162 245 161 226 161 208 c 0
 161 87 219 52 292 52 c 0
 384 52 462 111 481 230 c 0
 483 245 485 260 485 274 c 0
 485 350 448 411 347 411 c 0
 262 411 194 352 165 266 c 0
EndSplineSet
Substitution2: "Latin.dnom subtable" six.dnom
Substitution2: "Latin.numr subtable" six.numr
Substitution2: "Latin.subs subtable" six.subs
Substitution2: "Latin.sups subtable" six.sups
Substitution2: "Latin.pnum subtable" six.pnum
EndChar

StartChar: seven
Encoding: 55 55 27
Width: 660
GlyphClass: 2
Flags: W
LayerCount: 2
Fore
SplineSet
124 706 m 1
 136 780 l 1
 634 780 l 1
 632 728 l 1
 496 576 324 283 286 45 c 2
 279 0 l 1
 181 0 l 1
 188 45 l 2
 223 268 385 542 517 706 c 1
 124 706 l 1
EndSplineSet
Substitution2: "Latin.dnom subtable" seven.dnom
Substitution2: "Latin.numr subtable" seven.numr
Substitution2: "Latin.subs subtable" seven.subs
Substitution2: "Latin.sups subtable" seven.sups
Substitution2: "Latin.pnum subtable" seven.pnum
EndChar

StartChar: eight
Encoding: 56 56 28
Width: 660
GlyphClass: 2
Flags: W
LayerCount: 2
Fore
SplineSet
267 -18 m 0
 114 -18 25 61 25 167 c 0
 25 177 26 187 28 198 c 0
 49 329 155 381 228 401 c 1
 172 424 122 471 122 552 c 0
 122 563 123 574 125 586 c 0
 144 704 252 798 396 798 c 0
 526 798 604 722 604 620 c 0
 604 609 603 598 601 586 c 0
 585 484 512 427 440 401 c 1
 500 383 577 339 577 236 c 0
 577 224 576 211 574 198 c 0
 555 77 435 -18 267 -18 c 0
278 50 m 0
 387 50 463 106 478 198 c 0
 480 210 481 221 481 231 c 0
 481 307 431 340 380 353 c 0
 366 358 347 363 328 369 c 1
 307 363 288 358 272 353 c 0
 210 338 140 298 124 198 c 0
 122 189 122 180 122 171 c 0
 122 95 180 50 278 50 c 0
386 730 m 0
 307 730 233 682 218 586 c 0
 217 576 216 568 216 559 c 0
 216 492 258 455 301 443 c 0
 313 440 325 436 338 432 c 1
 353 436 367 440 379 443 c 0
 432 456 495 502 508 586 c 0
 510 596 510 606 510 615 c 0
 510 692 457 730 386 730 c 0
EndSplineSet
Substitution2: "Latin.dnom subtable" eight.dnom
Substitution2: "Latin.numr subtable" eight.numr
Substitution2: "Latin.subs subtable" eight.subs
Substitution2: "Latin.sups subtable" eight.sups
Substitution2: "Latin.pnum subtable" eight.pnum
EndChar

StartChar: nine
Encoding: 57 57 29
Width: 660
GlyphClass: 2
Flags: W
LayerCount: 2
Fore
SplineSet
589 486 m 2
 566 342 l 2
 545 210 483 -18 253 -18 c 0
 85 -18 51 94 44 138 c 1
 137 153 l 1
 143 114 166 52 264 52 c 0
 391 52 448 188 472 342 c 2
 477 375 l 1
 430 332 368 303 291 303 c 0
 136 303 85 405 85 504 c 0
 85 520 87 535 89 550 c 0
 111 686 217 798 382 798 c 0
 525 798 596 717 596 573 c 0
 596 546 594 517 589 486 c 2
498 514 m 0
 501 535 502 554 502 572 c 0
 502 693 444 728 371 728 c 0
 279 728 201 669 182 550 c 0
 180 535 178 520 178 506 c 0
 178 430 215 369 316 369 c 0
 401 369 469 428 498 514 c 0
EndSplineSet
Substitution2: "Latin.dnom subtable" nine.dnom
Substitution2: "Latin.numr subtable" nine.numr
Substitution2: "Latin.subs subtable" nine.subs
Substitution2: "Latin.sups subtable" nine.sups
Substitution2: "Latin.pnum subtable" nine.pnum
EndChar

StartChar: colon
Encoding: 58 58 30
Width: 330
GlyphClass: 2
Flags: W
LayerCount: 2
Fore
SplineSet
126 133 m 0
 163 133 188 112 188 78 c 0
 188 74 188 69 187 65 c 0
 180 23 146 -3 105 -3 c 0
 68 -3 42 18 42 53 c 0
 42 57 42 61 43 65 c 0
 50 107 85 133 126 133 c 0
193 553 m 0
 230 553 255 532 255 498 c 0
 255 494 255 489 254 485 c 0
 247 443 212 417 171 417 c 0
 134 417 109 438 109 472 c 0
 109 476 109 481 110 485 c 0
 117 527 152 553 193 553 c 0
EndSplineSet
EndChar

StartChar: semicolon
Encoding: 59 59 31
Width: 330
GlyphClass: 2
Flags: W
LayerCount: 2
Fore
SplineSet
193 553 m 0
 230 553 255 532 255 498 c 0
 255 494 255 489 254 485 c 0
 247 443 212 417 171 417 c 0
 134 417 109 438 109 472 c 0
 109 476 109 481 110 485 c 0
 117 527 152 553 193 553 c 0
42 63 m 0
 48 104 81 133 125 133 c 0
 177 133 198 96 198 51 c 0
 198 43 197 34 196 25 c 0
 180 -79 100 -152 29 -195 c 1
 7 -156 l 1
 61 -123 110 -72 129 1 c 1
 121 -2 112 -3 102 -3 c 0
 66 -3 41 18 41 52 c 0
 41 56 41 59 42 63 c 0
EndSplineSet
EndChar

StartChar: less
Encoding: 60 60 32
Width: 600
GlyphClass: 2
Flags: W
LayerCount: 2
Fore
SplineSet
90 334 m 1
 94 360 l 1
 98 386 l 1
 523 618 l 1
 529 548 l 1
 180 360 l 1
 469 172 l 1
 441 102 l 1
 90 334 l 1
EndSplineSet
EndChar

StartChar: equal
Encoding: 61 61 33
Width: 600
GlyphClass: 2
Flags: W
LayerCount: 2
Fore
SplineSet
104 422 m 1
 114 489 l 1
 520 489 l 1
 510 422 l 1
 104 422 l 1
74 231 m 1
 84 298 l 1
 490 298 l 1
 480 231 l 1
 74 231 l 1
EndSplineSet
EndChar

StartChar: greater
Encoding: 62 62 34
Width: 600
GlyphClass: 2
Flags: W
LayerCount: 2
Fore
SplineSet
504 386 m 1
 500 360 l 1
 496 334 l 1
 71 102 l 1
 65 172 l 1
 414 360 l 1
 125 548 l 1
 153 618 l 1
 504 386 l 1
EndSplineSet
EndChar

StartChar: question
Encoding: 63 63 35
Width: 570
GlyphClass: 2
Flags: W
LayerCount: 2
Fore
SplineSet
246 133 m 0
 283 133 308 112 308 78 c 0
 308 74 308 69 307 65 c 0
 300 23 266 -3 225 -3 c 0
 188 -3 162 18 162 53 c 0
 162 57 162 61 163 65 c 0
 170 107 205 133 246 133 c 0
105 650 m 0
 121 752 219 828 355 828 c 0
 470 828 541 770 541 672 c 0
 541 661 540 649 538 636 c 0
 512 472 300 430 281 309 c 0
 280 303 280 296 280 290 c 0
 280 276 282 263 286 250 c 1
 209 241 l 1
 203 258 200 275 200 292 c 0
 200 299 201 307 202 314 c 0
 227 470 421 501 442 633 c 0
 444 644 445 654 445 663 c 0
 445 732 397 757 342 757 c 0
 269 757 212 720 201 650 c 0
 200 640 199 630 199 620 c 0
 199 608 200 596 204 585 c 1
 111 561 l 1
 106 580 103 600 103 620 c 0
 103 630 103 640 105 650 c 0
EndSplineSet
EndChar

StartChar: at
Encoding: 64 64 36
Width: 1020
GlyphClass: 2
Flags: W
LayerCount: 2
Fore
SplineSet
62 236 m 0
 102 491 321 780 623 780 c 0
 844 780 944 641 944 472 c 0
 944 448 942 423 938 398 c 0
 912 233 786 40 645 40 c 0
 588 40 572 72 572 113 c 2
 572 121 l 1
 530 71 479 35 418 35 c 0
 308 35 270 108 270 187 c 0
 270 201 271 215 273 229 c 0
 295 367 422 561 614 561 c 0
 692 561 720 511 720 461 c 0
 720 454 719 446 718 439 c 0
 711 396 689 341 672 299 c 0
 650 234 636 186 631 153 c 0
 629 140 628 130 628 121 c 0
 628 96 637 87 653 87 c 0
 735 87 858 236 884 398 c 0
 888 422 890 445 890 467 c 0
 890 618 803 732 615 732 c 0
 357 732 154 478 116 236 c 0
 112 209 110 183 110 157 c 0
 110 -10 202 -142 420 -142 c 0
 490 -142 580 -105 609 -89 c 1
 633 -128 l 1
 596 -149 500 -190 412 -190 c 0
 158 -190 55 -32 55 152 c 0
 55 179 58 208 62 236 c 0
426 89 m 0
 504 89 563 178 610 307 c 0
 625 347 649 407 654 439 c 0
 655 445 655 451 655 456 c 0
 655 491 635 508 605 508 c 0
 485 508 364 363 343 229 c 0
 341 216 340 203 340 191 c 0
 340 126 372 89 426 89 c 0
EndSplineSet
EndChar

StartChar: A
Encoding: 65 65 37
Width: 750
GlyphClass: 2
Flags: W
AnchorPoint: "LatinOgonek.mark" 610 0 basechar 0
AnchorPoint: "LatinBelow.mark" 315 0 basechar 0
AnchorPoint: "LatinAbove.mark" 339 150 basechar 0
LayerCount: 2
Fore
SplineSet
667 0 m 1
 559 0 l 1
 523 176 l 1
 163 176 l 1
 71 0 l 1
 -37 0 l 1
 -36 6 l 1
 399 780 l 1
 479 780 l 1
 668 6 l 1
 667 0 l 1
509 244 m 1
 421 670 l 1
 199 244 l 1
 509 244 l 1
EndSplineSet
EndChar

StartChar: B
Encoding: 66 66 38
Width: 745
GlyphClass: 2
Flags: W
AnchorPoint: "LatinBelow.mark" 260 0 basechar 0
AnchorPoint: "LatinAbove.mark" 284 150 basechar 0
LayerCount: 2
Fore
SplineSet
503 430 m 1
 600 405 661 347 661 257 c 0
 661 246 660 234 658 221 c 0
 635 73 489 -9 309 -9 c 0
 197 -9 66 -2 38 0 c 1
 162 780 l 1
 186 782 303 789 403 789 c 0
 539 789 644 733 644 623 c 0
 644 614 644 604 642 594 c 0
 629 512 573 459 503 430 c 1
380 444 m 1
 455 452 535 497 549 587 c 0
 550 595 551 604 551 611 c 0
 551 688 482 721 382 721 c 0
 327 721 269 718 241 716 c 1
 198 439 l 1
 249 442 316 444 380 444 c 1
138 64 m 1
 180 62 250 60 310 60 c 0
 438 60 547 105 565 221 c 0
 566 231 567 239 567 248 c 0
 567 344 478 380 360 380 c 0
 300 380 230 378 188 376 c 1
 138 64 l 1
EndSplineSet
EndChar

StartChar: C
Encoding: 67 67 39
Width: 755
GlyphClass: 2
Flags: W
AnchorPoint: "LatinCedilla.mark" 352 0 basechar 0
AnchorPoint: "LatinBelow.mark" 350 0 basechar 0
AnchorPoint: "LatinAbove.mark" 374 150 basechar 0
LayerCount: 2
Fore
SplineSet
72 405 m 2
 102 593 215 797 479 797 c 0
 673 797 741 671 742 591 c 1
 642 581 l 1
 640 642 590 724 468 724 c 0
 300 724 202 592 172 405 c 2
 167 373 l 2
 162 341 159 312 159 284 c 0
 159 146 222 54 362 54 c 0
 484 54 559 136 581 197 c 1
 678 187 l 1
 651 107 544 -19 350 -19 c 0
 130 -19 59 123 59 279 c 0
 59 310 62 342 67 373 c 2
 72 405 l 2
EndSplineSet
EndChar

StartChar: D
Encoding: 68 68 40
Width: 770
GlyphClass: 2
Flags: W
AnchorPoint: "LatinBelow.mark" 260 0 basechar 0
AnchorPoint: "LatinAbove.mark" 284 150 basechar 0
LayerCount: 2
Fore
SplineSet
143 64 m 1
 173 63 212 61 240 61 c 0
 474 61 579 195 607 374 c 2
 612 406 l 2
 616 432 618 457 618 481 c 0
 618 621 544 719 344 719 c 0
 316 719 276 717 246 716 c 1
 143 64 l 1
162 780 m 1
 162 780 271 789 355 789 c 0
 623 789 713 644 713 482 c 0
 713 457 711 431 707 406 c 2
 702 374 l 2
 672 184 538 -9 229 -9 c 0
 145 -9 38 0 38 0 c 1
 162 780 l 1
EndSplineSet
EndChar

StartChar: E
Encoding: 69 69 41
Width: 675
GlyphClass: 2
Flags: W
AnchorPoint: "LatinOgonek.mark" 485 0 basechar 0
AnchorPoint: "LatinBelow.mark" 290 0 basechar 0
AnchorPoint: "LatinAbove.mark" 314 150 basechar 0
LayerCount: 2
Fore
SplineSet
38 0 m 1
 162 780 l 1
 662 780 l 1
 650 706 l 1
 246 706 l 1
 201 420 l 1
 571 420 l 1
 559 350 l 1
 189 350 l 1
 146 74 l 1
 565 74 l 1
 553 0 l 1
 38 0 l 1
EndSplineSet
EndChar

StartChar: F
Encoding: 70 70 42
Width: 640
GlyphClass: 2
Flags: W
AnchorPoint: "LatinBelow.mark" 100 0 basechar 0
AnchorPoint: "LatinAbove.mark" 304 150 basechar 0
LayerCount: 2
Fore
SplineSet
38 0 m 1
 162 780 l 1
 652 780 l 1
 640 706 l 1
 246 706 l 1
 201 422 l 1
 561 422 l 1
 549 348 l 1
 189 348 l 1
 134 0 l 1
 38 0 l 1
EndSplineSet
EndChar

StartChar: G
Encoding: 71 71 43
Width: 770
GlyphClass: 2
Flags: W
AnchorPoint: "LatinBelow.mark" 350 0 basechar 0
AnchorPoint: "LatinAbove.mark" 374 150 basechar 0
LayerCount: 2
Fore
SplineSet
411 311 m 1
 422 379 l 1
 703 379 l 1
 665 138 l 1
 625 74 522 -18 350 -18 c 0
 130 -18 59 123 59 279 c 0
 59 310 62 342 67 373 c 2
 72 407 l 2
 102 595 215 798 479 798 c 0
 673 798 741 672 742 592 c 1
 643 583 l 1
 641 644 592 726 468 726 c 0
 298 726 200 596 170 407 c 2
 165 373 l 2
 160 341 157 311 157 283 c 0
 157 144 221 54 362 54 c 0
 480 54 544 103 579 147 c 1
 605 311 l 1
 411 311 l 1
EndSplineSet
EndChar

StartChar: H
Encoding: 72 72 44
Width: 790
GlyphClass: 2
Flags: W
AnchorPoint: "LatinBelow.mark" 335 0 basechar 0
AnchorPoint: "LatinAbove.mark" 359 150 basechar 0
LayerCount: 2
Fore
SplineSet
37 0 m 1
 161 780 l 1
 257 780 l 1
 201 427 l 1
 605 427 l 1
 661 780 l 1
 757 780 l 1
 633 0 l 1
 537 0 l 1
 593 353 l 1
 189 353 l 1
 133 0 l 1
 37 0 l 1
EndSplineSet
EndChar

StartChar: I
Encoding: 73 73 45
Width: 320
GlyphClass: 2
Flags: W
AnchorPoint: "LatinOgonek.mark" 105 0 basechar 0
AnchorPoint: "LatinBelow.mark" 100 0 basechar 0
AnchorPoint: "LatinAbove.mark" 124 150 basechar 0
LayerCount: 2
Fore
SplineSet
52 0 m 1
 176 780 l 1
 272 780 l 1
 148 0 l 1
 52 0 l 1
EndSplineSet
EndChar

StartChar: J
Encoding: 74 74 46
Width: 520
GlyphClass: 2
Flags: W
AnchorPoint: "LatinBelow.mark" 170 0 basechar 0
AnchorPoint: "LatinAbove.mark" 324 150 basechar 0
LayerCount: 2
Fore
SplineSet
-10 136 m 1
 87 143 l 1
 87 85 118 53 174 53 c 0
 230 53 281 84 293 162 c 2
 391 781 l 1
 487 781 l 1
 389 162 l 2
 373 63 288 -17 163 -17 c 0
 40 -17 -10 61 -10 134 c 2
 -10 136 l 1
EndSplineSet
EndChar

StartChar: K
Encoding: 75 75 47
Width: 715
GlyphClass: 2
Flags: W
AnchorPoint: "LatinBelow.mark" 300 0 basechar 0
AnchorPoint: "LatinAbove.mark" 324 150 basechar 0
LayerCount: 2
Fore
SplineSet
37 0 m 1
 161 780 l 1
 253 780 l 1
 189 378 l 1
 612 780 l 1
 716 772 l 1
 716 768 l 1
 367 452 l 1
 643 5 l 1
 642 0 l 1
 529 0 l 1
 295 388 l 1
 173 276 l 1
 129 0 l 1
 37 0 l 1
EndSplineSet
EndChar

StartChar: L
Encoding: 76 76 48
Width: 570
GlyphClass: 2
Flags: W
AnchorPoint: "LatinBelow.mark" 260 0 basechar 0
AnchorPoint: "LatinAbove.mark" 124 150 basechar 0
LayerCount: 2
Fore
SplineSet
38 0 m 1
 162 780 l 1
 258 780 l 1
 146 74 l 1
 490 74 l 1
 478 0 l 1
 38 0 l 1
EndSplineSet
EndChar

StartChar: M
Encoding: 77 77 49
Width: 880
GlyphClass: 2
Flags: W
AnchorPoint: "LatinBelow.mark" 380 0 basechar 0
AnchorPoint: "LatinAbove.mark" 404 150 basechar 0
LayerCount: 2
Fore
SplineSet
723 0 m 1
 629 0 l 1
 724 600 l 1
 435 195 l 1
 387 195 l 1
 226 600 l 1
 131 0 l 1
 37 0 l 1
 159 771 l 1
 241 780 l 1
 427 294 l 1
 767 780 l 1
 845 771 l 1
 723 0 l 1
EndSplineSet
EndChar

StartChar: N
Encoding: 78 78 50
Width: 790
GlyphClass: 2
Flags: W
AnchorPoint: "LatinBelow.mark" 335 0 basechar 0
AnchorPoint: "LatinAbove.mark" 359 150 basechar 0
LayerCount: 2
Fore
SplineSet
38 0 m 1
 160 771 l 1
 244 780 l 1
 563 152 l 1
 663 780 l 1
 756 780 l 1
 632 0 l 1
 550 0 l 1
 230 628 l 1
 131 0 l 1
 38 0 l 1
EndSplineSet
EndChar

StartChar: O
Encoding: 79 79 51
Width: 820
GlyphClass: 2
Flags: W
AnchorPoint: "LatinOgonek.mark" 420 0 basechar 0
AnchorPoint: "LatinBelow.mark" 350 0 basechar 0
AnchorPoint: "LatinAbove.mark" 374 150 basechar 0
LayerCount: 2
Fore
SplineSet
67 372 m 2
 73 408 l 2
 102 594 213 798 476 798 c 0
 695 798 765 656 765 501 c 0
 765 470 762 439 757 408 c 2
 751 372 l 2
 722 186 610 -18 347 -18 c 0
 128 -18 59 123 59 278 c 0
 59 309 62 341 67 372 c 2
359 54 m 0
 528 54 624 186 653 372 c 2
 659 408 l 2
 664 439 666 469 666 497 c 0
 666 634 605 726 465 726 c 0
 296 726 200 594 171 408 c 2
 165 372 l 2
 160 341 158 311 158 283 c 0
 158 146 219 54 359 54 c 0
EndSplineSet
EndChar

StartChar: P
Encoding: 80 80 52
Width: 710
GlyphClass: 2
Flags: W
AnchorPoint: "LatinBelow.mark" 100 0 basechar 0
AnchorPoint: "LatinAbove.mark" 324 150 basechar 0
LayerCount: 2
Fore
SplineSet
196 402 m 1
 232 400 286 398 343 398 c 0
 471 398 579 443 597 559 c 0
 599 569 599 578 599 587 c 0
 599 683 511 720 394 720 c 0
 337 720 281 718 245 716 c 1
 196 402 l 1
185 333 m 1
 132 0 l 1
 38 0 l 1
 92 338 l 1
 162 780 l 1
 190 782 303 789 415 789 c 0
 580 789 695 720 695 594 c 0
 695 583 694 571 692 559 c 0
 669 411 522 329 342 329 c 0
 286 329 231 331 185 333 c 1
EndSplineSet
EndChar

StartChar: Q
Encoding: 81 81 53
Width: 820
GlyphClass: 2
Flags: W
AnchorPoint: "LatinBelow.mark" 350 0 basechar 0
AnchorPoint: "LatinAbove.mark" 374 150 basechar 0
LayerCount: 2
Fore
SplineSet
67 372 m 2
 73 408 l 2
 102 594 213 798 476 798 c 0
 695 798 765 656 765 501 c 0
 765 470 762 439 757 408 c 2
 751 372 l 2
 737 283 703 189 643 116 c 1
 740 29 l 1
 690 -25 l 1
 593 65 l 1
 532 14 452 -18 347 -18 c 0
 128 -18 59 123 59 278 c 0
 59 309 62 341 67 372 c 2
374 269 m 1
 420 319 l 1
 580 173 l 1
 616 226 641 294 653 372 c 2
 659 408 l 2
 664 439 666 469 666 497 c 0
 666 634 605 726 465 726 c 0
 296 726 200 594 171 408 c 2
 165 372 l 2
 160 341 158 311 158 283 c 0
 158 146 219 54 359 54 c 0
 431 54 489 77 535 119 c 1
 374 269 l 1
EndSplineSet
EndChar

StartChar: R
Encoding: 82 82 54
Width: 730
GlyphClass: 2
Flags: W
AnchorPoint: "LatinBelow.mark" 300 0 basechar 0
AnchorPoint: "LatinAbove.mark" 324 150 basechar 0
LayerCount: 2
Fore
SplineSet
196 402 m 1
 232 400 286 398 343 398 c 0
 471 398 579 443 597 559 c 0
 599 569 599 578 599 587 c 0
 599 683 511 720 394 720 c 0
 337 720 281 718 245 716 c 1
 196 402 l 1
310 329 m 1
 265 330 222 331 185 333 c 1
 132 0 l 1
 38 0 l 1
 92 338 l 1
 162 780 l 1
 190 782 303 789 415 789 c 0
 580 789 695 720 695 594 c 0
 695 583 694 571 692 559 c 0
 672 431 559 352 413 333 c 1
 634 5 l 1
 633 0 l 1
 525 0 l 1
 310 329 l 1
EndSplineSet
EndChar

StartChar: S
Encoding: 83 83 55
Width: 710
GlyphClass: 2
Flags: W
AnchorPoint: "LatinCedilla.mark" 320 0 basechar 0
AnchorPoint: "LatinBelow.mark" 295 0 basechar 0
AnchorPoint: "LatinAbove.mark" 319 150 basechar 0
LayerCount: 2
Fore
SplineSet
30 177 m 1
 126 190 l 1
 126 128 177 52 303 52 c 0
 434 52 511 109 525 197 c 0
 526 205 527 214 527 221 c 0
 527 286 478 314 438 327 c 0
 383 343 300 370 244 392 c 0
 184 416 111 463 111 554 c 0
 111 563 111 573 113 583 c 0
 133 707 257 798 421 798 c 0
 593 798 661 685 663 607 c 1
 566 594 l 1
 564 656 516 728 410 728 c 0
 298 728 220 672 207 587 c 0
 206 581 206 575 206 569 c 0
 206 512 253 487 298 469 c 0
 351 449 433 421 484 405 c 0
 550 383 622 334 622 236 c 0
 622 225 621 213 619 201 c 0
 599 75 476 -18 292 -18 c 0
 103 -18 32 97 30 177 c 1
EndSplineSet
EndChar

StartChar: T
Encoding: 84 84 56
Width: 620
GlyphClass: 2
Flags: W
AnchorPoint: "LatinCedilla.mark" 260 0 basechar 0
AnchorPoint: "LatinBelow.mark" 250 0 basechar 0
AnchorPoint: "LatinAbove.mark" 274 150 basechar 0
LayerCount: 2
Fore
SplineSet
89 708 m 1
 101 780 l 1
 647 780 l 1
 635 708 l 1
 410 708 l 1
 298 0 l 1
 202 0 l 1
 314 708 l 1
 89 708 l 1
EndSplineSet
EndChar

StartChar: U
Encoding: 85 85 57
Width: 770
GlyphClass: 2
Flags: W
AnchorPoint: "LatinOgonek.mark" 420 0 basechar 0
AnchorPoint: "LatinBelow.mark" 325 0 basechar 0
AnchorPoint: "LatinAbove.mark" 349 150 basechar 0
LayerCount: 2
Fore
SplineSet
64 236 m 2
 151 780 l 1
 247 780 l 1
 160 236 l 2
 158 224 157 212 157 201 c 0
 157 105 228 54 334 54 c 0
 452 54 545 118 564 236 c 2
 651 780 l 1
 747 780 l 1
 660 236 l 2
 637 90 502 -18 322 -18 c 0
 159 -18 61 71 61 196 c 0
 61 209 62 222 64 236 c 2
EndSplineSet
EndChar

StartChar: V
Encoding: 86 86 58
Width: 750
GlyphClass: 2
Flags: W
AnchorPoint: "LatinBelow.mark" 315 0 basechar 0
AnchorPoint: "LatinAbove.mark" 339 150 basechar 0
LayerCount: 2
Fore
SplineSet
89 764 m 1
 90 771 l 1
 204 780 l 1
 333 116 l 1
 674 780 l 1
 784 771 l 1
 783 764 l 1
 356 0 l 1
 274 0 l 1
 89 764 l 1
EndSplineSet
EndChar

StartChar: W
Encoding: 87 87 59
Width: 1060
GlyphClass: 2
Flags: W
AnchorPoint: "LatinBelow.mark" 470 0 basechar 0
AnchorPoint: "LatinAbove.mark" 494 150 basechar 0
LayerCount: 2
Fore
SplineSet
1089 765 m 1
 738 0 l 1
 654 0 l 1
 569 624 l 1
 286 0 l 1
 202 0 l 1
 93 765 l 1
 94 771 l 1
 200 780 l 1
 271 129 l 1
 550 760 l 1
 630 760 l 1
 709 129 l 1
 988 780 l 1
 1090 771 l 1
 1089 765 l 1
EndSplineSet
EndChar

StartChar: X
Encoding: 88 88 60
Width: 740
GlyphClass: 2
Flags: W
AnchorPoint: "LatinBelow.mark" 310 0 basechar 0
AnchorPoint: "LatinAbove.mark" 334 150 basechar 0
LayerCount: 2
Fore
SplineSet
124 764 m 1
 125 770 l 1
 232 780 l 1
 386 475 l 1
 637 780 l 1
 740 770 l 1
 739 764 l 1
 430 415 l 1
 669 6 l 1
 668 0 l 1
 557 0 l 1
 365 340 l 1
 64 0 l 1
 -47 0 l 1
 -46 6 l 1
 323 415 l 1
 124 764 l 1
EndSplineSet
EndChar

StartChar: Y
Encoding: 89 89 61
Width: 670
GlyphClass: 2
Flags: W
AnchorPoint: "LatinBelow.mark" 275 0 basechar 0
AnchorPoint: "LatinAbove.mark" 299 150 basechar 0
LayerCount: 2
Fore
SplineSet
79 765 m 1
 80 772 l 1
 189 780 l 1
 337 392 l 1
 609 780 l 1
 714 772 l 1
 713 765 l 1
 371 301 l 1
 323 0 l 1
 227 0 l 1
 275 301 l 1
 79 765 l 1
EndSplineSet
EndChar

StartChar: Z
Encoding: 90 90 62
Width: 670
GlyphClass: 2
Flags: W
AnchorPoint: "LatinBelow.mark" 275 0 basechar 0
AnchorPoint: "LatinAbove.mark" 299 150 basechar 0
LayerCount: 2
Fore
SplineSet
-8 55 m 1
 542 706 l 1
 119 706 l 1
 131 780 l 1
 675 780 l 1
 673 725 l 1
 123 74 l 1
 580 74 l 1
 568 0 l 1
 -10 0 l 1
 -8 55 l 1
EndSplineSet
EndChar

StartChar: bracketleft
Encoding: 91 91 63
Width: 435
GlyphClass: 2
Flags: W
LayerCount: 2
Fore
SplineSet
48 -120 m 1
 210 900 l 1
 420 900 l 1
 411 844 l 1
 279 844 l 1
 135 -64 l 1
 265 -64 l 1
 256 -120 l 1
 48 -120 l 1
EndSplineSet
EndChar

StartChar: backslash
Encoding: 92 92 64
Width: 510
GlyphClass: 2
Flags: W
LayerCount: 2
Fore
SplineSet
400 0 m 1
 318 0 l 1
 113 775 l 1
 114 780 l 1
 195 780 l 1
 401 5 l 1
 400 0 l 1
EndSplineSet
EndChar

StartChar: bracketright
Encoding: 93 93 65
Width: 435
GlyphClass: 2
Flags: W
LayerCount: 2
Fore
SplineSet
391 900 m 1
 229 -120 l 1
 19 -120 l 1
 28 -64 l 1
 160 -64 l 1
 304 844 l 1
 174 844 l 1
 183 900 l 1
 391 900 l 1
EndSplineSet
EndChar

StartChar: asciicircum
Encoding: 94 94 66
Width: 630
GlyphClass: 2
Flags: W
LayerCount: 2
Fore
SplineSet
70 586 m 1
 376 883 l 1
 413 883 l 1
 625 586 l 1
 573 553 l 1
 379 786 l 1
 111 553 l 1
 70 586 l 1
EndSplineSet
EndChar

StartChar: underscore
Encoding: 95 95 67
Width: 600
GlyphClass: 2
Flags: W
LayerCount: 2
Fore
SplineSet
-60 0 m 1
 540 0 l 1
 529 -70 l 1
 -71 -70 l 1
 -60 0 l 1
EndSplineSet
EndChar

StartChar: grave
Encoding: 96 96 68
Width: 390
GlyphClass: 2
Flags: W
LayerCount: 2
Fore
SplineSet
79 830 m 1
 157 882 l 1
 386 586 l 1
 334 553 l 1
 79 830 l 1
EndSplineSet
EndChar

StartChar: a
Encoding: 97 97 69
Width: 625
GlyphClass: 2
Flags: W
AnchorPoint: "LatinOgonek.mark" 455 0 basechar 0
AnchorPoint: "LatinBelow.mark" 270 0 basechar 0
AnchorPoint: "LatinAbove.mark" 250 0 basechar 0
LayerCount: 2
Fore
SplineSet
30 172 m 0
 42 249 116 320 242 320 c 0
 315 320 385 314 435 308 c 1
 453 422 l 2
 454 431 455 440 455 448 c 0
 455 519 402 552 327 552 c 0
 247 552 189 505 166 429 c 1
 77 435 l 1
 105 528 194 618 338 618 c 0
 466 618 543 551 543 454 c 0
 543 444 542 433 540 422 c 2
 495 137 l 2
 493 125 492 114 492 105 c 0
 492 68 509 52 550 47 c 1
 519 -13 l 1
 475 -8 418 14 416 89 c 1
 372 35 307 -13 213 -13 c 0
 97 -13 27 43 27 138 c 0
 27 149 28 160 30 172 c 0
430 252 m 1
 386 258 318 266 238 266 c 0
 180 266 128 232 118 171 c 0
 117 162 116 153 116 145 c 0
 116 75 168 43 232 43 c 0
 339 43 397 133 423 210 c 1
 430 252 l 1
EndSplineSet
Substitution2: "Latin.ss20 subtable" uni0251
Substitution2: "Latin.ss19 subtable" uni0251
EndChar

StartChar: b
Encoding: 98 98 70
Width: 675
GlyphClass: 2
Flags: W
AnchorPoint: "LatinBelow.mark" 300 0 basechar 0
AnchorPoint: "LatinAbove.mark" 104 180 basechar 0
LayerCount: 2
Fore
SplineSet
602 312 m 2
 599 288 l 1
 577 146 487 -13 301 -13 c 0
 211 -13 161 42 134 106 c 1
 110 0 l 1
 33 0 l 1
 161 810 l 1
 248 810 l 1
 200 504 l 1
 247 563 315 613 400 613 c 0
 556 613 608 501 608 382 c 0
 608 359 606 335 602 312 c 2
180 378 m 1
 155 222 l 1
 161 140 202 54 302 54 c 0
 414 54 486 144 509 288 c 1
 512 312 l 2
 516 337 518 360 518 381 c 0
 518 484 472 546 379 546 c 0
 279 546 212 460 180 378 c 1
EndSplineSet
EndChar

StartChar: c
Encoding: 99 99 71
Width: 605
GlyphClass: 2
Flags: W
AnchorPoint: "LatinCedilla.mark" 270 0 basechar 0
AnchorPoint: "LatinBelow.mark" 270 0 basechar 0
AnchorPoint: "LatinAbove.mark" 270 0 basechar 0
LayerCount: 2
Fore
SplineSet
48 287 m 2
 53 313 l 1
 75 455 160 618 369 618 c 0
 523 618 575 518 575 455 c 1
 484 447 l 1
 483 493 444 551 358 551 c 0
 241 551 168 456 145 313 c 1
 140 287 l 2
 136 263 134 240 134 219 c 0
 134 115 182 49 279 49 c 0
 365 49 422 107 437 153 c 1
 526 145 l 1
 506 82 422 -18 268 -18 c 0
 94 -18 42 94 42 214 c 0
 42 238 44 263 48 287 c 2
EndSplineSet
EndChar

StartChar: d
Encoding: 100 100 72
Width: 680
GlyphClass: 2
Flags: W
AnchorPoint: "LatinBelow.mark" 300 0 basechar 0
AnchorPoint: "LatinAbove.mark" 494 180 basechar 0
LayerCount: 2
Fore
SplineSet
48 288 m 2
 51 312 l 1
 73 454 163 613 349 613 c 0
 437 613 487 561 514 500 c 1
 563 810 l 1
 650 810 l 1
 544 137 l 2
 542 125 541 114 541 105 c 0
 541 68 558 52 599 47 c 1
 568 -13 l 1
 524 -7 463 15 463 94 c 0
 463 100 463 107 464 114 c 1
 415 47 344 -13 250 -13 c 0
 94 -13 42 99 42 218 c 0
 42 241 44 265 48 288 c 2
495 378 m 1
 489 460 448 546 348 546 c 0
 236 546 164 456 141 312 c 1
 138 288 l 2
 134 263 132 240 132 219 c 0
 132 116 178 54 271 54 c 0
 371 54 438 140 470 222 c 1
 495 378 l 1
EndSplineSet
EndChar

StartChar: e
Encoding: 101 101 73
Width: 640
GlyphClass: 2
Flags: W
AnchorPoint: "LatinOgonek.mark" 350 0 basechar 0
AnchorPoint: "LatinBelow.mark" 270 0 basechar 0
AnchorPoint: "LatinAbove.mark" 270 0 basechar 0
LayerCount: 2
Fore
SplineSet
48 286 m 2
 53 314 l 2
 75 456 162 618 365 618 c 0
 511 618 579 524 579 410 c 0
 579 394 578 378 575 362 c 0
 571 337 565 311 556 286 c 1
 136 286 l 1
 132 261 130 239 130 217 c 0
 130 114 175 47 274 47 c 0
 364 47 422 107 437 153 c 1
 523 145 l 1
 502 81 416 -18 264 -18 c 0
 93 -18 42 93 42 212 c 0
 42 237 44 262 48 286 c 2
146 344 m 1
 487 344 l 1
 488 351 489 357 490 363 c 0
 493 380 494 395 494 410 c 0
 494 504 440 554 355 554 c 0
 245 554 174 470 146 344 c 1
EndSplineSet
EndChar

StartChar: f
Encoding: 102 102 74
Width: 400
GlyphClass: 2
Flags: W
AnchorPoint: "LatinBelow.mark" 120 0 basechar 0
AnchorPoint: "LatinAbove.mark" 239 180 basechar 0
LayerCount: 2
Fore
SplineSet
61 542 m 1
 70 600 l 1
 165 600 l 1
 178 683 l 2
 188 743 238 828 354 828 c 0
 431 828 472 794 484 784 c 1
 437 735 l 1
 425 744 398 765 350 765 c 0
 302 765 272 729 265 683 c 2
 252 600 l 1
 410 600 l 1
 401 542 l 1
 246 542 l 1
 160 0 l 1
 70 0 l 1
 156 542 l 1
 61 542 l 1
EndSplineSet
EndChar

StartChar: g
Encoding: 103 103 75
Width: 670
GlyphClass: 2
Flags: W
AnchorPoint: "LatinBelow.mark" 271 -180 basechar 0
AnchorPoint: "LatinAbove.mark" 300 0 basechar 0
LayerCount: 2
Fore
SplineSet
52 315 m 0
 74 451 163 613 349 613 c 0
 439 613 489 557 516 493 c 1
 540 600 l 1
 617 600 l 1
 517 -31 l 2
 499 -146 394 -228 252 -228 c 0
 112 -228 47 -159 39 -113 c 1
 127 -90 l 1
 132 -118 170 -165 262 -165 c 0
 350 -165 418 -121 432 -31 c 2
 459 136 l 1
 412 72 344 17 255 17 c 0
 99 17 46 131 46 248 c 0
 46 271 48 293 52 315 c 0
494 375 m 1
 488 457 449 547 349 547 c 0
 237 547 164 453 142 315 c 0
 138 292 136 270 136 249 c 0
 136 148 182 83 275 83 c 0
 375 83 443 173 475 255 c 1
 494 375 l 1
EndSplineSet
Substitution2: "Latin.ss20 subtable" g.alt
Substitution2: "Latin.ss18 subtable" g.alt
EndChar

StartChar: h
Encoding: 104 104 76
Width: 665
GlyphClass: 2
Flags: W
AnchorPoint: "LatinBelow.mark" 300 0 basechar 0
AnchorPoint: "LatinAbove.mark" 104 180 basechar 0
LayerCount: 2
Fore
SplineSet
33 0 m 1
 161 810 l 1
 249 810 l 1
 190 433 l 1
 246 524 335 613 453 613 c 0
 555 613 598 548 598 463 c 0
 598 449 597 435 595 421 c 2
 528 0 l 1
 438 0 l 1
 504 418 l 2
 506 430 507 441 507 451 c 0
 507 515 471 541 419 541 c 0
 310 541 206 412 171 301 c 1
 123 0 l 1
 33 0 l 1
EndSplineSet
EndChar

StartChar: i
Encoding: 105 105 77
Width: 300
GlyphClass: 3
Flags: W
AnchorPoint: "LatinOgonek.mark" 95 0 basechar 0
AnchorPoint: "LatinBelow.mark" 90 0 basechar 0
AnchorPoint: "LatinAbove.mark" 119 180 basechar 0
LayerCount: 2
Fore
SplineSet
45 0 m 1
 140 600 l 1
 230 600 l 1
 135 0 l 1
 45 0 l 1
224 848 m 0
 261 848 287 827 287 792 c 0
 287 788 287 784 286 780 c 0
 279 738 244 712 203 712 c 0
 166 712 141 733 141 767 c 0
 141 771 141 776 142 780 c 0
 149 822 183 848 224 848 c 0
EndSplineSet
Substitution2: "Latin.ij.dotless subtable" dotlessi
Ligature2: "Latin.ij subtable" dotlessi uni0307
EndChar

StartChar: j
Encoding: 106 106 78
Width: 310
GlyphClass: 3
Flags: W
AnchorPoint: "LatinBelow.mark" 61 -180 basechar 0
AnchorPoint: "LatinAbove.mark" 119 180 basechar 0
LayerCount: 2
Fore
SplineSet
-85 -164 m 1
 -12 -140 40 -102 53 -19 c 2
 151 600 l 1
 241 600 l 1
 142 -24 l 2
 125 -133 32 -195 -66 -223 c 1
 -85 -164 l 1
235 848 m 0
 272 848 298 827 298 792 c 0
 298 788 298 784 297 780 c 0
 290 738 255 712 214 712 c 0
 177 712 152 733 152 767 c 0
 152 771 152 776 153 780 c 0
 160 822 194 848 235 848 c 0
EndSplineSet
Substitution2: "Latin.ij.dotless subtable" uni0237
Ligature2: "Latin.ij subtable" uni0237 uni0307
Ligature2: "Latin.ij subtable" uni0237 uni200D uni0307
Ligature2: "Latin.ij subtable" dotlessi uni200D uni0307
EndChar

StartChar: k
Encoding: 107 107 79
Width: 605
GlyphClass: 2
Flags: W
AnchorPoint: "LatinBelow.mark" 300 0 basechar 0
AnchorPoint: "LatinAbove.mark" 104 180 basechar 0
LayerCount: 2
Fore
SplineSet
42 0 m 1
 170 810 l 1
 256 810 l 1
 176 305 l 1
 494 600 l 1
 591 594 l 1
 590 590 l 1
 315 345 l 1
 533 4 l 1
 532 0 l 1
 428 0 l 1
 248 287 l 1
 161 209 l 1
 128 0 l 1
 42 0 l 1
EndSplineSet
EndChar

StartChar: l
Encoding: 108 108 80
Width: 315
GlyphClass: 2
Flags: W
AnchorPoint: "LatinBelow.mark" 130 0 basechar 0
AnchorPoint: "LatinAbove.mark" 109 180 basechar 0
LayerCount: 2
Fore
SplineSet
59 122 m 2
 168 810 l 1
 258 810 l 1
 151 130 l 2
 150 124 149 118 149 113 c 0
 149 67 187 52 247 47 c 1
 220 -13 l 1
 149 -7 57 12 57 99 c 0
 57 106 58 114 59 122 c 2
EndSplineSet
EndChar

StartChar: m
Encoding: 109 109 81
Width: 945
GlyphClass: 2
Flags: W
AnchorPoint: "LatinBelow.mark" 420 0 basechar 0
AnchorPoint: "LatinAbove.mark" 420 0 basechar 0
LayerCount: 2
Fore
SplineSet
116 595 m 1
 200 603 l 1
 191 464 l 1
 235 540 301 607 398 607 c 0
 490 607 534 546 535 467 c 1
 579 542 645 607 740 607 c 0
 835 607 877 543 877 461 c 0
 877 448 876 434 874 420 c 2
 807 0 l 1
 717 0 l 1
 783 418 l 2
 785 431 786 442 786 452 c 0
 786 512 753 536 707 536 c 0
 617 536 549 428 517 328 c 1
 465 0 l 1
 375 0 l 1
 441 418 l 2
 443 430 444 442 444 452 c 0
 444 513 410 536 364 536 c 0
 272 536 204 423 173 322 c 1
 122 0 l 1
 32 0 l 1
 99 420 l 1
 116 595 l 1
EndSplineSet
EndChar

StartChar: n
Encoding: 110 110 82
Width: 655
GlyphClass: 2
Flags: W
AnchorPoint: "LatinBelow.mark" 300 0 basechar 0
AnchorPoint: "LatinAbove.mark" 270 0 basechar 0
LayerCount: 2
Fore
SplineSet
32 0 m 1
 99 420 l 1
 116 595 l 1
 200 603 l 1
 189 438 l 1
 243 527 329 613 444 613 c 0
 543 613 587 548 587 463 c 0
 587 449 586 435 584 421 c 2
 517 0 l 1
 427 0 l 1
 493 418 l 2
 495 430 496 442 496 452 c 0
 496 515 460 541 411 541 c 0
 304 541 205 413 170 302 c 1
 122 0 l 1
 32 0 l 1
EndSplineSet
Substitution2: "Latin.sups subtable" n.sups
EndChar

StartChar: o
Encoding: 111 111 83
Width: 660
GlyphClass: 2
Flags: W
AnchorPoint: "LatinOgonek.mark" 340 0 basechar 0
AnchorPoint: "LatinBelow.mark" 270 0 basechar 0
AnchorPoint: "LatinAbove.mark" 270 0 basechar 0
LayerCount: 2
Fore
SplineSet
47 286 m 2
 52 314 l 2
 74 456 160 618 368 618 c 0
 541 618 594 506 594 386 c 0
 594 362 592 338 588 314 c 2
 583 286 l 2
 561 144 475 -18 267 -18 c 0
 94 -18 41 94 41 214 c 0
 41 238 43 262 47 286 c 2
278 48 m 0
 398 48 470 143 493 286 c 2
 498 314 l 2
 502 338 504 361 504 382 c 0
 504 486 457 552 357 552 c 0
 237 552 165 457 142 314 c 2
 137 286 l 2
 133 262 131 239 131 218 c 0
 131 114 178 48 278 48 c 0
EndSplineSet
EndChar

StartChar: p
Encoding: 112 112 84
Width: 675
GlyphClass: 2
Flags: W
AnchorPoint: "LatinBelow.mark" 61 -180 basechar 0
AnchorPoint: "LatinAbove.mark" 270 0 basechar 0
LayerCount: 2
Fore
SplineSet
602 312 m 2
 599 288 l 1
 577 146 487 -13 301 -13 c 0
 216 -13 166 37 138 96 c 1
 90 -210 l 1
 0 -210 l 1
 100 420 l 1
 117 595 l 1
 201 603 l 1
 194 497 l 1
 242 559 311 613 400 613 c 0
 556 613 608 501 608 382 c 0
 608 359 606 335 602 312 c 2
156 210 m 1
 165 132 207 54 302 54 c 0
 414 54 486 144 509 288 c 1
 512 312 l 2
 516 337 518 360 518 381 c 0
 518 484 472 546 379 546 c 0
 284 546 218 468 185 390 c 1
 156 210 l 1
EndSplineSet
EndChar

StartChar: q
Encoding: 113 113 85
Width: 675
GlyphClass: 2
Flags: W
AnchorPoint: "LatinBelow.mark" 437 -240 basechar 0
AnchorPoint: "LatinAbove.mark" 300 0 basechar 0
LayerCount: 2
Fore
SplineSet
48 288 m 2
 51 312 l 1
 73 454 163 613 349 613 c 0
 439 613 489 558 516 494 c 1
 540 600 l 1
 617 600 l 1
 489 -210 l 1
 402 -210 l 1
 450 96 l 1
 403 37 335 -13 250 -13 c 0
 94 -13 42 99 42 218 c 0
 42 241 44 265 48 288 c 2
470 222 m 1
 495 378 l 1
 489 460 448 546 348 546 c 0
 236 546 164 456 141 312 c 1
 138 288 l 2
 134 263 132 240 132 219 c 0
 132 116 178 54 271 54 c 0
 371 54 438 140 470 222 c 1
EndSplineSet
EndChar

StartChar: r
Encoding: 114 114 86
Width: 435
GlyphClass: 2
Flags: W
AnchorPoint: "LatinBelow.mark" 110 0 basechar 0
AnchorPoint: "LatinAbove.mark" 180 0 basechar 0
LayerCount: 2
Fore
SplineSet
111 594 m 1
 189 603 l 1
 199 453 l 1
 236 535 297 613 394 613 c 0
 422 613 443 607 462 598 c 1
 416 524 l 1
 403 531 388 535 368 535 c 0
 280 535 222 428 194 327 c 1
 142 0 l 1
 52 0 l 1
 120 427 l 1
 111 594 l 1
EndSplineSet
EndChar

StartChar: s
Encoding: 115 115 87
Width: 570
GlyphClass: 2
Flags: W
AnchorPoint: "LatinCedilla.mark" 250 0 basechar 0
AnchorPoint: "LatinBelow.mark" 225 0 basechar 0
AnchorPoint: "LatinAbove.mark" 225 0 basechar 0
LayerCount: 2
Fore
SplineSet
14 137 m 1
 103 147 l 1
 104 100 142 47 235 47 c 0
 327 47 385 89 395 153 c 0
 396 159 396 165 396 170 c 0
 396 218 358 240 329 249 c 0
 286 263 224 281 183 297 c 0
 135 315 77 351 77 424 c 0
 77 432 78 440 79 448 c 0
 95 546 190 618 322 618 c 0
 462 618 514 529 515 467 c 1
 426 455 l 1
 425 501 392 553 312 553 c 0
 232 553 175 514 165 451 c 0
 164 447 164 442 164 438 c 0
 164 396 200 374 231 363 c 0
 273 349 336 329 374 317 c 0
 428 300 484 264 484 185 c 0
 484 176 484 166 482 155 c 0
 466 56 365 -18 221 -18 c 0
 69 -18 16 73 14 137 c 1
EndSplineSet
EndChar

StartChar: t
Encoding: 116 116 88
Width: 415
GlyphClass: 2
Flags: W
AnchorPoint: "LatinCedilla.mark" 210 0 basechar 0
AnchorPoint: "LatinBelow.mark" 220 0 basechar 0
AnchorPoint: "LatinAbove.mark" 139 120 basechar 0
LayerCount: 2
Fore
SplineSet
61 542 m 1
 70 600 l 1
 168 600 l 1
 188 728 l 1
 275 735 l 1
 254 600 l 1
 410 600 l 1
 401 542 l 1
 246 542 l 1
 181 133 l 2
 179 121 178 111 178 102 c 0
 178 63 196 52 230 52 c 0
 274 52 318 69 336 79 c 1
 348 19 l 1
 318 3 267 -13 209 -13 c 0
 134 -13 86 16 86 89 c 0
 86 99 87 110 89 121 c 2
 156 542 l 1
 61 542 l 1
EndSplineSet
EndChar

StartChar: u
Encoding: 117 117 89
Width: 620
GlyphClass: 2
Flags: W
AnchorPoint: "LatinOgonek.mark" 320 0 basechar 0
AnchorPoint: "LatinBelow.mark" 250 0 basechar 0
AnchorPoint: "LatinAbove.mark" 250 0 basechar 0
LayerCount: 2
Fore
SplineSet
41 184 m 2
 107 600 l 1
 197 600 l 1
 131 184 l 2
 130 175 129 165 129 157 c 0
 129 85 181 48 258 48 c 0
 344 48 413 94 427 184 c 2
 493 600 l 1
 583 600 l 1
 517 184 l 2
 499 69 393 -18 247 -18 c 0
 115 -18 38 53 38 152 c 0
 38 162 39 173 41 184 c 2
EndSplineSet
EndChar

StartChar: v
Encoding: 118 118 90
Width: 600
GlyphClass: 2
Flags: W
AnchorPoint: "LatinBelow.mark" 240 0 basechar 0
AnchorPoint: "LatinAbove.mark" 240 0 basechar 0
LayerCount: 2
Fore
SplineSet
50 588 m 1
 51 593 l 1
 150 600 l 1
 260 96 l 1
 530 600 l 1
 627 593 l 1
 626 588 l 1
 281 0 l 1
 209 0 l 1
 50 588 l 1
EndSplineSet
EndChar

StartChar: w
Encoding: 119 119 91
Width: 830
GlyphClass: 2
Flags: W
AnchorPoint: "LatinBelow.mark" 355 0 basechar 0
AnchorPoint: "LatinAbove.mark" 355 0 basechar 0
LayerCount: 2
Fore
SplineSet
836 588 m 1
 567 0 l 1
 489 0 l 1
 428 461 l 1
 221 0 l 1
 143 0 l 1
 60 588 l 1
 61 592 l 1
 158 600 l 1
 208 125 l 1
 412 585 l 1
 484 585 l 1
 542 125 l 1
 742 600 l 1
 837 592 l 1
 836 588 l 1
EndSplineSet
EndChar

StartChar: x
Encoding: 120 120 92
Width: 600
GlyphClass: 2
Flags: W
AnchorPoint: "LatinBelow.mark" 240 0 basechar 0
AnchorPoint: "LatinAbove.mark" 240 0 basechar 0
LayerCount: 2
Fore
SplineSet
91 588 m 1
 92 593 l 1
 189 600 l 1
 300 380 l 1
 482 600 l 1
 577 593 l 1
 576 588 l 1
 341 324 l 1
 524 4 l 1
 523 0 l 1
 422 0 l 1
 280 255 l 1
 59 0 l 1
 -42 0 l 1
 -41 4 l 1
 242 324 l 1
 91 588 l 1
EndSplineSet
EndChar

StartChar: y
Encoding: 121 121 93
Width: 600
GlyphClass: 2
Flags: W
AnchorPoint: "LatinBelow.mark" 211 -180 basechar 0
AnchorPoint: "LatinAbove.mark" 240 0 basechar 0
LayerCount: 2
Fore
SplineSet
55 588 m 1
 56 593 l 1
 155 600 l 1
 255 103 l 1
 516 600 l 1
 612 593 l 1
 611 588 l 1
 263 -29 l 2
 212 -113 149 -228 42 -228 c 0
 -8 -228 -36 -206 -57 -186 c 1
 -5 -131 l 1
 10 -147 25 -165 50 -165 c 0
 98 -165 143 -96 192 -12 c 2
 201 3 l 1
 55 588 l 1
EndSplineSet
EndChar

StartChar: z
Encoding: 122 122 94
Width: 530
GlyphClass: 2
Flags: W
AnchorPoint: "LatinBelow.mark" 205 0 basechar 0
AnchorPoint: "LatinAbove.mark" 205 0 basechar 0
LayerCount: 2
Fore
SplineSet
-16 46 m 1
 392 536 l 1
 82 536 l 1
 92 600 l 1
 514 600 l 1
 513 554 l 1
 106 64 l 1
 442 64 l 1
 432 0 l 1
 -17 0 l 1
 -16 46 l 1
EndSplineSet
EndChar

StartChar: braceleft
Encoding: 123 123 95
Width: 390
GlyphClass: 2
Flags: W
LayerCount: 2
Fore
SplineSet
51 373 m 1
 54 390 l 1
 56 407 l 1
 99 414 161 452 175 538 c 0
 176 544 176 552 176 561 c 0
 176 595 171 646 171 690 c 0
 171 707 172 724 174 738 c 0
 189 834 253 900 345 900 c 2
 390 900 l 1
 382 852 l 1
 347 852 l 2
 311 852 268 828 253 732 c 0
 251 720 250 705 250 688 c 0
 250 652 254 609 254 573 c 0
 254 557 253 542 251 530 c 0
 239 456 193 410 143 390 c 1
 181 373 210 336 210 280 c 0
 210 271 209 261 207 250 c 0
 199 200 153 100 145 48 c 0
 143 32 141 19 141 7 c 0
 141 -55 171 -72 201 -72 c 2
 236 -72 l 1
 228 -120 l 1
 183 -120 l 2
 103 -120 61 -71 61 5 c 0
 61 17 62 29 64 42 c 0
 74 102 122 202 128 242 c 0
 130 252 130 261 130 270 c 0
 130 336 87 367 51 373 c 1
EndSplineSet
EndChar

StartChar: bar
Encoding: 124 124 96
Width: 360
GlyphClass: 2
Flags: W
LayerCount: 2
Fore
SplineSet
61 -120 m 1
 223 900 l 1
 303 900 l 1
 141 -120 l 1
 61 -120 l 1
EndSplineSet
EndChar

StartChar: braceright
Encoding: 125 125 97
Width: 390
GlyphClass: 2
Flags: W
LayerCount: 2
Fore
SplineSet
342 407 m 1
 340 390 l 1
 337 373 l 1
 294 366 232 328 218 242 c 0
 217 236 217 228 217 220 c 0
 217 185 223 134 223 88 c 0
 223 72 222 56 220 42 c 0
 205 -54 141 -120 49 -120 c 2
 4 -120 l 1
 12 -72 l 1
 47 -72 l 2
 83 -72 126 -48 141 48 c 0
 143 60 144 75 144 92 c 0
 144 128 140 171 140 207 c 0
 140 223 141 238 143 250 c 0
 155 324 201 370 251 390 c 1
 213 407 184 444 184 500 c 0
 184 509 185 519 187 530 c 0
 195 580 241 680 249 732 c 0
 251 748 253 761 253 773 c 0
 253 835 223 852 193 852 c 2
 158 852 l 1
 166 900 l 1
 211 900 l 2
 291 900 333 851 333 775 c 0
 333 763 332 751 330 738 c 0
 320 678 271 578 265 538 c 0
 263 528 263 519 263 510 c 0
 263 444 306 413 342 407 c 1
EndSplineSet
EndChar

StartChar: asciitilde
Encoding: 126 126 98
Width: 600
GlyphClass: 2
Flags: W
LayerCount: 2
Fore
SplineSet
44 329 m 1
 78 395 129 481 216 481 c 0
 274 481 306 442 330 414 c 0
 355 384 375 365 400 365 c 0
 442 365 480 420 502 469 c 1
 558 451 l 1
 526 385 472 299 386 299 c 0
 328 299 296 338 272 366 c 0
 247 396 229 415 204 415 c 0
 162 415 123 361 100 311 c 1
 44 329 l 1
EndSplineSet
EndChar

StartChar: exclamdown
Encoding: 161 161 100
Width: 330
GlyphClass: 2
Flags: W
LayerCount: 2
Fore
SplineSet
127 -210 m 1
 17 -210 l 1
 126 330 l 1
 188 330 l 1
 127 -210 l 1
179 467 m 0
 142 467 117 488 117 522 c 0
 117 526 117 531 118 535 c 0
 125 577 160 603 201 603 c 0
 238 603 263 582 263 548 c 0
 263 544 263 539 262 535 c 0
 255 493 220 467 179 467 c 0
EndSplineSet
EndChar

StartChar: cent
Encoding: 162 162 101
Width: 605
GlyphClass: 2
Flags: W
LayerCount: 2
Fore
SplineSet
52 317 m 2
 56 343 l 2
 77 477 154 631 339 647 c 1
 361 780 l 1
 430 780 l 1
 408 646 l 1
 535 632 579 543 579 485 c 1
 488 477 l 1
 487 516 458 564 397 577 c 1
 319 83 l 1
 384 96 428 144 441 183 c 1
 530 175 l 1
 512 117 439 28 308 14 c 1
 287 -120 l 1
 218 -120 l 1
 239 13 l 1
 92 26 46 132 46 244 c 0
 46 268 48 293 52 317 c 2
250 82 m 1
 329 578 l 1
 231 561 168 472 148 343 c 2
 144 317 l 2
 140 293 138 271 138 250 c 0
 138 158 175 96 250 82 c 1
EndSplineSet
EndChar

StartChar: sterling
Encoding: 163 163 102
Width: 660
GlyphClass: 2
Flags: W
LayerCount: 2
Fore
SplineSet
80 363 m 1
 89 417 l 1
 189 417 l 1
 211 558 l 2
 219 607 254 798 443 798 c 0
 593 798 611 679 614 639 c 1
 523 629 l 1
 520 673 507 733 433 733 c 0
 344 733 312 625 301 558 c 2
 279 417 l 1
 509 417 l 1
 500 363 l 1
 270 363 l 1
 260 296 l 2
 244 192 212 119 153 65 c 1
 548 65 l 1
 538 0 l 1
 31 0 l 1
 32 55 l 1
 106 107 150 171 170 296 c 2
 180 363 l 1
 80 363 l 1
EndSplineSet
EndChar

StartChar: currency
Encoding: 164 164 103
Width: 720
GlyphClass: 2
Flags: W
LayerCount: 2
Fore
SplineSet
617 144 m 1
 560 96 l 1
 472 201 l 1
 431 176 381 160 325 160 c 0
 269 160 225 176 192 201 c 1
 70 96 l 1
 29 144 l 1
 149 248 l 1
 131 278 122 313 122 351 c 0
 122 364 123 377 125 390 c 0
 133 443 158 492 194 532 c 1
 107 636 l 1
 163 684 l 1
 252 579 l 1
 293 604 342 620 398 620 c 0
 454 620 499 604 532 579 c 1
 653 684 l 1
 695 636 l 1
 574 532 l 1
 592 502 602 466 602 427 c 0
 602 415 601 403 599 390 c 0
 591 337 565 288 529 248 c 1
 617 144 l 1
336 229 m 0
 426 229 498 291 514 390 c 0
 516 402 517 413 517 424 c 0
 517 503 466 551 387 551 c 0
 297 551 226 489 210 390 c 0
 208 378 207 367 207 356 c 0
 207 277 257 229 336 229 c 0
EndSplineSet
EndChar

StartChar: yen
Encoding: 165 165 104
Width: 660
GlyphClass: 2
Flags: W
LayerCount: 2
Fore
SplineSet
95 318 m 1
 104 372 l 1
 245 372 l 1
 93 765 l 1
 94 772 l 1
 203 780 l 1
 332 392 l 1
 585 780 l 1
 690 772 l 1
 689 765 l 1
 413 372 l 1
 554 372 l 1
 545 318 l 1
 374 318 l 1
 366 306 l 1
 353 222 l 1
 530 222 l 1
 522 168 l 1
 345 168 l 1
 318 0 l 1
 222 0 l 1
 249 168 l 1
 72 168 l 1
 80 222 l 1
 257 222 l 1
 270 306 l 1
 266 318 l 1
 95 318 l 1
EndSplineSet
EndChar

StartChar: brokenbar
Encoding: 166 166 105
Width: 360
GlyphClass: 2
Flags: W
LayerCount: 2
Fore
SplineSet
151 450 m 1
 223 900 l 1
 303 900 l 1
 231 450 l 1
 151 450 l 1
61 -120 m 1
 132 330 l 1
 212 330 l 1
 141 -120 l 1
 61 -120 l 1
EndSplineSet
EndChar

StartChar: section
Encoding: 167 167 106
Width: 660
GlyphClass: 2
Flags: W
LayerCount: 2
Fore
SplineSet
147 619 m 0
 165 735 266 828 411 828 c 0
 562 828 612 715 612 639 c 2
 612 637 l 1
 524 629 l 1
 524 694 487 764 401 764 c 0
 315 764 249 712 234 619 c 0
 233 611 232 603 232 596 c 0
 232 538 271 510 306 493 c 0
 350 472 414 445 456 429 c 0
 511 409 567 359 567 269 c 0
 567 257 566 244 564 231 c 0
 556 180 526 133 483 95 c 1
 492 74 498 50 498 22 c 0
 498 11 497 -1 495 -14 c 0
 476 -132 374 -228 214 -228 c 0
 50 -228 -3 -111 -3 -33 c 1
 86 -25 l 1
 86 -89 122 -164 224 -164 c 0
 326 -164 393 -111 408 -14 c 0
 410 -3 411 8 411 17 c 0
 411 82 371 108 337 121 c 0
 292 139 231 166 184 188 c 0
 135 211 76 260 76 343 c 0
 76 353 76 363 78 373 c 0
 86 425 116 474 164 510 c 1
 152 531 144 556 144 587 c 0
 144 597 145 608 147 619 c 0
442 152 m 1
 458 172 472 197 477 231 c 0
 479 242 480 252 480 261 c 0
 480 327 440 355 408 367 c 0
 363 385 300 411 253 433 c 0
 238 440 222 449 207 461 c 1
 186 438 171 409 165 373 c 0
 164 365 163 359 163 352 c 0
 163 293 208 265 243 248 c 0
 287 227 346 201 387 185 c 0
 406 178 425 167 442 152 c 1
EndSplineSet
EndChar

StartChar: dieresis
Encoding: 168 168 107
Width: 510
GlyphClass: 2
Flags: W
LayerCount: 2
Fore
SplineSet
132 780 m 0
 138 819 172 843 210 843 c 0
 244 843 269 824 269 791 c 0
 269 788 269 784 268 780 c 0
 262 741 228 717 190 717 c 0
 156 717 131 736 131 769 c 0
 131 772 131 776 132 780 c 0
370 780 m 0
 376 819 410 843 448 843 c 0
 482 843 507 824 507 791 c 0
 507 788 507 784 506 780 c 0
 500 741 466 717 428 717 c 0
 394 717 369 736 369 769 c 0
 369 772 369 776 370 780 c 0
EndSplineSet
EndChar

StartChar: copyright
Encoding: 169 169 108
Width: 1020
GlyphClass: 2
Flags: W
LayerCount: 2
Fore
SplineSet
346 412 m 2
 361 504 417 608 553 608 c 0
 653 608 687 543 689 503 c 1
 626 497 l 1
 624 525 601 562 546 562 c 0
 470 562 424 504 409 412 c 2
 407 396 l 2
 404 380 403 365 403 351 c 0
 403 285 433 244 496 244 c 0
 551 244 586 282 596 310 c 1
 657 304 l 1
 643 264 589 199 489 199 c 0
 376 199 340 272 340 350 c 0
 340 365 342 381 344 396 c 2
 346 412 l 2
449 -4 m 0
 223 -4 91 134 91 330 c 0
 91 354 93 379 97 405 c 0
 134 639 325 814 579 814 c 0
 805 814 937 676 937 480 c 0
 937 456 935 431 931 405 c 0
 894 171 703 -4 449 -4 c 0
457 44 m 0
 677 44 843 191 877 405 c 0
 881 429 883 453 883 475 c 0
 883 651 766 766 571 766 c 0
 351 766 185 619 151 405 c 0
 147 381 145 357 145 335 c 0
 145 159 262 44 457 44 c 0
EndSplineSet
EndChar

StartChar: ordfeminine
Encoding: 170 170 109
Width: 313
GlyphClass: 2
Flags: W
LayerCount: 2
Fore
SplineSet
60 596 m 0
 66 634 103 672 170 672 c 0
 202 672 234 668 258 666 c 1
 267 720 l 2
 268 725 268 729 268 733 c 0
 268 766 243 778 211 778 c 0
 177 778 149 758 138 722 c 1
 83 726 l 1
 96 772 142 820 218 820 c 0
 285 820 323 786 323 736 c 0
 323 731 323 726 322 720 c 2
 300 582 l 2
 299 576 299 570 299 566 c 0
 299 549 305 542 326 540 c 1
 306 503 l 1
 286 505 256 515 251 548 c 1
 229 524 198 503 154 503 c 0
 93 503 59 531 59 579 c 0
 59 585 59 590 60 596 c 0
256 632 m 1
 234 635 203 638 168 638 c 0
 144 638 118 624 114 596 c 0
 113 592 113 588 113 584 c 0
 113 551 138 538 167 538 c 0
 216 538 241 577 253 615 c 1
 256 632 l 1
EndSplineSet
EndChar

StartChar: guillemotleft
Encoding: 171 171 110
Width: 780
GlyphClass: 2
Flags: W
LayerCount: 2
Fore
SplineSet
76 342 m 1
 82 378 l 1
 421 638 l 1
 446 592 l 1
 175 360 l 1
 372 128 l 1
 333 82 l 1
 76 342 l 1
361 342 m 1
 367 378 l 1
 705 638 l 1
 731 592 l 1
 460 360 l 1
 657 128 l 1
 617 82 l 1
 361 342 l 1
EndSplineSet
EndChar

StartChar: logicalnot
Encoding: 172 172 111
Width: 600
GlyphClass: 2
Flags: W
LayerCount: 2
Fore
SplineSet
89 326 m 1
 99 394 l 1
 504 394 l 1
 473 195 l 1
 388 195 l 1
 409 326 l 1
 89 326 l 1
EndSplineSet
EndChar

StartChar: uni00AD
Encoding: 173 173 112
Width: 450
GlyphClass: 2
Flags: W
LayerCount: 2
Fore
SplineSet
85 395 m 1
 371 395 l 1
 359 325 l 1
 73 325 l 1
 85 395 l 1
EndSplineSet
EndChar

StartChar: registered
Encoding: 174 174 113
Width: 870
GlyphClass: 2
Flags: W
LayerCount: 2
Fore
SplineSet
418 270 m 0
 234 270 127 382 127 540 c 0
 127 559 129 580 132 600 c 0
 162 788 316 930 522 930 c 0
 706 930 813 818 813 660 c 0
 813 641 811 620 808 600 c 0
 778 412 624 270 418 270 c 0
424 308 m 0
 600 308 735 426 763 600 c 0
 766 620 768 639 768 657 c 0
 768 799 672 892 516 892 c 0
 340 892 205 774 177 600 c 0
 174 580 172 561 172 543 c 0
 172 401 268 308 424 308 c 0
441 560 m 1
 424 560 408 560 394 561 c 1
 368 400 l 1
 308 400 l 1
 334 564 l 1
 370 790 l 1
 379 790 441 794 501 794 c 0
 587 794 644 758 644 695 c 0
 644 689 643 683 642 677 c 0
 632 614 579 574 506 563 c 1
 614 403 l 1
 613 400 l 1
 545 400 l 1
 441 560 l 1
401 605 m 1
 417 604 440 603 464 603 c 0
 524 603 573 621 582 677 c 0
 583 682 583 687 583 691 c 0
 583 736 542 752 487 752 c 0
 463 752 440 751 424 750 c 1
 401 605 l 1
EndSplineSet
EndChar

StartChar: macron
Encoding: 175 175 114
Width: 510
GlyphClass: 2
Flags: W
LayerCount: 2
Fore
SplineSet
127 750 m 1
 136 810 l 1
 510 810 l 1
 501 750 l 1
 127 750 l 1
EndSplineSet
EndChar

StartChar: degree
Encoding: 176 176 115
Width: 330
GlyphClass: 2
Flags: W
LayerCount: 2
Fore
SplineSet
210 661 m 0
 140 661 102 705 102 760 c 0
 102 766 103 773 104 780 c 0
 114 843 169 899 247 899 c 0
 317 899 356 854 356 799 c 0
 356 793 355 786 354 780 c 0
 344 717 288 661 210 661 c 0
217 704 m 0
 257 704 292 732 300 780 c 0
 301 786 301 791 301 796 c 0
 301 834 276 856 241 856 c 0
 201 856 166 828 158 780 c 0
 157 774 157 769 157 764 c 0
 157 726 182 704 217 704 c 0
EndSplineSet
EndChar

StartChar: plusminus
Encoding: 177 177 116
Width: 600
GlyphClass: 2
Flags: W
LayerCount: 2
Fore
SplineSet
67 191 m 1
 77 255 l 1
 482 255 l 1
 472 191 l 1
 67 191 l 1
111 465 m 1
 121 529 l 1
 283 529 l 1
 302 649 l 1
 382 649 l 1
 363 529 l 1
 526 529 l 1
 516 465 l 1
 353 465 l 1
 334 345 l 1
 254 345 l 1
 273 465 l 1
 111 465 l 1
EndSplineSet
EndChar

StartChar: two.sups
Encoding: 178 178 117
Width: 330
GlyphClass: 2
Flags: W
LayerCount: 2
Fore
SplineSet
59 532 m 0
 73 620 154 672 214 708 c 0
 256 734 294 758 300 798 c 0
 301 803 301 808 301 813 c 0
 301 840 288 866 243 866 c 0
 206 866 177 838 167 810 c 1
 107 815 l 1
 120 851 166 910 249 910 c 0
 342 910 359 852 359 815 c 0
 359 809 359 803 358 798 c 0
 348 734 287 695 245 670 c 0
 192 638 144 606 128 556 c 1
 323 556 l 1
 316 510 l 1
 59 510 l 1
 59 510 57 520 59 532 c 0
EndSplineSet
EndChar

StartChar: three.sups
Encoding: 179 179 118
Width: 330
GlyphClass: 2
Flags: W
LayerCount: 2
Fore
SplineSet
51 576 m 1
 111 586 l 1
 114 570 127 544 178 544 c 0
 244 544 265 586 270 618 c 0
 271 622 271 627 271 631 c 0
 271 660 255 684 204 684 c 2
 152 684 l 1
 159 726 l 1
 205 726 l 2
 243 726 279 754 286 798 c 0
 287 803 287 808 287 813 c 0
 287 840 274 866 229 866 c 0
 192 866 164 838 154 810 c 1
 95 815 l 1
 108 851 153 910 236 910 c 0
 328 910 345 853 345 816 c 0
 345 809 345 803 344 798 c 0
 337 754 310 727 279 711 c 1
 320 696 331 664 331 636 c 0
 331 630 331 625 330 620 c 0
 324 580 291 500 171 500 c 0
 81 500 56 554 51 576 c 1
EndSplineSet
EndChar

StartChar: acute
Encoding: 180 180 119
Width: 390
GlyphClass: 2
Flags: W
LayerCount: 2
Fore
SplineSet
453 830 m 1
 112 553 l 1
 70 586 l 1
 393 882 l 1
 453 830 l 1
EndSplineSet
EndChar

StartChar: mu
Encoding: 181 181 120
Width: 665
GlyphClass: 2
Flags: W
LayerCount: 2
Fore
SplineSet
128 600 m 1
 218 600 l 1
 170 299 l 1
 170 296 l 2
 170 186 234 59 342 59 c 0
 402 59 453 94 467 182 c 2
 533 600 l 1
 623 600 l 1
 556 179 l 2
 540 75 472 -13 354 -13 c 0
 236 -13 175 76 147 167 c 1
 88 -210 l 1
 0 -210 l 1
 128 600 l 1
EndSplineSet
EndChar

StartChar: paragraph
Encoding: 182 182 121
Width: 725
GlyphClass: 2
Flags: W
LayerCount: 2
Fore
SplineSet
330 400 m 1
 381 718 l 1
 275 708 192 660 176 559 c 0
 174 549 174 540 174 531 c 0
 174 449 238 409 330 400 c 1
590 715 m 1
 561 717 514 719 461 720 c 1
 314 -210 l 1
 234 -210 l 1
 319 330 l 1
 175 340 78 408 78 523 c 0
 78 535 79 547 81 559 c 0
 104 707 250 789 430 789 c 0
 542 789 653 782 681 780 c 1
 524 -210 l 1
 444 -210 l 1
 590 715 l 1
EndSplineSet
EndChar

StartChar: periodcentered
Encoding: 183 183 122
Width: 330
GlyphClass: 2
Flags: W
LayerCount: 2
Fore
SplineSet
173 428 m 0
 210 428 235 407 235 373 c 0
 235 369 235 364 234 360 c 0
 227 318 192 292 151 292 c 0
 114 292 89 313 89 347 c 0
 89 351 89 356 90 360 c 0
 97 402 132 428 173 428 c 0
EndSplineSet
EndChar

StartChar: cedilla
Encoding: 184 184 123
Width: 330
GlyphClass: 2
Flags: W
LayerCount: 2
Fore
SplineSet
-50 -284 m 1
 17 -268 107 -240 117 -175 c 0
 117 -173 118 -170 118 -168 c 0
 118 -148 101 -130 49 -130 c 0
 33 -130 13 -133 2 -135 c 1
 -22 -107 l 1
 62 10 l 1
 115 10 l 1
 43 -89 l 1
 50 -88 58 -88 66 -88 c 0
 137 -88 178 -114 178 -161 c 0
 178 -166 178 -170 177 -175 c 0
 160 -283 13 -314 -42 -328 c 1
 -50 -284 l 1
EndSplineSet
EndChar

StartChar: one.sups
Encoding: 185 185 124
Width: 330
GlyphClass: 2
Flags: W
LayerCount: 2
Fore
SplineSet
119 825 m 1
 262 903 l 1
 302 898 l 1
 248 556 l 1
 323 556 l 1
 316 510 l 1
 89 510 l 1
 96 556 l 1
 190 556 l 1
 235 838 l 1
 136 782 l 1
 119 825 l 1
EndSplineSet
EndChar

StartChar: ordmasculine
Encoding: 186 186 125
Width: 330
GlyphClass: 2
Flags: W
LayerCount: 2
Fore
SplineSet
71 653 m 2
 74 667 l 2
 85 736 127 820 235 820 c 0
 325 820 351 762 351 703 c 0
 351 691 350 679 348 667 c 2
 345 653 l 2
 334 584 292 500 184 500 c 0
 94 500 68 558 68 617 c 0
 68 629 69 641 71 653 c 2
191 542 m 0
 243 542 278 583 289 653 c 2
 292 667 l 2
 294 678 295 689 295 699 c 0
 295 749 271 778 228 778 c 0
 176 778 141 737 130 667 c 2
 127 653 l 2
 125 642 124 631 124 621 c 0
 124 571 148 542 191 542 c 0
EndSplineSet
EndChar

StartChar: guillemotright
Encoding: 187 187 126
Width: 780
GlyphClass: 2
Flags: W
LayerCount: 2
Fore
SplineSet
698 378 m 1
 692 342 l 1
 353 82 l 1
 328 128 l 1
 599 360 l 1
 402 592 l 1
 441 638 l 1
 698 378 l 1
413 378 m 1
 407 342 l 1
 69 82 l 1
 43 128 l 1
 314 360 l 1
 117 592 l 1
 157 638 l 1
 413 378 l 1
EndSplineSet
EndChar

StartChar: onequarter
Encoding: 188 188 127
Width: 780
GlyphClass: 3
Flags: W
LayerCount: 2
Fore
SplineSet
22 0 m 1
 23 5 l 1
 700 780 l 1
 761 780 l 1
 760 775 l 1
 83 0 l 1
 22 0 l 1
100 705 m 1
 243 783 l 1
 283 778 l 1
 229 436 l 1
 304 436 l 1
 297 390 l 1
 70 390 l 1
 77 436 l 1
 171 436 l 1
 216 718 l 1
 117 662 l 1
 100 705 l 1
602 98 m 1
 426 98 l 1
 425 126 l 1
 656 393 l 1
 703 388 l 1
 664 142 l 1
 727 142 l 1
 721 98 l 1
 658 98 l 1
 642 0 l 1
 586 0 l 1
 602 98 l 1
610 142 m 1
 638 313 l 1
 490 142 l 1
 610 142 l 1
EndSplineSet
Ligature2: "LatinLiga.frac subtable" one.numr fraction four.dnom
Ligature2: "LatinLiga.frac subtable" one.numr fraction four
Ligature2: "LatinLiga.frac subtable" one fraction four.dnom
Ligature2: "LatinLiga.frac subtable" one fraction four
EndChar

StartChar: onehalf
Encoding: 189 189 128
Width: 780
GlyphClass: 3
Flags: W
LayerCount: 2
Fore
SplineSet
100 705 m 1
 243 783 l 1
 283 778 l 1
 229 436 l 1
 304 436 l 1
 297 390 l 1
 70 390 l 1
 77 436 l 1
 171 436 l 1
 216 718 l 1
 117 662 l 1
 100 705 l 1
22 0 m 1
 23 5 l 1
 700 780 l 1
 761 780 l 1
 760 775 l 1
 83 0 l 1
 22 0 l 1
428 22 m 0
 442 110 523 162 583 198 c 0
 625 224 664 248 670 288 c 0
 671 293 671 297 671 302 c 0
 671 329 658 356 612 356 c 0
 575 356 547 328 537 300 c 1
 476 305 l 1
 489 341 535 400 618 400 c 0
 711 400 729 342 729 305 c 0
 729 299 729 293 728 288 c 0
 718 224 656 185 614 160 c 0
 561 128 513 96 497 46 c 1
 692 46 l 1
 685 0 l 1
 428 0 l 1
 428 0 426 10 428 22 c 0
EndSplineSet
Ligature2: "LatinLiga.frac subtable" one.numr fraction two.dnom
Ligature2: "LatinLiga.frac subtable" one.numr fraction two
Ligature2: "LatinLiga.frac subtable" one fraction two.dnom
Ligature2: "LatinLiga.frac subtable" one fraction two
EndChar

StartChar: threequarters
Encoding: 190 190 129
Width: 780
GlyphClass: 3
Flags: W
LayerCount: 2
Fore
SplineSet
602 98 m 1
 426 98 l 1
 425 126 l 1
 656 393 l 1
 703 388 l 1
 664 142 l 1
 727 142 l 1
 721 98 l 1
 658 98 l 1
 642 0 l 1
 586 0 l 1
 602 98 l 1
610 142 m 1
 638 313 l 1
 490 142 l 1
 610 142 l 1
22 0 m 1
 23 5 l 1
 700 780 l 1
 761 780 l 1
 760 775 l 1
 83 0 l 1
 22 0 l 1
32 456 m 1
 92 466 l 1
 95 450 108 424 159 424 c 0
 225 424 246 466 251 498 c 0
 252 502 252 507 252 511 c 0
 252 540 236 564 185 564 c 2
 133 564 l 1
 140 606 l 1
 186 606 l 2
 224 606 260 634 267 678 c 0
 268 683 268 688 268 693 c 0
 268 720 255 746 210 746 c 0
 173 746 145 718 135 690 c 1
 76 695 l 1
 89 731 134 790 217 790 c 0
 309 790 326 733 326 696 c 0
 326 689 326 683 325 678 c 0
 318 634 291 607 260 591 c 1
 301 576 312 544 312 516 c 0
 312 510 312 505 311 500 c 0
 305 460 272 380 152 380 c 0
 62 380 37 434 32 456 c 1
EndSplineSet
Ligature2: "LatinLiga.frac subtable" three.numr fraction four.dnom
Ligature2: "LatinLiga.frac subtable" three.numr fraction four
Ligature2: "LatinLiga.frac subtable" three fraction four.dnom
Ligature2: "LatinLiga.frac subtable" three fraction four
EndChar

StartChar: questiondown
Encoding: 191 191 130
Width: 570
GlyphClass: 2
Flags: W
LayerCount: 2
Fore
SplineSet
440 -50 m 0
 424 -152 326 -228 190 -228 c 0
 75 -228 4 -170 4 -72 c 0
 4 -61 5 -49 7 -36 c 0
 33 128 245 170 264 291 c 0
 265 297 265 304 265 310 c 0
 265 324 263 337 259 350 c 1
 336 359 l 1
 342 342 345 325 345 308 c 0
 345 301 344 293 343 286 c 0
 318 130 124 99 103 -33 c 0
 101 -44 100 -54 100 -63 c 0
 100 -132 148 -157 203 -157 c 0
 276 -157 333 -120 344 -50 c 0
 345 -40 346 -30 346 -20 c 0
 346 -8 345 4 341 15 c 1
 434 39 l 1
 439 20 442 0 442 -20 c 0
 442 -30 442 -40 440 -50 c 0
299 467 m 0
 262 467 237 488 237 522 c 0
 237 526 237 531 238 535 c 0
 245 577 280 603 321 603 c 0
 358 603 383 582 383 548 c 0
 383 544 383 539 382 535 c 0
 375 493 340 467 299 467 c 0
EndSplineSet
EndChar

StartChar: Agrave
Encoding: 192 192 131
Width: 750
GlyphClass: 2
Flags: W
AnchorPoint: "LatinBelow.mark" 315 0 basechar 0
AnchorPoint: "LatinAbove.mark" 367 330 basechar 0
LayerCount: 2
Fore
SplineSet
322 990 m 1
 372 1052 l 1
 560 884 l 1
 529 848 l 1
 322 990 l 1
667 0 m 1
 559 0 l 1
 523 176 l 1
 163 176 l 1
 71 0 l 1
 -37 0 l 1
 -36 6 l 1
 399 780 l 1
 479 780 l 1
 668 6 l 1
 667 0 l 1
509 244 m 1
 421 670 l 1
 199 244 l 1
 509 244 l 1
EndSplineSet
EndChar

StartChar: Aacute
Encoding: 193 193 132
Width: 750
GlyphClass: 2
Flags: W
AnchorPoint: "LatinBelow.mark" 315 0 basechar 0
AnchorPoint: "LatinAbove.mark" 367 330 basechar 0
LayerCount: 2
Fore
SplineSet
622 990 m 1
 371 848 l 1
 350 884 l 1
 592 1052 l 1
 622 990 l 1
667 0 m 1
 559 0 l 1
 523 176 l 1
 163 176 l 1
 71 0 l 1
 -37 0 l 1
 -36 6 l 1
 399 780 l 1
 479 780 l 1
 668 6 l 1
 667 0 l 1
509 244 m 1
 421 670 l 1
 199 244 l 1
 509 244 l 1
EndSplineSet
EndChar

StartChar: Acircumflex
Encoding: 194 194 133
Width: 750
GlyphClass: 2
Flags: W
AnchorPoint: "LatinBelow.mark" 315 0 basechar 0
AnchorPoint: "LatinAbove.mark" 367 330 basechar 0
LayerCount: 2
Fore
SplineSet
265 863 m 1
 464 1012 l 1
 488 1012 l 1
 639 863 l 1
 606 832 l 1
 464 938 l 1
 288 832 l 1
 265 863 l 1
667 0 m 1
 559 0 l 1
 523 176 l 1
 163 176 l 1
 71 0 l 1
 -37 0 l 1
 -36 6 l 1
 399 780 l 1
 479 780 l 1
 668 6 l 1
 667 0 l 1
509 244 m 1
 421 670 l 1
 199 244 l 1
 509 244 l 1
EndSplineSet
EndChar

StartChar: Atilde
Encoding: 195 195 134
Width: 750
GlyphClass: 2
Flags: W
AnchorPoint: "LatinBelow.mark" 315 0 basechar 0
AnchorPoint: "LatinAbove.mark" 367 330 basechar 0
LayerCount: 2
Fore
SplineSet
269 887 m 1
 297 938 335 1007 399 1007 c 0
 449 1007 471 976 490 955 c 0
 508 934 520 913 539 913 c 0
 571 913 600 974 614 1000 c 1
 658 983 l 1
 632 931 592 863 529 863 c 0
 479 863 456 894 437 915 c 0
 419 936 408 957 389 957 c 0
 357 957 328 896 314 870 c 1
 269 887 l 1
667 0 m 1
 559 0 l 1
 523 176 l 1
 163 176 l 1
 71 0 l 1
 -37 0 l 1
 -36 6 l 1
 399 780 l 1
 479 780 l 1
 668 6 l 1
 667 0 l 1
509 244 m 1
 421 670 l 1
 199 244 l 1
 509 244 l 1
EndSplineSet
EndChar

StartChar: Adieresis
Encoding: 196 196 135
Width: 750
GlyphClass: 2
Flags: W
AnchorPoint: "LatinBelow.mark" 315 0 basechar 0
AnchorPoint: "LatinAbove.mark" 367 330 basechar 0
LayerCount: 2
Fore
SplineSet
276 930 m 0
 282 969 316 993 354 993 c 0
 388 993 413 974 413 941 c 0
 413 938 413 934 412 930 c 0
 406 891 372 867 334 867 c 0
 300 867 275 886 275 919 c 0
 275 922 275 926 276 930 c 0
514 930 m 0
 520 969 554 993 592 993 c 0
 626 993 651 974 651 941 c 0
 651 938 651 934 650 930 c 0
 644 891 610 867 572 867 c 0
 538 867 513 886 513 919 c 0
 513 922 513 926 514 930 c 0
667 0 m 1
 559 0 l 1
 523 176 l 1
 163 176 l 1
 71 0 l 1
 -37 0 l 1
 -36 6 l 1
 399 780 l 1
 479 780 l 1
 668 6 l 1
 667 0 l 1
509 244 m 1
 421 670 l 1
 199 244 l 1
 509 244 l 1
EndSplineSet
EndChar

StartChar: Aring
Encoding: 197 197 136
Width: 750
GlyphClass: 2
Flags: W
AnchorPoint: "LatinBelow.mark" 315 0 basechar 0
AnchorPoint: "LatinAbove.mark" 367 330 basechar 0
LayerCount: 2
Fore
SplineSet
443 807 m 0
 383 807 344 842 344 896 c 0
 344 902 344 909 345 915 c 0
 355 979 410 1023 477 1023 c 0
 537 1023 576 988 576 934 c 0
 576 928 576 921 575 915 c 0
 565 851 510 807 443 807 c 0
450 851 m 0
 490 851 520 877 526 915 c 0
 527 919 527 923 527 927 c 0
 527 958 506 979 470 979 c 0
 430 979 400 953 394 915 c 0
 393 911 393 907 393 903 c 0
 393 872 414 851 450 851 c 0
667 0 m 1
 559 0 l 1
 523 176 l 1
 163 176 l 1
 71 0 l 1
 -37 0 l 1
 -36 6 l 1
 399 780 l 1
 479 780 l 1
 668 6 l 1
 667 0 l 1
509 244 m 1
 421 670 l 1
 199 244 l 1
 509 244 l 1
EndSplineSet
EndChar

StartChar: AE
Encoding: 198 198 137
Width: 980
GlyphClass: 2
Flags: W
AnchorPoint: "LatinBelow.mark" 450 0 basechar 0
AnchorPoint: "LatinAbove.mark" 474 150 basechar 0
LayerCount: 2
Fore
SplineSet
-32 0 m 1
 -31 6 l 1
 489 780 l 1
 527 780 l 1
 570 780 l 1
 967 780 l 1
 955 706 l 1
 611 706 l 1
 566 420 l 1
 876 420 l 1
 864 350 l 1
 554 350 l 1
 511 74 l 1
 870 74 l 1
 858 0 l 1
 403 0 l 1
 431 176 l 1
 187 176 l 1
 76 0 l 1
 -32 0 l 1
512 689 m 1
 231 244 l 1
 442 244 l 1
 512 689 l 1
EndSplineSet
EndChar

StartChar: Ccedilla
Encoding: 199 199 138
Width: 755
GlyphClass: 2
Flags: W
AnchorPoint: "LatinAbove.mark" 374 150 basechar 0
LayerCount: 2
Fore
SplineSet
217 -284 m 1
 284 -268 374 -240 384 -175 c 0
 384 -173 385 -170 385 -168 c 0
 385 -148 368 -130 316 -130 c 0
 300 -130 280 -133 269 -135 c 1
 245 -107 l 1
 309 -17 l 1
 121 0 59 133 59 279 c 0
 59 310 62 342 67 373 c 2
 72 405 l 2
 102 593 215 797 479 797 c 0
 673 797 741 671 742 591 c 1
 642 581 l 1
 640 642 590 724 468 724 c 0
 300 724 202 592 172 405 c 2
 167 373 l 2
 162 341 159 312 159 284 c 0
 159 146 222 54 362 54 c 0
 484 54 559 136 581 197 c 1
 678 187 l 1
 651 108 549 -14 361 -19 c 1
 310 -89 l 1
 317 -88 325 -88 333 -88 c 0
 404 -88 445 -114 445 -161 c 0
 445 -166 445 -170 444 -175 c 0
 427 -283 280 -314 225 -328 c 1
 217 -284 l 1
EndSplineSet
EndChar

StartChar: Egrave
Encoding: 200 200 139
Width: 675
GlyphClass: 2
Flags: W
AnchorPoint: "LatinBelow.mark" 290 0 basechar 0
AnchorPoint: "LatinAbove.mark" 342 330 basechar 0
LayerCount: 2
Fore
SplineSet
297 990 m 1
 347 1052 l 1
 535 884 l 1
 504 848 l 1
 297 990 l 1
38 0 m 1
 162 780 l 1
 662 780 l 1
 650 706 l 1
 246 706 l 1
 201 420 l 1
 571 420 l 1
 559 350 l 1
 189 350 l 1
 146 74 l 1
 565 74 l 1
 553 0 l 1
 38 0 l 1
EndSplineSet
EndChar

StartChar: Eacute
Encoding: 201 201 140
Width: 675
GlyphClass: 2
Flags: W
AnchorPoint: "LatinBelow.mark" 290 0 basechar 0
AnchorPoint: "LatinAbove.mark" 342 330 basechar 0
LayerCount: 2
Fore
SplineSet
597 990 m 1
 346 848 l 1
 325 884 l 1
 567 1052 l 1
 597 990 l 1
38 0 m 1
 162 780 l 1
 662 780 l 1
 650 706 l 1
 246 706 l 1
 201 420 l 1
 571 420 l 1
 559 350 l 1
 189 350 l 1
 146 74 l 1
 565 74 l 1
 553 0 l 1
 38 0 l 1
EndSplineSet
EndChar

StartChar: Ecircumflex
Encoding: 202 202 141
Width: 675
GlyphClass: 2
Flags: W
AnchorPoint: "LatinBelow.mark" 290 0 basechar 0
AnchorPoint: "LatinAbove.mark" 342 330 basechar 0
LayerCount: 2
Fore
SplineSet
240 863 m 1
 439 1012 l 1
 463 1012 l 1
 614 863 l 1
 581 832 l 1
 439 938 l 1
 263 832 l 1
 240 863 l 1
38 0 m 1
 162 780 l 1
 662 780 l 1
 650 706 l 1
 246 706 l 1
 201 420 l 1
 571 420 l 1
 559 350 l 1
 189 350 l 1
 146 74 l 1
 565 74 l 1
 553 0 l 1
 38 0 l 1
EndSplineSet
EndChar

StartChar: Edieresis
Encoding: 203 203 142
Width: 675
GlyphClass: 2
Flags: W
AnchorPoint: "LatinBelow.mark" 290 0 basechar 0
AnchorPoint: "LatinAbove.mark" 342 330 basechar 0
LayerCount: 2
Fore
SplineSet
251 930 m 0
 257 969 291 993 329 993 c 0
 363 993 388 974 388 941 c 0
 388 938 388 934 387 930 c 0
 381 891 347 867 309 867 c 0
 275 867 250 886 250 919 c 0
 250 922 250 926 251 930 c 0
489 930 m 0
 495 969 529 993 567 993 c 0
 601 993 626 974 626 941 c 0
 626 938 626 934 625 930 c 0
 619 891 585 867 547 867 c 0
 513 867 488 886 488 919 c 0
 488 922 488 926 489 930 c 0
38 0 m 1
 162 780 l 1
 662 780 l 1
 650 706 l 1
 246 706 l 1
 201 420 l 1
 571 420 l 1
 559 350 l 1
 189 350 l 1
 146 74 l 1
 565 74 l 1
 553 0 l 1
 38 0 l 1
EndSplineSet
EndChar

StartChar: Igrave
Encoding: 204 204 143
Width: 320
GlyphClass: 2
Flags: W
AnchorPoint: "LatinBelow.mark" 100 0 basechar 0
AnchorPoint: "LatinAbove.mark" 152 330 basechar 0
LayerCount: 2
Fore
SplineSet
107 990 m 1
 157 1052 l 1
 345 884 l 1
 314 848 l 1
 107 990 l 1
52 0 m 1
 176 780 l 1
 272 780 l 1
 148 0 l 1
 52 0 l 1
EndSplineSet
EndChar

StartChar: Iacute
Encoding: 205 205 144
Width: 320
GlyphClass: 2
Flags: W
AnchorPoint: "LatinBelow.mark" 100 0 basechar 0
AnchorPoint: "LatinAbove.mark" 152 330 basechar 0
LayerCount: 2
Fore
SplineSet
407 990 m 1
 156 848 l 1
 135 884 l 1
 377 1052 l 1
 407 990 l 1
52 0 m 1
 176 780 l 1
 272 780 l 1
 148 0 l 1
 52 0 l 1
EndSplineSet
EndChar

StartChar: Icircumflex
Encoding: 206 206 145
Width: 320
GlyphClass: 2
Flags: W
AnchorPoint: "LatinBelow.mark" 100 0 basechar 0
AnchorPoint: "LatinAbove.mark" 152 330 basechar 0
LayerCount: 2
Fore
SplineSet
50 863 m 1
 249 1012 l 1
 273 1012 l 1
 424 863 l 1
 391 832 l 1
 249 938 l 1
 73 832 l 1
 50 863 l 1
52 0 m 1
 176 780 l 1
 272 780 l 1
 148 0 l 1
 52 0 l 1
EndSplineSet
EndChar

StartChar: Idieresis
Encoding: 207 207 146
Width: 320
GlyphClass: 2
Flags: W
AnchorPoint: "LatinBelow.mark" 100 0 basechar 0
AnchorPoint: "LatinAbove.mark" 152 330 basechar 0
LayerCount: 2
Fore
SplineSet
61 930 m 0
 67 969 101 993 139 993 c 0
 173 993 198 974 198 941 c 0
 198 938 198 934 197 930 c 0
 191 891 157 867 119 867 c 0
 85 867 60 886 60 919 c 0
 60 922 60 926 61 930 c 0
299 930 m 0
 305 969 339 993 377 993 c 0
 411 993 436 974 436 941 c 0
 436 938 436 934 435 930 c 0
 429 891 395 867 357 867 c 0
 323 867 298 886 298 919 c 0
 298 922 298 926 299 930 c 0
52 0 m 1
 176 780 l 1
 272 780 l 1
 148 0 l 1
 52 0 l 1
EndSplineSet
EndChar

StartChar: Eth
Encoding: 208 208 147
Width: 770
GlyphClass: 2
Flags: W
AnchorPoint: "LatinBelow.mark" 260 0 basechar 0
AnchorPoint: "LatinAbove.mark" 284 150 basechar 0
LayerCount: 2
Fore
SplineSet
10 363 m 1
 19 417 l 1
 104 417 l 1
 162 780 l 1
 162 780 271 789 355 789 c 0
 623 789 713 644 713 482 c 0
 713 457 711 431 707 406 c 2
 702 374 l 2
 672 184 538 -9 229 -9 c 0
 145 -9 38 0 38 0 c 1
 95 363 l 1
 10 363 l 1
143 64 m 1
 173 63 212 61 240 61 c 0
 474 61 579 195 607 374 c 2
 612 406 l 2
 616 432 618 457 618 481 c 0
 618 621 544 719 344 719 c 0
 316 719 276 717 246 716 c 1
 199 417 l 1
 409 417 l 1
 400 363 l 1
 190 363 l 1
 143 64 l 1
EndSplineSet
EndChar

StartChar: Ntilde
Encoding: 209 209 148
Width: 790
GlyphClass: 2
Flags: W
AnchorPoint: "LatinBelow.mark" 335 0 basechar 0
LayerCount: 2
Fore
SplineSet
289 887 m 1
 317 938 355 1007 419 1007 c 0
 469 1007 491 976 510 955 c 0
 528 934 540 913 559 913 c 0
 591 913 620 974 634 1000 c 1
 678 983 l 1
 652 931 612 863 549 863 c 0
 499 863 476 894 457 915 c 0
 439 936 428 957 409 957 c 0
 377 957 348 896 334 870 c 1
 289 887 l 1
38 0 m 1
 160 771 l 1
 244 780 l 1
 563 152 l 1
 663 780 l 1
 756 780 l 1
 632 0 l 1
 550 0 l 1
 230 628 l 1
 131 0 l 1
 38 0 l 1
EndSplineSet
EndChar

StartChar: Ograve
Encoding: 210 210 149
Width: 820
GlyphClass: 2
Flags: W
AnchorPoint: "LatinBelow.mark" 350 0 basechar 0
AnchorPoint: "LatinAbove.mark" 402 330 basechar 0
LayerCount: 2
Fore
SplineSet
357 990 m 1
 407 1052 l 1
 595 884 l 1
 564 848 l 1
 357 990 l 1
67 372 m 2
 73 408 l 2
 102 594 213 798 476 798 c 0
 695 798 765 656 765 501 c 0
 765 470 762 439 757 408 c 2
 751 372 l 2
 722 186 610 -18 347 -18 c 0
 128 -18 59 123 59 278 c 0
 59 309 62 341 67 372 c 2
359 54 m 0
 528 54 624 186 653 372 c 2
 659 408 l 2
 664 439 666 469 666 497 c 0
 666 634 605 726 465 726 c 0
 296 726 200 594 171 408 c 2
 165 372 l 2
 160 341 158 311 158 283 c 0
 158 146 219 54 359 54 c 0
EndSplineSet
EndChar

StartChar: Oacute
Encoding: 211 211 150
Width: 820
GlyphClass: 2
Flags: W
AnchorPoint: "LatinBelow.mark" 350 0 basechar 0
AnchorPoint: "LatinAbove.mark" 402 330 basechar 0
LayerCount: 2
Fore
SplineSet
657 990 m 1
 406 848 l 1
 385 884 l 1
 627 1052 l 1
 657 990 l 1
67 372 m 2
 73 408 l 2
 102 594 213 798 476 798 c 0
 695 798 765 656 765 501 c 0
 765 470 762 439 757 408 c 2
 751 372 l 2
 722 186 610 -18 347 -18 c 0
 128 -18 59 123 59 278 c 0
 59 309 62 341 67 372 c 2
359 54 m 0
 528 54 624 186 653 372 c 2
 659 408 l 2
 664 439 666 469 666 497 c 0
 666 634 605 726 465 726 c 0
 296 726 200 594 171 408 c 2
 165 372 l 2
 160 341 158 311 158 283 c 0
 158 146 219 54 359 54 c 0
EndSplineSet
EndChar

StartChar: Ocircumflex
Encoding: 212 212 151
Width: 820
GlyphClass: 2
Flags: W
AnchorPoint: "LatinBelow.mark" 350 0 basechar 0
AnchorPoint: "LatinAbove.mark" 402 330 basechar 0
LayerCount: 2
Fore
SplineSet
300 863 m 1
 499 1012 l 1
 523 1012 l 1
 674 863 l 1
 641 832 l 1
 499 938 l 1
 323 832 l 1
 300 863 l 1
67 372 m 2
 73 408 l 2
 102 594 213 798 476 798 c 0
 695 798 765 656 765 501 c 0
 765 470 762 439 757 408 c 2
 751 372 l 2
 722 186 610 -18 347 -18 c 0
 128 -18 59 123 59 278 c 0
 59 309 62 341 67 372 c 2
359 54 m 0
 528 54 624 186 653 372 c 2
 659 408 l 2
 664 439 666 469 666 497 c 0
 666 634 605 726 465 726 c 0
 296 726 200 594 171 408 c 2
 165 372 l 2
 160 341 158 311 158 283 c 0
 158 146 219 54 359 54 c 0
EndSplineSet
EndChar

StartChar: Otilde
Encoding: 213 213 152
Width: 820
GlyphClass: 2
Flags: W
AnchorPoint: "LatinBelow.mark" 350 0 basechar 0
AnchorPoint: "LatinAbove.mark" 402 330 basechar 0
LayerCount: 2
Fore
SplineSet
304 887 m 1
 332 938 370 1007 434 1007 c 0
 484 1007 506 976 525 955 c 0
 543 934 555 913 574 913 c 0
 606 913 635 974 649 1000 c 1
 693 983 l 1
 667 931 627 863 564 863 c 0
 514 863 491 894 472 915 c 0
 454 936 443 957 424 957 c 0
 392 957 363 896 349 870 c 1
 304 887 l 1
67 372 m 2
 73 408 l 2
 102 594 213 798 476 798 c 0
 695 798 765 656 765 501 c 0
 765 470 762 439 757 408 c 2
 751 372 l 2
 722 186 610 -18 347 -18 c 0
 128 -18 59 123 59 278 c 0
 59 309 62 341 67 372 c 2
359 54 m 0
 528 54 624 186 653 372 c 2
 659 408 l 2
 664 439 666 469 666 497 c 0
 666 634 605 726 465 726 c 0
 296 726 200 594 171 408 c 2
 165 372 l 2
 160 341 158 311 158 283 c 0
 158 146 219 54 359 54 c 0
EndSplineSet
EndChar

StartChar: Odieresis
Encoding: 214 214 153
Width: 820
GlyphClass: 2
Flags: W
AnchorPoint: "LatinBelow.mark" 350 0 basechar 0
AnchorPoint: "LatinAbove.mark" 402 330 basechar 0
LayerCount: 2
Fore
SplineSet
311 930 m 0
 317 969 351 993 389 993 c 0
 423 993 448 974 448 941 c 0
 448 938 448 934 447 930 c 0
 441 891 407 867 369 867 c 0
 335 867 310 886 310 919 c 0
 310 922 310 926 311 930 c 0
549 930 m 0
 555 969 589 993 627 993 c 0
 661 993 686 974 686 941 c 0
 686 938 686 934 685 930 c 0
 679 891 645 867 607 867 c 0
 573 867 548 886 548 919 c 0
 548 922 548 926 549 930 c 0
67 372 m 2
 73 408 l 2
 102 594 213 798 476 798 c 0
 695 798 765 656 765 501 c 0
 765 470 762 439 757 408 c 2
 751 372 l 2
 722 186 610 -18 347 -18 c 0
 128 -18 59 123 59 278 c 0
 59 309 62 341 67 372 c 2
359 54 m 0
 528 54 624 186 653 372 c 2
 659 408 l 2
 664 439 666 469 666 497 c 0
 666 634 605 726 465 726 c 0
 296 726 200 594 171 408 c 2
 165 372 l 2
 160 341 158 311 158 283 c 0
 158 146 219 54 359 54 c 0
EndSplineSet
EndChar

StartChar: multiply
Encoding: 215 215 154
Width: 600
GlyphClass: 2
Flags: W
LayerCount: 2
Fore
SplineSet
128 503 m 1
 184 552 l 1
 305 409 l 1
 470 552 l 1
 512 503 l 1
 346 360 l 1
 466 217 l 1
 410 168 l 1
 289 311 l 1
 124 168 l 1
 82 217 l 1
 248 360 l 1
 128 503 l 1
EndSplineSet
EndChar

StartChar: Oslash
Encoding: 216 216 155
Width: 820
GlyphClass: 2
Flags: W
AnchorPoint: "LatinBelow.mark" 350 0 basechar 0
AnchorPoint: "LatinAbove.mark" 374 150 basechar 0
LayerCount: 2
Fore
SplineSet
67 372 m 2
 73 408 l 2
 102 594 213 798 476 798 c 0
 577 798 647 768 692 720 c 1
 769 801 l 1
 808 771 l 1
 722 681 l 1
 752 630 765 567 765 502 c 0
 765 471 762 439 757 408 c 2
 751 372 l 2
 722 186 610 -18 347 -18 c 0
 244 -18 175 13 130 62 c 1
 56 -15 l 1
 18 15 l 1
 101 101 l 1
 71 152 59 213 59 278 c 0
 59 309 62 341 67 372 c 2
626 652 m 1
 593 699 541 726 465 726 c 0
 296 726 200 594 171 408 c 2
 165 372 l 2
 160 340 157 311 157 283 c 0
 157 244 162 208 173 177 c 1
 626 652 l 1
650 606 m 1
 195 131 l 1
 227 83 281 54 359 54 c 0
 528 54 624 186 653 372 c 2
 659 408 l 2
 664 440 666 470 666 498 c 0
 666 538 661 575 650 606 c 1
EndSplineSet
EndChar

StartChar: Ugrave
Encoding: 217 217 156
Width: 770
GlyphClass: 2
Flags: W
AnchorPoint: "LatinBelow.mark" 325 0 basechar 0
AnchorPoint: "LatinAbove.mark" 377 330 basechar 0
LayerCount: 2
Fore
SplineSet
332 990 m 1
 382 1052 l 1
 570 884 l 1
 539 848 l 1
 332 990 l 1
64 236 m 2
 151 780 l 1
 247 780 l 1
 160 236 l 2
 158 224 157 212 157 201 c 0
 157 105 228 54 334 54 c 0
 452 54 545 118 564 236 c 2
 651 780 l 1
 747 780 l 1
 660 236 l 2
 637 90 502 -18 322 -18 c 0
 159 -18 61 71 61 196 c 0
 61 209 62 222 64 236 c 2
EndSplineSet
EndChar

StartChar: Uacute
Encoding: 218 218 157
Width: 770
GlyphClass: 2
Flags: W
AnchorPoint: "LatinBelow.mark" 325 0 basechar 0
AnchorPoint: "LatinAbove.mark" 377 330 basechar 0
LayerCount: 2
Fore
SplineSet
632 990 m 1
 381 848 l 1
 360 884 l 1
 602 1052 l 1
 632 990 l 1
64 236 m 2
 151 780 l 1
 247 780 l 1
 160 236 l 2
 158 224 157 212 157 201 c 0
 157 105 228 54 334 54 c 0
 452 54 545 118 564 236 c 2
 651 780 l 1
 747 780 l 1
 660 236 l 2
 637 90 502 -18 322 -18 c 0
 159 -18 61 71 61 196 c 0
 61 209 62 222 64 236 c 2
EndSplineSet
EndChar

StartChar: Ucircumflex
Encoding: 219 219 158
Width: 770
GlyphClass: 2
Flags: W
AnchorPoint: "LatinBelow.mark" 325 0 basechar 0
AnchorPoint: "LatinAbove.mark" 377 330 basechar 0
LayerCount: 2
Fore
SplineSet
275 863 m 1
 474 1012 l 1
 498 1012 l 1
 649 863 l 1
 616 832 l 1
 474 938 l 1
 298 832 l 1
 275 863 l 1
64 236 m 2
 151 780 l 1
 247 780 l 1
 160 236 l 2
 158 224 157 212 157 201 c 0
 157 105 228 54 334 54 c 0
 452 54 545 118 564 236 c 2
 651 780 l 1
 747 780 l 1
 660 236 l 2
 637 90 502 -18 322 -18 c 0
 159 -18 61 71 61 196 c 0
 61 209 62 222 64 236 c 2
EndSplineSet
EndChar

StartChar: Udieresis
Encoding: 220 220 159
Width: 770
GlyphClass: 2
Flags: W
AnchorPoint: "LatinBelow.mark" 325 0 basechar 0
AnchorPoint: "LatinAbove.mark" 377 330 basechar 0
LayerCount: 2
Fore
SplineSet
286 930 m 0
 292 969 326 993 364 993 c 0
 398 993 423 974 423 941 c 0
 423 938 423 934 422 930 c 0
 416 891 382 867 344 867 c 0
 310 867 285 886 285 919 c 0
 285 922 285 926 286 930 c 0
524 930 m 0
 530 969 564 993 602 993 c 0
 636 993 661 974 661 941 c 0
 661 938 661 934 660 930 c 0
 654 891 620 867 582 867 c 0
 548 867 523 886 523 919 c 0
 523 922 523 926 524 930 c 0
64 236 m 2
 151 780 l 1
 247 780 l 1
 160 236 l 2
 158 224 157 212 157 201 c 0
 157 105 228 54 334 54 c 0
 452 54 545 118 564 236 c 2
 651 780 l 1
 747 780 l 1
 660 236 l 2
 637 90 502 -18 322 -18 c 0
 159 -18 61 71 61 196 c 0
 61 209 62 222 64 236 c 2
EndSplineSet
EndChar

StartChar: Yacute
Encoding: 221 221 160
Width: 670
GlyphClass: 2
Flags: W
AnchorPoint: "LatinBelow.mark" 275 0 basechar 0
AnchorPoint: "LatinAbove.mark" 337 330 basechar 0
LayerCount: 2
Fore
SplineSet
582 990 m 1
 331 848 l 1
 310 884 l 1
 552 1052 l 1
 582 990 l 1
79 765 m 1
 80 772 l 1
 189 780 l 1
 337 392 l 1
 609 780 l 1
 714 772 l 1
 713 765 l 1
 371 301 l 1
 323 0 l 1
 227 0 l 1
 275 301 l 1
 79 765 l 1
EndSplineSet
EndChar

StartChar: Thorn
Encoding: 222 222 161
Width: 725
GlyphClass: 2
Flags: W
AnchorPoint: "LatinBelow.mark" 100 0 basechar 0
AnchorPoint: "LatinAbove.mark" 124 150 basechar 0
LayerCount: 2
Fore
SplineSet
173 261 m 1
 209 259 264 257 321 257 c 0
 449 257 556 302 574 418 c 0
 576 428 576 437 576 446 c 0
 576 541 489 579 372 579 c 0
 315 579 259 577 223 575 c 1
 173 261 l 1
234 644 m 1
 280 646 337 648 393 648 c 0
 558 648 672 579 672 453 c 0
 672 442 671 430 669 418 c 0
 646 270 500 188 320 188 c 0
 264 188 208 190 162 192 c 1
 132 0 l 1
 38 0 l 1
 69 197 l 1
 139 639 l 1
 162 780 l 1
 256 780 l 1
 234 644 l 1
EndSplineSet
EndChar

StartChar: germandbls
Encoding: 223 223 162
Width: 780
GlyphClass: 2
Flags: W
AnchorPoint: "LatinBelow.mark" 290 0 basechar 0
AnchorPoint: "LatinAbove.mark" 319 180 basechar 0
LayerCount: 2
Fore
SplineSet
300 137 m 1
 386 143 l 1
 386 141 l 2
 386 94 417 47 482 47 c 0
 550 47 600 82 611 150 c 0
 612 156 612 161 612 166 c 0
 612 213 577 236 556 245 c 0
 522 259 480 279 447 294 c 0
 406 312 359 349 359 418 c 0
 359 427 359 435 361 445 c 0
 376 537 452 601 560 601 c 0
 570 601 579 600 588 599 c 1
 584 714 509 763 418 763 c 0
 332 763 241 720 219 579 c 2
 127 0 l 1
 37 0 l 1
 129 579 l 2
 154 739 280 828 428 828 c 0
 580 828 664 731 664 598 c 0
 664 588 664 579 663 569 c 1
 613 531 l 1
 605 535 587 543 553 543 c 0
 501 543 457 515 447 453 c 0
 446 446 445 440 445 434 c 0
 445 386 480 367 501 356 c 0
 534 341 577 321 608 308 c 0
 650 290 698 251 698 178 c 0
 698 169 698 160 696 150 c 0
 682 60 601 -18 472 -18 c 0
 340 -18 300 76 300 135 c 2
 300 137 l 1
EndSplineSet
EndChar

StartChar: agrave
Encoding: 224 224 163
Width: 625
GlyphClass: 2
Flags: W
AnchorPoint: "LatinBelow.mark" 270 0 basechar 0
AnchorPoint: "LatinAbove.mark" 279 180 basechar 0
LayerCount: 2
Fore
SplineSet
233 840 m 1
 283 902 l 1
 471 734 l 1
 440 698 l 1
 233 840 l 1
30 172 m 0
 42 249 116 320 242 320 c 0
 315 320 385 314 435 308 c 1
 453 422 l 2
 454 431 455 440 455 448 c 0
 455 519 402 552 327 552 c 0
 247 552 189 505 166 429 c 1
 77 435 l 1
 105 528 194 618 338 618 c 0
 466 618 543 551 543 454 c 0
 543 444 542 433 540 422 c 2
 495 137 l 2
 493 125 492 114 492 105 c 0
 492 68 509 52 550 47 c 1
 519 -13 l 1
 475 -8 418 14 416 89 c 1
 372 35 307 -13 213 -13 c 0
 97 -13 27 43 27 138 c 0
 27 149 28 160 30 172 c 0
430 252 m 1
 386 258 318 266 238 266 c 0
 180 266 128 232 118 171 c 0
 117 162 116 153 116 145 c 0
 116 75 168 43 232 43 c 0
 339 43 397 133 423 210 c 1
 430 252 l 1
EndSplineSet
MultipleSubs2: "Latin.a.decomp subtable" uni0251 uni0300
EndChar

StartChar: aacute
Encoding: 225 225 164
Width: 625
GlyphClass: 2
Flags: W
AnchorPoint: "LatinBelow.mark" 270 0 basechar 0
AnchorPoint: "LatinAbove.mark" 279 180 basechar 0
LayerCount: 2
Fore
SplineSet
533 840 m 1
 282 698 l 1
 261 734 l 1
 503 902 l 1
 533 840 l 1
30 172 m 0
 42 249 116 320 242 320 c 0
 315 320 385 314 435 308 c 1
 453 422 l 2
 454 431 455 440 455 448 c 0
 455 519 402 552 327 552 c 0
 247 552 189 505 166 429 c 1
 77 435 l 1
 105 528 194 618 338 618 c 0
 466 618 543 551 543 454 c 0
 543 444 542 433 540 422 c 2
 495 137 l 2
 493 125 492 114 492 105 c 0
 492 68 509 52 550 47 c 1
 519 -13 l 1
 475 -8 418 14 416 89 c 1
 372 35 307 -13 213 -13 c 0
 97 -13 27 43 27 138 c 0
 27 149 28 160 30 172 c 0
430 252 m 1
 386 258 318 266 238 266 c 0
 180 266 128 232 118 171 c 0
 117 162 116 153 116 145 c 0
 116 75 168 43 232 43 c 0
 339 43 397 133 423 210 c 1
 430 252 l 1
EndSplineSet
MultipleSubs2: "Latin.a.decomp subtable" uni0251 uni0301
EndChar

StartChar: acircumflex
Encoding: 226 226 165
Width: 625
GlyphClass: 2
Flags: W
AnchorPoint: "LatinBelow.mark" 270 0 basechar 0
AnchorPoint: "LatinAbove.mark" 279 180 basechar 0
LayerCount: 2
Fore
SplineSet
176 713 m 1
 375 862 l 1
 399 862 l 1
 550 713 l 1
 517 682 l 1
 375 788 l 1
 199 682 l 1
 176 713 l 1
30 172 m 0
 42 249 116 320 242 320 c 0
 315 320 385 314 435 308 c 1
 453 422 l 2
 454 431 455 440 455 448 c 0
 455 519 402 552 327 552 c 0
 247 552 189 505 166 429 c 1
 77 435 l 1
 105 528 194 618 338 618 c 0
 466 618 543 551 543 454 c 0
 543 444 542 433 540 422 c 2
 495 137 l 2
 493 125 492 114 492 105 c 0
 492 68 509 52 550 47 c 1
 519 -13 l 1
 475 -8 418 14 416 89 c 1
 372 35 307 -13 213 -13 c 0
 97 -13 27 43 27 138 c 0
 27 149 28 160 30 172 c 0
430 252 m 1
 386 258 318 266 238 266 c 0
 180 266 128 232 118 171 c 0
 117 162 116 153 116 145 c 0
 116 75 168 43 232 43 c 0
 339 43 397 133 423 210 c 1
 430 252 l 1
EndSplineSet
MultipleSubs2: "Latin.a.decomp subtable" uni0251 uni0302
EndChar

StartChar: atilde
Encoding: 227 227 166
Width: 625
GlyphClass: 2
Flags: W
AnchorPoint: "LatinBelow.mark" 270 0 basechar 0
AnchorPoint: "LatinAbove.mark" 279 180 basechar 0
LayerCount: 2
Fore
SplineSet
180 737 m 1
 208 788 246 857 310 857 c 0
 360 857 382 826 401 805 c 0
 419 784 431 763 450 763 c 0
 482 763 511 824 525 850 c 1
 569 833 l 1
 543 781 503 713 440 713 c 0
 390 713 367 744 348 765 c 0
 330 786 319 807 300 807 c 0
 268 807 239 746 225 720 c 1
 180 737 l 1
30 172 m 0
 42 249 116 320 242 320 c 0
 315 320 385 314 435 308 c 1
 453 422 l 2
 454 431 455 440 455 448 c 0
 455 519 402 552 327 552 c 0
 247 552 189 505 166 429 c 1
 77 435 l 1
 105 528 194 618 338 618 c 0
 466 618 543 551 543 454 c 0
 543 444 542 433 540 422 c 2
 495 137 l 2
 493 125 492 114 492 105 c 0
 492 68 509 52 550 47 c 1
 519 -13 l 1
 475 -8 418 14 416 89 c 1
 372 35 307 -13 213 -13 c 0
 97 -13 27 43 27 138 c 0
 27 149 28 160 30 172 c 0
430 252 m 1
 386 258 318 266 238 266 c 0
 180 266 128 232 118 171 c 0
 117 162 116 153 116 145 c 0
 116 75 168 43 232 43 c 0
 339 43 397 133 423 210 c 1
 430 252 l 1
EndSplineSet
MultipleSubs2: "Latin.a.decomp subtable" uni0251 uni0303
EndChar

StartChar: adieresis
Encoding: 228 228 167
Width: 625
GlyphClass: 2
Flags: W
AnchorPoint: "LatinBelow.mark" 270 0 basechar 0
AnchorPoint: "LatinAbove.mark" 279 180 basechar 0
LayerCount: 2
Fore
SplineSet
187 780 m 0
 193 819 227 843 265 843 c 0
 299 843 324 824 324 791 c 0
 324 788 324 784 323 780 c 0
 317 741 283 717 245 717 c 0
 211 717 186 736 186 769 c 0
 186 772 186 776 187 780 c 0
425 780 m 0
 431 819 465 843 503 843 c 0
 537 843 562 824 562 791 c 0
 562 788 562 784 561 780 c 0
 555 741 521 717 483 717 c 0
 449 717 424 736 424 769 c 0
 424 772 424 776 425 780 c 0
30 172 m 0
 42 249 116 320 242 320 c 0
 315 320 385 314 435 308 c 1
 453 422 l 2
 454 431 455 440 455 448 c 0
 455 519 402 552 327 552 c 0
 247 552 189 505 166 429 c 1
 77 435 l 1
 105 528 194 618 338 618 c 0
 466 618 543 551 543 454 c 0
 543 444 542 433 540 422 c 2
 495 137 l 2
 493 125 492 114 492 105 c 0
 492 68 509 52 550 47 c 1
 519 -13 l 1
 475 -8 418 14 416 89 c 1
 372 35 307 -13 213 -13 c 0
 97 -13 27 43 27 138 c 0
 27 149 28 160 30 172 c 0
430 252 m 1
 386 258 318 266 238 266 c 0
 180 266 128 232 118 171 c 0
 117 162 116 153 116 145 c 0
 116 75 168 43 232 43 c 0
 339 43 397 133 423 210 c 1
 430 252 l 1
EndSplineSet
MultipleSubs2: "Latin.a.decomp subtable" uni0251 uni0308
EndChar

StartChar: aring
Encoding: 229 229 168
Width: 625
GlyphClass: 2
Flags: W
AnchorPoint: "LatinBelow.mark" 270 0 basechar 0
AnchorPoint: "LatinAbove.mark" 279 180 basechar 0
LayerCount: 2
Fore
SplineSet
354 657 m 0
 294 657 255 692 255 746 c 0
 255 752 255 759 256 765 c 0
 266 829 321 873 388 873 c 0
 448 873 487 838 487 784 c 0
 487 778 487 771 486 765 c 0
 476 701 421 657 354 657 c 0
361 701 m 0
 401 701 431 727 437 765 c 0
 438 769 438 773 438 777 c 0
 438 808 417 829 381 829 c 0
 341 829 311 803 305 765 c 0
 304 761 304 757 304 753 c 0
 304 722 325 701 361 701 c 0
30 172 m 0
 42 249 116 320 242 320 c 0
 315 320 385 314 435 308 c 1
 453 422 l 2
 454 431 455 440 455 448 c 0
 455 519 402 552 327 552 c 0
 247 552 189 505 166 429 c 1
 77 435 l 1
 105 528 194 618 338 618 c 0
 466 618 543 551 543 454 c 0
 543 444 542 433 540 422 c 2
 495 137 l 2
 493 125 492 114 492 105 c 0
 492 68 509 52 550 47 c 1
 519 -13 l 1
 475 -8 418 14 416 89 c 1
 372 35 307 -13 213 -13 c 0
 97 -13 27 43 27 138 c 0
 27 149 28 160 30 172 c 0
430 252 m 1
 386 258 318 266 238 266 c 0
 180 266 128 232 118 171 c 0
 117 162 116 153 116 145 c 0
 116 75 168 43 232 43 c 0
 339 43 397 133 423 210 c 1
 430 252 l 1
EndSplineSet
MultipleSubs2: "Latin.a.decomp subtable" uni0251 uni030A
EndChar

StartChar: ae
Encoding: 230 230 169
Width: 960
GlyphClass: 2
Flags: W
AnchorPoint: "LatinBelow.mark" 420 0 basechar 0
AnchorPoint: "LatinAbove.mark" 420 0 basechar 0
LayerCount: 2
Fore
SplineSet
30 172 m 0
 42 250 111 320 235 320 c 0
 303 320 365 314 412 308 c 1
 430 422 l 2
 432 432 432 441 432 450 c 0
 432 520 385 552 317 552 c 0
 241 552 189 505 166 429 c 1
 77 435 l 1
 105 528 188 618 328 618 c 0
 419 618 480 579 503 518 c 1
 548 577 613 618 702 618 c 0
 838 618 900 529 900 417 c 0
 900 399 898 381 895 362 c 0
 891 338 883 311 875 287 c 1
 876 286 l 1
 875 286 l 1
 496 286 l 1
 491 258 489 231 489 207 c 0
 489 108 528 46 611 46 c 0
 695 46 745 107 760 153 c 1
 847 145 l 1
 827 81 741 -18 601 -18 c 0
 500 -18 447 34 424 104 c 1
 383 41 315 -18 205 -18 c 0
 93 -18 27 39 27 134 c 0
 27 146 28 159 30 172 c 0
506 344 m 1
 807 344 l 1
 809 350 810 356 811 362 c 0
 814 380 815 398 815 414 c 0
 815 504 771 554 692 554 c 0
 600 554 533 470 506 344 c 1
408 252 m 1
 367 258 309 266 233 266 c 0
 175 266 128 233 118 171 c 0
 116 161 116 152 116 143 c 0
 116 73 164 43 225 43 c 0
 323 43 378 128 401 207 c 1
 408 252 l 1
EndSplineSet
EndChar

StartChar: ccedilla
Encoding: 231 231 170
Width: 605
GlyphClass: 2
Flags: W
AnchorPoint: "LatinAbove.mark" 270 0 basechar 0
LayerCount: 2
Fore
SplineSet
135 -284 m 1
 202 -268 292 -240 302 -175 c 0
 302 -173 303 -170 303 -168 c 0
 303 -148 286 -130 234 -130 c 0
 218 -130 198 -133 187 -135 c 1
 163 -107 l 1
 228 -16 l 1
 86 0 42 104 42 214 c 0
 42 238 44 263 48 287 c 2
 53 313 l 1
 75 455 160 618 369 618 c 0
 523 618 575 518 575 455 c 1
 484 447 l 1
 483 493 444 551 358 551 c 0
 241 551 168 456 145 313 c 1
 140 287 l 2
 136 263 134 240 134 219 c 0
 134 115 182 49 279 49 c 0
 365 49 422 107 437 153 c 1
 526 145 l 1
 506 84 426 -13 279 -18 c 1
 228 -89 l 1
 235 -88 243 -88 251 -88 c 0
 322 -88 363 -114 363 -161 c 0
 363 -166 363 -170 362 -175 c 0
 345 -283 198 -314 143 -328 c 1
 135 -284 l 1
EndSplineSet
EndChar

StartChar: egrave
Encoding: 232 232 171
Width: 640
GlyphClass: 2
Flags: W
AnchorPoint: "LatinBelow.mark" 270 0 basechar 0
AnchorPoint: "LatinAbove.mark" 299 180 basechar 0
LayerCount: 2
Fore
SplineSet
253 840 m 1
 303 902 l 1
 491 734 l 1
 460 698 l 1
 253 840 l 1
48 286 m 2
 53 314 l 2
 75 456 162 618 365 618 c 0
 511 618 579 524 579 410 c 0
 579 394 578 378 575 362 c 0
 571 337 565 311 556 286 c 1
 136 286 l 1
 132 261 130 239 130 217 c 0
 130 114 175 47 274 47 c 0
 364 47 422 107 437 153 c 1
 523 145 l 1
 502 81 416 -18 264 -18 c 0
 93 -18 42 93 42 212 c 0
 42 237 44 262 48 286 c 2
146 344 m 1
 487 344 l 1
 488 351 489 357 490 363 c 0
 493 380 494 395 494 410 c 0
 494 504 440 554 355 554 c 0
 245 554 174 470 146 344 c 1
EndSplineSet
EndChar

StartChar: eacute
Encoding: 233 233 172
Width: 640
GlyphClass: 2
Flags: W
AnchorPoint: "LatinBelow.mark" 270 0 basechar 0
AnchorPoint: "LatinAbove.mark" 299 180 basechar 0
LayerCount: 2
Fore
SplineSet
553 840 m 1
 302 698 l 1
 281 734 l 1
 523 902 l 1
 553 840 l 1
48 286 m 2
 53 314 l 2
 75 456 162 618 365 618 c 0
 511 618 579 524 579 410 c 0
 579 394 578 378 575 362 c 0
 571 337 565 311 556 286 c 1
 136 286 l 1
 132 261 130 239 130 217 c 0
 130 114 175 47 274 47 c 0
 364 47 422 107 437 153 c 1
 523 145 l 1
 502 81 416 -18 264 -18 c 0
 93 -18 42 93 42 212 c 0
 42 237 44 262 48 286 c 2
146 344 m 1
 487 344 l 1
 488 351 489 357 490 363 c 0
 493 380 494 395 494 410 c 0
 494 504 440 554 355 554 c 0
 245 554 174 470 146 344 c 1
EndSplineSet
EndChar

StartChar: ecircumflex
Encoding: 234 234 173
Width: 640
GlyphClass: 2
Flags: W
AnchorPoint: "LatinBelow.mark" 270 0 basechar 0
AnchorPoint: "LatinAbove.mark" 299 180 basechar 0
LayerCount: 2
Fore
SplineSet
196 713 m 1
 395 862 l 1
 419 862 l 1
 570 713 l 1
 537 682 l 1
 395 788 l 1
 219 682 l 1
 196 713 l 1
48 286 m 2
 53 314 l 2
 75 456 162 618 365 618 c 0
 511 618 579 524 579 410 c 0
 579 394 578 378 575 362 c 0
 571 337 565 311 556 286 c 1
 136 286 l 1
 132 261 130 239 130 217 c 0
 130 114 175 47 274 47 c 0
 364 47 422 107 437 153 c 1
 523 145 l 1
 502 81 416 -18 264 -18 c 0
 93 -18 42 93 42 212 c 0
 42 237 44 262 48 286 c 2
146 344 m 1
 487 344 l 1
 488 351 489 357 490 363 c 0
 493 380 494 395 494 410 c 0
 494 504 440 554 355 554 c 0
 245 554 174 470 146 344 c 1
EndSplineSet
EndChar

StartChar: edieresis
Encoding: 235 235 174
Width: 640
GlyphClass: 2
Flags: W
AnchorPoint: "LatinBelow.mark" 270 0 basechar 0
AnchorPoint: "LatinAbove.mark" 299 180 basechar 0
LayerCount: 2
Fore
SplineSet
207 780 m 0
 213 819 247 843 285 843 c 0
 319 843 344 824 344 791 c 0
 344 788 344 784 343 780 c 0
 337 741 303 717 265 717 c 0
 231 717 206 736 206 769 c 0
 206 772 206 776 207 780 c 0
445 780 m 0
 451 819 485 843 523 843 c 0
 557 843 582 824 582 791 c 0
 582 788 582 784 581 780 c 0
 575 741 541 717 503 717 c 0
 469 717 444 736 444 769 c 0
 444 772 444 776 445 780 c 0
48 286 m 2
 53 314 l 2
 75 456 162 618 365 618 c 0
 511 618 579 524 579 410 c 0
 579 394 578 378 575 362 c 0
 571 337 565 311 556 286 c 1
 136 286 l 1
 132 261 130 239 130 217 c 0
 130 114 175 47 274 47 c 0
 364 47 422 107 437 153 c 1
 523 145 l 1
 502 81 416 -18 264 -18 c 0
 93 -18 42 93 42 212 c 0
 42 237 44 262 48 286 c 2
146 344 m 1
 487 344 l 1
 488 351 489 357 490 363 c 0
 493 380 494 395 494 410 c 0
 494 504 440 554 355 554 c 0
 245 554 174 470 146 344 c 1
EndSplineSet
EndChar

StartChar: igrave
Encoding: 236 236 175
Width: 300
GlyphClass: 2
Flags: W
AnchorPoint: "LatinBelow.mark" 90 0 basechar 0
AnchorPoint: "LatinAbove.mark" 119 180 basechar 0
LayerCount: 2
Fore
SplineSet
73 840 m 1
 123 902 l 1
 311 734 l 1
 280 698 l 1
 73 840 l 1
45 0 m 1
 140 600 l 1
 230 600 l 1
 135 0 l 1
 45 0 l 1
EndSplineSet
EndChar

StartChar: iacute
Encoding: 237 237 176
Width: 300
GlyphClass: 2
Flags: W
AnchorPoint: "LatinBelow.mark" 90 0 basechar 0
AnchorPoint: "LatinAbove.mark" 119 180 basechar 0
LayerCount: 2
Fore
SplineSet
373 840 m 1
 122 698 l 1
 101 734 l 1
 343 902 l 1
 373 840 l 1
45 0 m 1
 140 600 l 1
 230 600 l 1
 135 0 l 1
 45 0 l 1
EndSplineSet
EndChar

StartChar: icircumflex
Encoding: 238 238 177
Width: 300
GlyphClass: 2
Flags: W
AnchorPoint: "LatinBelow.mark" 90 0 basechar 0
AnchorPoint: "LatinAbove.mark" 119 180 basechar 0
LayerCount: 2
Fore
SplineSet
16 713 m 1
 215 862 l 1
 239 862 l 1
 390 713 l 1
 357 682 l 1
 215 788 l 1
 39 682 l 1
 16 713 l 1
45 0 m 1
 140 600 l 1
 230 600 l 1
 135 0 l 1
 45 0 l 1
EndSplineSet
EndChar

StartChar: idieresis
Encoding: 239 239 178
Width: 300
GlyphClass: 2
Flags: W
AnchorPoint: "LatinBelow.mark" 90 0 basechar 0
AnchorPoint: "LatinAbove.mark" 119 180 basechar 0
LayerCount: 2
Fore
SplineSet
27 780 m 0
 33 819 67 843 105 843 c 0
 139 843 164 824 164 791 c 0
 164 788 164 784 163 780 c 0
 157 741 123 717 85 717 c 0
 51 717 26 736 26 769 c 0
 26 772 26 776 27 780 c 0
265 780 m 0
 271 819 305 843 343 843 c 0
 377 843 402 824 402 791 c 0
 402 788 402 784 401 780 c 0
 395 741 361 717 323 717 c 0
 289 717 264 736 264 769 c 0
 264 772 264 776 265 780 c 0
45 0 m 1
 140 600 l 1
 230 600 l 1
 135 0 l 1
 45 0 l 1
EndSplineSet
EndChar

StartChar: eth
Encoding: 240 240 179
Width: 660
GlyphClass: 2
Flags: W
AnchorPoint: "LatinBelow.mark" 270 0 basechar 0
AnchorPoint: "LatinAbove.mark" 319 180 basechar 0
LayerCount: 2
Fore
SplineSet
447 781 m 1
 592 816 l 1
 597 769 l 1
 482 741 l 1
 560 646 594 536 594 416 c 0
 594 380 591 342 585 304 c 2
 581 277 l 2
 559 139 476 -18 267 -18 c 0
 93 -18 40 91 40 207 c 0
 40 230 42 254 46 277 c 2
 51 311 l 2
 73 453 162 608 348 608 c 0
 413 608 460 580 492 541 c 1
 476 607 446 667 399 721 c 1
 183 669 l 1
 178 716 l 1
 360 760 l 1
 337 781 311 802 282 821 c 1
 339 868 l 1
 380 841 417 812 447 781 c 1
504 382 m 1
 495 462 446 541 348 541 c 0
 236 541 164 455 141 311 c 2
 136 277 l 2
 132 254 131 233 131 213 c 0
 131 111 178 47 277 47 c 0
 396 47 469 139 491 277 c 2
 495 304 l 2
 499 331 502 357 504 382 c 1
EndSplineSet
EndChar

StartChar: ntilde
Encoding: 241 241 180
Width: 655
GlyphClass: 2
Flags: W
AnchorPoint: "LatinBelow.mark" 300 0 basechar 0
LayerCount: 2
Fore
SplineSet
200 737 m 1
 228 788 266 857 330 857 c 0
 380 857 402 826 421 805 c 0
 439 784 451 763 470 763 c 0
 502 763 531 824 545 850 c 1
 589 833 l 1
 563 781 523 713 460 713 c 0
 410 713 387 744 368 765 c 0
 350 786 339 807 320 807 c 0
 288 807 259 746 245 720 c 1
 200 737 l 1
32 0 m 1
 99 420 l 1
 116 595 l 1
 200 603 l 1
 189 438 l 1
 243 527 329 613 444 613 c 0
 543 613 587 548 587 463 c 0
 587 449 586 435 584 421 c 2
 517 0 l 1
 427 0 l 1
 493 418 l 2
 495 430 496 442 496 452 c 0
 496 515 460 541 411 541 c 0
 304 541 205 413 170 302 c 1
 122 0 l 1
 32 0 l 1
EndSplineSet
EndChar

StartChar: ograve
Encoding: 242 242 181
Width: 660
GlyphClass: 2
Flags: W
AnchorPoint: "LatinBelow.mark" 270 0 basechar 0
AnchorPoint: "LatinAbove.mark" 299 180 basechar 0
LayerCount: 2
Fore
SplineSet
253 840 m 1
 303 902 l 1
 491 734 l 1
 460 698 l 1
 253 840 l 1
47 286 m 2
 52 314 l 2
 74 456 160 618 368 618 c 0
 541 618 594 506 594 386 c 0
 594 362 592 338 588 314 c 2
 583 286 l 2
 561 144 475 -18 267 -18 c 0
 94 -18 41 94 41 214 c 0
 41 238 43 262 47 286 c 2
278 48 m 0
 398 48 470 143 493 286 c 2
 498 314 l 2
 502 338 504 361 504 382 c 0
 504 486 457 552 357 552 c 0
 237 552 165 457 142 314 c 2
 137 286 l 2
 133 262 131 239 131 218 c 0
 131 114 178 48 278 48 c 0
EndSplineSet
EndChar

StartChar: oacute
Encoding: 243 243 182
Width: 660
GlyphClass: 2
Flags: W
AnchorPoint: "LatinBelow.mark" 270 0 basechar 0
AnchorPoint: "LatinAbove.mark" 299 180 basechar 0
LayerCount: 2
Fore
SplineSet
553 840 m 1
 302 698 l 1
 281 734 l 1
 523 902 l 1
 553 840 l 1
47 286 m 2
 52 314 l 2
 74 456 160 618 368 618 c 0
 541 618 594 506 594 386 c 0
 594 362 592 338 588 314 c 2
 583 286 l 2
 561 144 475 -18 267 -18 c 0
 94 -18 41 94 41 214 c 0
 41 238 43 262 47 286 c 2
278 48 m 0
 398 48 470 143 493 286 c 2
 498 314 l 2
 502 338 504 361 504 382 c 0
 504 486 457 552 357 552 c 0
 237 552 165 457 142 314 c 2
 137 286 l 2
 133 262 131 239 131 218 c 0
 131 114 178 48 278 48 c 0
EndSplineSet
EndChar

StartChar: ocircumflex
Encoding: 244 244 183
Width: 660
GlyphClass: 2
Flags: W
AnchorPoint: "LatinBelow.mark" 270 0 basechar 0
AnchorPoint: "LatinAbove.mark" 299 180 basechar 0
LayerCount: 2
Fore
SplineSet
196 713 m 1
 395 862 l 1
 419 862 l 1
 570 713 l 1
 537 682 l 1
 395 788 l 1
 219 682 l 1
 196 713 l 1
47 286 m 2
 52 314 l 2
 74 456 160 618 368 618 c 0
 541 618 594 506 594 386 c 0
 594 362 592 338 588 314 c 2
 583 286 l 2
 561 144 475 -18 267 -18 c 0
 94 -18 41 94 41 214 c 0
 41 238 43 262 47 286 c 2
278 48 m 0
 398 48 470 143 493 286 c 2
 498 314 l 2
 502 338 504 361 504 382 c 0
 504 486 457 552 357 552 c 0
 237 552 165 457 142 314 c 2
 137 286 l 2
 133 262 131 239 131 218 c 0
 131 114 178 48 278 48 c 0
EndSplineSet
EndChar

StartChar: otilde
Encoding: 245 245 184
Width: 660
GlyphClass: 2
Flags: W
AnchorPoint: "LatinBelow.mark" 270 0 basechar 0
AnchorPoint: "LatinAbove.mark" 299 180 basechar 0
LayerCount: 2
Fore
SplineSet
200 737 m 1
 228 788 266 857 330 857 c 0
 380 857 402 826 421 805 c 0
 439 784 451 763 470 763 c 0
 502 763 531 824 545 850 c 1
 589 833 l 1
 563 781 523 713 460 713 c 0
 410 713 387 744 368 765 c 0
 350 786 339 807 320 807 c 0
 288 807 259 746 245 720 c 1
 200 737 l 1
47 286 m 2
 52 314 l 2
 74 456 160 618 368 618 c 0
 541 618 594 506 594 386 c 0
 594 362 592 338 588 314 c 2
 583 286 l 2
 561 144 475 -18 267 -18 c 0
 94 -18 41 94 41 214 c 0
 41 238 43 262 47 286 c 2
278 48 m 0
 398 48 470 143 493 286 c 2
 498 314 l 2
 502 338 504 361 504 382 c 0
 504 486 457 552 357 552 c 0
 237 552 165 457 142 314 c 2
 137 286 l 2
 133 262 131 239 131 218 c 0
 131 114 178 48 278 48 c 0
EndSplineSet
EndChar

StartChar: odieresis
Encoding: 246 246 185
Width: 660
GlyphClass: 2
Flags: W
AnchorPoint: "LatinBelow.mark" 270 0 basechar 0
AnchorPoint: "LatinAbove.mark" 299 180 basechar 0
LayerCount: 2
Fore
SplineSet
207 780 m 0
 213 819 247 843 285 843 c 0
 319 843 344 824 344 791 c 0
 344 788 344 784 343 780 c 0
 337 741 303 717 265 717 c 0
 231 717 206 736 206 769 c 0
 206 772 206 776 207 780 c 0
445 780 m 0
 451 819 485 843 523 843 c 0
 557 843 582 824 582 791 c 0
 582 788 582 784 581 780 c 0
 575 741 541 717 503 717 c 0
 469 717 444 736 444 769 c 0
 444 772 444 776 445 780 c 0
47 286 m 2
 52 314 l 2
 74 456 160 618 368 618 c 0
 541 618 594 506 594 386 c 0
 594 362 592 338 588 314 c 2
 583 286 l 2
 561 144 475 -18 267 -18 c 0
 94 -18 41 94 41 214 c 0
 41 238 43 262 47 286 c 2
278 48 m 0
 398 48 470 143 493 286 c 2
 498 314 l 2
 502 338 504 361 504 382 c 0
 504 486 457 552 357 552 c 0
 237 552 165 457 142 314 c 2
 137 286 l 2
 133 262 131 239 131 218 c 0
 131 114 178 48 278 48 c 0
EndSplineSet
EndChar

StartChar: divide
Encoding: 247 247 186
Width: 600
GlyphClass: 2
Flags: W
LayerCount: 2
Fore
SplineSet
89 328 m 1
 99 392 l 1
 505 392 l 1
 495 328 l 1
 89 328 l 1
211 225 m 0
 217 263 248 286 284 286 c 0
 317 286 342 267 342 235 c 0
 342 232 342 229 341 225 c 0
 335 187 301 164 265 164 c 0
 233 164 210 183 210 214 c 0
 210 218 210 221 211 225 c 0
253 495 m 0
 259 533 291 556 327 556 c 0
 360 556 384 538 384 506 c 0
 384 503 384 499 383 495 c 0
 377 457 344 434 308 434 c 0
 276 434 252 453 252 484 c 0
 252 487 252 491 253 495 c 0
EndSplineSet
EndChar

StartChar: oslash
Encoding: 248 248 187
Width: 660
GlyphClass: 2
Flags: W
AnchorPoint: "LatinBelow.mark" 270 0 basechar 0
AnchorPoint: "LatinAbove.mark" 270 0 basechar 0
LayerCount: 2
Fore
SplineSet
47 286 m 2
 52 314 l 2
 74 456 160 618 368 618 c 0
 445 618 499 596 534 561 c 1
 588 618 l 1
 623 590 l 1
 561 525 l 1
 585 485 594 436 594 386 c 0
 594 362 592 338 588 314 c 2
 583 286 l 2
 561 144 475 -18 267 -18 c 0
 190 -18 136 5 101 40 c 1
 46 -18 l 1
 12 10 l 1
 74 76 l 1
 50 116 41 164 41 214 c 0
 41 238 43 262 47 286 c 2
474 498 m 1
 451 533 411 552 357 552 c 0
 237 552 165 457 142 314 c 2
 137 286 l 2
 133 262 131 239 131 217 c 0
 131 191 134 167 140 146 c 1
 474 498 l 1
494 454 m 1
 160 103 l 1
 183 68 223 48 278 48 c 0
 398 48 470 143 493 286 c 2
 498 314 l 2
 502 337 504 360 504 380 c 0
 504 408 500 432 494 454 c 1
EndSplineSet
EndChar

StartChar: ugrave
Encoding: 249 249 188
Width: 620
GlyphClass: 2
Flags: W
AnchorPoint: "LatinBelow.mark" 250 0 basechar 0
AnchorPoint: "LatinAbove.mark" 279 180 basechar 0
LayerCount: 2
Fore
SplineSet
233 840 m 1
 283 902 l 1
 471 734 l 1
 440 698 l 1
 233 840 l 1
41 184 m 2
 107 600 l 1
 197 600 l 1
 131 184 l 2
 130 175 129 165 129 157 c 0
 129 85 181 48 258 48 c 0
 344 48 413 94 427 184 c 2
 493 600 l 1
 583 600 l 1
 517 184 l 2
 499 69 393 -18 247 -18 c 0
 115 -18 38 53 38 152 c 0
 38 162 39 173 41 184 c 2
EndSplineSet
EndChar

StartChar: uacute
Encoding: 250 250 189
Width: 620
GlyphClass: 2
Flags: W
AnchorPoint: "LatinBelow.mark" 250 0 basechar 0
AnchorPoint: "LatinAbove.mark" 279 180 basechar 0
LayerCount: 2
Fore
SplineSet
533 840 m 1
 282 698 l 1
 261 734 l 1
 503 902 l 1
 533 840 l 1
41 184 m 2
 107 600 l 1
 197 600 l 1
 131 184 l 2
 130 175 129 165 129 157 c 0
 129 85 181 48 258 48 c 0
 344 48 413 94 427 184 c 2
 493 600 l 1
 583 600 l 1
 517 184 l 2
 499 69 393 -18 247 -18 c 0
 115 -18 38 53 38 152 c 0
 38 162 39 173 41 184 c 2
EndSplineSet
EndChar

StartChar: ucircumflex
Encoding: 251 251 190
Width: 620
GlyphClass: 2
Flags: W
AnchorPoint: "LatinBelow.mark" 250 0 basechar 0
AnchorPoint: "LatinAbove.mark" 279 180 basechar 0
LayerCount: 2
Fore
SplineSet
176 713 m 1
 375 862 l 1
 399 862 l 1
 550 713 l 1
 517 682 l 1
 375 788 l 1
 199 682 l 1
 176 713 l 1
41 184 m 2
 107 600 l 1
 197 600 l 1
 131 184 l 2
 130 175 129 165 129 157 c 0
 129 85 181 48 258 48 c 0
 344 48 413 94 427 184 c 2
 493 600 l 1
 583 600 l 1
 517 184 l 2
 499 69 393 -18 247 -18 c 0
 115 -18 38 53 38 152 c 0
 38 162 39 173 41 184 c 2
EndSplineSet
EndChar

StartChar: udieresis
Encoding: 252 252 191
Width: 620
GlyphClass: 2
Flags: W
AnchorPoint: "LatinBelow.mark" 250 0 basechar 0
AnchorPoint: "LatinAbove.mark" 279 180 basechar 0
LayerCount: 2
Fore
SplineSet
187 780 m 0
 193 819 227 843 265 843 c 0
 299 843 324 824 324 791 c 0
 324 788 324 784 323 780 c 0
 317 741 283 717 245 717 c 0
 211 717 186 736 186 769 c 0
 186 772 186 776 187 780 c 0
425 780 m 0
 431 819 465 843 503 843 c 0
 537 843 562 824 562 791 c 0
 562 788 562 784 561 780 c 0
 555 741 521 717 483 717 c 0
 449 717 424 736 424 769 c 0
 424 772 424 776 425 780 c 0
41 184 m 2
 107 600 l 1
 197 600 l 1
 131 184 l 2
 130 175 129 165 129 157 c 0
 129 85 181 48 258 48 c 0
 344 48 413 94 427 184 c 2
 493 600 l 1
 583 600 l 1
 517 184 l 2
 499 69 393 -18 247 -18 c 0
 115 -18 38 53 38 152 c 0
 38 162 39 173 41 184 c 2
EndSplineSet
EndChar

StartChar: yacute
Encoding: 253 253 192
Width: 600
GlyphClass: 2
Flags: W
AnchorPoint: "LatinBelow.mark" 211 -180 basechar 0
AnchorPoint: "LatinAbove.mark" 269 180 basechar 0
LayerCount: 2
Fore
SplineSet
523 840 m 1
 272 698 l 1
 251 734 l 1
 493 902 l 1
 523 840 l 1
55 588 m 1
 56 593 l 1
 155 600 l 1
 255 103 l 1
 516 600 l 1
 612 593 l 1
 611 588 l 1
 263 -29 l 2
 212 -113 149 -228 42 -228 c 0
 -8 -228 -36 -206 -57 -186 c 1
 -5 -131 l 1
 10 -147 25 -165 50 -165 c 0
 98 -165 143 -96 192 -12 c 2
 201 3 l 1
 55 588 l 1
EndSplineSet
EndChar

StartChar: thorn
Encoding: 254 254 193
Width: 675
GlyphClass: 2
Flags: W
AnchorPoint: "LatinBelow.mark" 61 -180 basechar 0
AnchorPoint: "LatinAbove.mark" 104 180 basechar 0
LayerCount: 2
Fore
SplineSet
602 312 m 2
 599 288 l 1
 577 146 487 -13 301 -13 c 0
 216 -13 166 37 138 96 c 1
 90 -210 l 1
 0 -210 l 1
 161 810 l 1
 249 810 l 1
 201 506 l 1
 248 565 315 613 400 613 c 0
 556 613 608 501 608 382 c 0
 608 359 606 335 602 312 c 2
156 210 m 1
 165 132 207 54 302 54 c 0
 414 54 486 144 509 288 c 1
 512 312 l 2
 516 337 518 360 518 381 c 0
 518 484 472 546 379 546 c 0
 284 546 218 468 185 390 c 1
 156 210 l 1
EndSplineSet
EndChar

StartChar: ydieresis
Encoding: 255 255 194
Width: 600
GlyphClass: 2
Flags: W
AnchorPoint: "LatinBelow.mark" 211 -180 basechar 0
AnchorPoint: "LatinAbove.mark" 269 180 basechar 0
LayerCount: 2
Fore
SplineSet
177 780 m 0
 183 819 217 843 255 843 c 0
 289 843 314 824 314 791 c 0
 314 788 314 784 313 780 c 0
 307 741 273 717 235 717 c 0
 201 717 176 736 176 769 c 0
 176 772 176 776 177 780 c 0
415 780 m 0
 421 819 455 843 493 843 c 0
 527 843 552 824 552 791 c 0
 552 788 552 784 551 780 c 0
 545 741 511 717 473 717 c 0
 439 717 414 736 414 769 c 0
 414 772 414 776 415 780 c 0
55 588 m 1
 56 593 l 1
 155 600 l 1
 255 103 l 1
 516 600 l 1
 612 593 l 1
 611 588 l 1
 263 -29 l 2
 212 -113 149 -228 42 -228 c 0
 -8 -228 -36 -206 -57 -186 c 1
 -5 -131 l 1
 10 -147 25 -165 50 -165 c 0
 98 -165 143 -96 192 -12 c 2
 201 3 l 1
 55 588 l 1
EndSplineSet
EndChar

StartChar: Amacron
Encoding: 256 256 195
Width: 750
GlyphClass: 2
Flags: W
AnchorPoint: "LatinBelow.mark" 315 0 basechar 0
AnchorPoint: "LatinAbove.mark" 367 330 basechar 0
LayerCount: 2
Fore
SplineSet
271 900 m 1
 280 960 l 1
 654 960 l 1
 645 900 l 1
 271 900 l 1
667 0 m 1
 559 0 l 1
 523 176 l 1
 163 176 l 1
 71 0 l 1
 -37 0 l 1
 -36 6 l 1
 399 780 l 1
 479 780 l 1
 668 6 l 1
 667 0 l 1
509 244 m 1
 421 670 l 1
 199 244 l 1
 509 244 l 1
EndSplineSet
EndChar

StartChar: amacron
Encoding: 257 257 196
Width: 625
GlyphClass: 2
Flags: W
AnchorPoint: "LatinBelow.mark" 270 0 basechar 0
AnchorPoint: "LatinAbove.mark" 279 180 basechar 0
LayerCount: 2
Fore
SplineSet
182 750 m 1
 191 810 l 1
 565 810 l 1
 556 750 l 1
 182 750 l 1
30 172 m 0
 42 249 116 320 242 320 c 0
 315 320 385 314 435 308 c 1
 453 422 l 2
 454 431 455 440 455 448 c 0
 455 519 402 552 327 552 c 0
 247 552 189 505 166 429 c 1
 77 435 l 1
 105 528 194 618 338 618 c 0
 466 618 543 551 543 454 c 0
 543 444 542 433 540 422 c 2
 495 137 l 2
 493 125 492 114 492 105 c 0
 492 68 509 52 550 47 c 1
 519 -13 l 1
 475 -8 418 14 416 89 c 1
 372 35 307 -13 213 -13 c 0
 97 -13 27 43 27 138 c 0
 27 149 28 160 30 172 c 0
430 252 m 1
 386 258 318 266 238 266 c 0
 180 266 128 232 118 171 c 0
 117 162 116 153 116 145 c 0
 116 75 168 43 232 43 c 0
 339 43 397 133 423 210 c 1
 430 252 l 1
EndSplineSet
MultipleSubs2: "Latin.a.decomp subtable" uni0251 uni0304
EndChar

StartChar: Abreve
Encoding: 258 258 197
Width: 750
GlyphClass: 2
Flags: W
AnchorPoint: "LatinBelow.mark" 315 0 basechar 0
AnchorPoint: "LatinAbove.mark" 367 330 basechar 0
LayerCount: 2
Fore
SplineSet
285 988 m 1
 345 1007 l 1
 349 959 371 905 459 905 c 0
 547 905 585 959 605 1007 c 1
 659 988 l 1
 630 920 566 847 449 847 c 0
 332 847 292 920 285 988 c 1
667 0 m 1
 559 0 l 1
 523 176 l 1
 163 176 l 1
 71 0 l 1
 -37 0 l 1
 -36 6 l 1
 399 780 l 1
 479 780 l 1
 668 6 l 1
 667 0 l 1
509 244 m 1
 421 670 l 1
 199 244 l 1
 509 244 l 1
EndSplineSet
EndChar

StartChar: abreve
Encoding: 259 259 198
Width: 625
GlyphClass: 2
Flags: W
AnchorPoint: "LatinBelow.mark" 270 0 basechar 0
AnchorPoint: "LatinAbove.mark" 279 180 basechar 0
LayerCount: 2
Fore
SplineSet
196 838 m 1
 256 857 l 1
 260 809 282 755 370 755 c 0
 458 755 496 809 516 857 c 1
 570 838 l 1
 541 770 477 697 360 697 c 0
 243 697 203 770 196 838 c 1
30 172 m 0
 42 249 116 320 242 320 c 0
 315 320 385 314 435 308 c 1
 453 422 l 2
 454 431 455 440 455 448 c 0
 455 519 402 552 327 552 c 0
 247 552 189 505 166 429 c 1
 77 435 l 1
 105 528 194 618 338 618 c 0
 466 618 543 551 543 454 c 0
 543 444 542 433 540 422 c 2
 495 137 l 2
 493 125 492 114 492 105 c 0
 492 68 509 52 550 47 c 1
 519 -13 l 1
 475 -8 418 14 416 89 c 1
 372 35 307 -13 213 -13 c 0
 97 -13 27 43 27 138 c 0
 27 149 28 160 30 172 c 0
430 252 m 1
 386 258 318 266 238 266 c 0
 180 266 128 232 118 171 c 0
 117 162 116 153 116 145 c 0
 116 75 168 43 232 43 c 0
 339 43 397 133 423 210 c 1
 430 252 l 1
EndSplineSet
MultipleSubs2: "Latin.a.decomp subtable" uni0251 uni0306
EndChar

StartChar: Aogonek
Encoding: 260 260 199
Width: 750
GlyphClass: 2
Flags: W
AnchorPoint: "LatinAbove.mark" 339 150 basechar 0
LayerCount: 2
Fore
SplineSet
509 244 m 1
 421 670 l 1
 199 244 l 1
 509 244 l 1
586 0 m 1
 559 0 l 1
 523 176 l 1
 163 176 l 1
 71 0 l 1
 -37 0 l 1
 -36 6 l 1
 399 780 l 1
 479 780 l 1
 668 6 l 1
 667 0 l 1
 641 0 l 1
 609 -32 581 -75 571 -135 c 0
 570 -142 569 -147 569 -153 c 0
 569 -189 591 -204 620 -204 c 0
 648 -204 673 -195 686 -188 c 1
 695 -232 l 1
 668 -245 638 -252 602 -252 c 0
 539 -252 508 -217 508 -165 c 0
 508 -158 509 -150 510 -142 c 0
 520 -81 551 -36 586 0 c 1
EndSplineSet
EndChar

StartChar: aogonek
Encoding: 261 261 200
Width: 625
GlyphClass: 2
Flags: W
AnchorPoint: "LatinAbove.mark" 250 0 basechar 0
LayerCount: 2
Fore
SplineSet
430 252 m 1
 386 258 318 266 238 266 c 0
 180 266 128 232 118 171 c 0
 117 162 116 153 116 145 c 0
 116 75 168 43 232 43 c 0
 339 43 397 133 423 210 c 1
 430 252 l 1
30 172 m 0
 42 249 116 320 242 320 c 0
 315 320 385 314 435 308 c 1
 453 422 l 2
 454 431 455 440 455 448 c 0
 455 519 402 552 327 552 c 0
 247 552 189 505 166 429 c 1
 77 435 l 1
 105 528 194 618 338 618 c 0
 466 618 543 551 543 454 c 0
 543 444 542 433 540 422 c 2
 495 137 l 2
 493 125 492 114 492 105 c 0
 492 68 509 52 550 47 c 1
 519 -13 l 1
 507 -12 494 -10 482 -5 c 1
 451 -37 425 -77 416 -135 c 0
 415 -142 414 -147 414 -153 c 0
 414 -189 436 -204 465 -204 c 0
 493 -204 518 -195 531 -188 c 1
 540 -232 l 1
 513 -245 483 -252 447 -252 c 0
 384 -252 353 -217 353 -165 c 0
 353 -158 354 -150 355 -142 c 0
 366 -72 407 -22 448 16 c 1
 431 32 416 54 416 89 c 1
 372 35 307 -13 213 -13 c 0
 97 -13 27 43 27 138 c 0
 27 149 28 160 30 172 c 0
EndSplineSet
MultipleSubs2: "Latin.a.decomp subtable" uni0251 uni0328
EndChar

StartChar: Cacute
Encoding: 262 262 201
Width: 755
GlyphClass: 2
Flags: W
AnchorPoint: "LatinBelow.mark" 350 0 basechar 0
LayerCount: 2
Fore
SplineSet
657 990 m 1
 406 848 l 1
 385 884 l 1
 627 1052 l 1
 657 990 l 1
72 405 m 2
 102 593 215 797 479 797 c 0
 673 797 741 671 742 591 c 1
 642 581 l 1
 640 642 590 724 468 724 c 0
 300 724 202 592 172 405 c 2
 167 373 l 2
 162 341 159 312 159 284 c 0
 159 146 222 54 362 54 c 0
 484 54 559 136 581 197 c 1
 678 187 l 1
 651 107 544 -19 350 -19 c 0
 130 -19 59 123 59 279 c 0
 59 310 62 342 67 373 c 2
 72 405 l 2
EndSplineSet
EndChar

StartChar: cacute
Encoding: 263 263 202
Width: 605
GlyphClass: 2
Flags: W
AnchorPoint: "LatinBelow.mark" 270 0 basechar 0
LayerCount: 2
Fore
SplineSet
553 840 m 1
 302 698 l 1
 281 734 l 1
 523 902 l 1
 553 840 l 1
48 287 m 2
 53 313 l 1
 75 455 160 618 369 618 c 0
 523 618 575 518 575 455 c 1
 484 447 l 1
 483 493 444 551 358 551 c 0
 241 551 168 456 145 313 c 1
 140 287 l 2
 136 263 134 240 134 219 c 0
 134 115 182 49 279 49 c 0
 365 49 422 107 437 153 c 1
 526 145 l 1
 506 82 422 -18 268 -18 c 0
 94 -18 42 94 42 214 c 0
 42 238 44 263 48 287 c 2
EndSplineSet
EndChar

StartChar: Ccircumflex
Encoding: 264 264 203
Width: 755
GlyphClass: 2
Flags: W
AnchorPoint: "LatinBelow.mark" 350 0 basechar 0
LayerCount: 2
Fore
SplineSet
300 863 m 1
 499 1012 l 1
 523 1012 l 1
 674 863 l 1
 641 832 l 1
 499 938 l 1
 323 832 l 1
 300 863 l 1
72 405 m 2
 102 593 215 797 479 797 c 0
 673 797 741 671 742 591 c 1
 642 581 l 1
 640 642 590 724 468 724 c 0
 300 724 202 592 172 405 c 2
 167 373 l 2
 162 341 159 312 159 284 c 0
 159 146 222 54 362 54 c 0
 484 54 559 136 581 197 c 1
 678 187 l 1
 651 107 544 -19 350 -19 c 0
 130 -19 59 123 59 279 c 0
 59 310 62 342 67 373 c 2
 72 405 l 2
EndSplineSet
EndChar

StartChar: ccircumflex
Encoding: 265 265 204
Width: 605
GlyphClass: 2
Flags: W
AnchorPoint: "LatinBelow.mark" 270 0 basechar 0
LayerCount: 2
Fore
SplineSet
196 713 m 1
 395 862 l 1
 419 862 l 1
 570 713 l 1
 537 682 l 1
 395 788 l 1
 219 682 l 1
 196 713 l 1
48 287 m 2
 53 313 l 1
 75 455 160 618 369 618 c 0
 523 618 575 518 575 455 c 1
 484 447 l 1
 483 493 444 551 358 551 c 0
 241 551 168 456 145 313 c 1
 140 287 l 2
 136 263 134 240 134 219 c 0
 134 115 182 49 279 49 c 0
 365 49 422 107 437 153 c 1
 526 145 l 1
 506 82 422 -18 268 -18 c 0
 94 -18 42 94 42 214 c 0
 42 238 44 263 48 287 c 2
EndSplineSet
EndChar

StartChar: Cdotaccent
Encoding: 266 266 205
Width: 755
GlyphClass: 2
Flags: W
AnchorPoint: "LatinBelow.mark" 350 0 basechar 0
LayerCount: 2
Fore
SplineSet
508 998 m 0
 545 998 571 977 571 942 c 0
 571 938 571 934 570 930 c 0
 563 888 528 862 487 862 c 0
 450 862 425 883 425 917 c 0
 425 921 425 926 426 930 c 0
 433 972 467 998 508 998 c 0
72 405 m 2
 102 593 215 797 479 797 c 0
 673 797 741 671 742 591 c 1
 642 581 l 1
 640 642 590 724 468 724 c 0
 300 724 202 592 172 405 c 2
 167 373 l 2
 162 341 159 312 159 284 c 0
 159 146 222 54 362 54 c 0
 484 54 559 136 581 197 c 1
 678 187 l 1
 651 107 544 -19 350 -19 c 0
 130 -19 59 123 59 279 c 0
 59 310 62 342 67 373 c 2
 72 405 l 2
EndSplineSet
EndChar

StartChar: cdotaccent
Encoding: 267 267 206
Width: 605
GlyphClass: 2
Flags: W
AnchorPoint: "LatinBelow.mark" 270 0 basechar 0
LayerCount: 2
Fore
SplineSet
404 848 m 0
 441 848 467 827 467 792 c 0
 467 788 467 784 466 780 c 0
 459 738 424 712 383 712 c 0
 346 712 321 733 321 767 c 0
 321 771 321 776 322 780 c 0
 329 822 363 848 404 848 c 0
48 287 m 2
 53 313 l 1
 75 455 160 618 369 618 c 0
 523 618 575 518 575 455 c 1
 484 447 l 1
 483 493 444 551 358 551 c 0
 241 551 168 456 145 313 c 1
 140 287 l 2
 136 263 134 240 134 219 c 0
 134 115 182 49 279 49 c 0
 365 49 422 107 437 153 c 1
 526 145 l 1
 506 82 422 -18 268 -18 c 0
 94 -18 42 94 42 214 c 0
 42 238 44 263 48 287 c 2
EndSplineSet
EndChar

StartChar: Ccaron
Encoding: 268 268 207
Width: 755
GlyphClass: 2
Flags: W
AnchorPoint: "LatinBelow.mark" 350 0 basechar 0
LayerCount: 2
Fore
SplineSet
694 992 m 1
 496 843 l 1
 472 843 l 1
 320 992 l 1
 353 1023 l 1
 495 917 l 1
 671 1023 l 1
 694 992 l 1
72 405 m 2
 102 593 215 797 479 797 c 0
 673 797 741 671 742 591 c 1
 642 581 l 1
 640 642 590 724 468 724 c 0
 300 724 202 592 172 405 c 2
 167 373 l 2
 162 341 159 312 159 284 c 0
 159 146 222 54 362 54 c 0
 484 54 559 136 581 197 c 1
 678 187 l 1
 651 107 544 -19 350 -19 c 0
 130 -19 59 123 59 279 c 0
 59 310 62 342 67 373 c 2
 72 405 l 2
EndSplineSet
EndChar

StartChar: ccaron
Encoding: 269 269 208
Width: 605
GlyphClass: 2
Flags: W
AnchorPoint: "LatinBelow.mark" 270 0 basechar 0
LayerCount: 2
Fore
SplineSet
590 842 m 1
 392 693 l 1
 368 693 l 1
 216 842 l 1
 249 873 l 1
 391 767 l 1
 567 873 l 1
 590 842 l 1
48 287 m 2
 53 313 l 1
 75 455 160 618 369 618 c 0
 523 618 575 518 575 455 c 1
 484 447 l 1
 483 493 444 551 358 551 c 0
 241 551 168 456 145 313 c 1
 140 287 l 2
 136 263 134 240 134 219 c 0
 134 115 182 49 279 49 c 0
 365 49 422 107 437 153 c 1
 526 145 l 1
 506 82 422 -18 268 -18 c 0
 94 -18 42 94 42 214 c 0
 42 238 44 263 48 287 c 2
EndSplineSet
EndChar

StartChar: Dcaron
Encoding: 270 270 209
Width: 770
GlyphClass: 2
Flags: W
AnchorPoint: "LatinBelow.mark" 260 0 basechar 0
LayerCount: 2
Fore
SplineSet
604 992 m 1
 406 843 l 1
 382 843 l 1
 230 992 l 1
 263 1023 l 1
 405 917 l 1
 581 1023 l 1
 604 992 l 1
143 64 m 1
 173 63 212 61 240 61 c 0
 474 61 579 195 607 374 c 2
 612 406 l 2
 616 432 618 457 618 481 c 0
 618 621 544 719 344 719 c 0
 316 719 276 717 246 716 c 1
 143 64 l 1
162 780 m 1
 162 780 271 789 355 789 c 0
 623 789 713 644 713 482 c 0
 713 457 711 431 707 406 c 2
 702 374 l 2
 672 184 538 -9 229 -9 c 0
 145 -9 38 0 38 0 c 1
 162 780 l 1
EndSplineSet
EndChar

StartChar: dcaron
Encoding: 271 271 210
Width: 890
GlyphClass: 2
Flags: W
AnchorPoint: "LatinBelow.mark" 300 0 basechar 0
AnchorPoint: "LatinAbove.mark" 494 180 basechar 0
LayerCount: 2
Fore
SplineSet
862 710 m 1
 852 705 840 703 828 703 c 0
 796 703 775 721 775 750 c 0
 775 754 775 757 776 761 c 0
 782 801 810 829 854 829 c 0
 906 829 923 794 923 757 c 0
 923 750 922 742 921 735 c 0
 906 640 830 581 775 559 c 1
 757 591 l 1
 796 607 844 649 862 710 c 1
48 288 m 2
 51 312 l 1
 73 454 163 613 349 613 c 0
 437 613 487 561 514 500 c 1
 563 810 l 1
 650 810 l 1
 544 137 l 2
 542 125 541 114 541 105 c 0
 541 68 558 52 599 47 c 1
 568 -13 l 1
 524 -7 463 15 463 94 c 0
 463 100 463 107 464 114 c 1
 415 47 344 -13 250 -13 c 0
 94 -13 42 99 42 218 c 0
 42 241 44 265 48 288 c 2
495 378 m 1
 489 460 448 546 348 546 c 0
 236 546 164 456 141 312 c 1
 138 288 l 2
 134 263 132 240 132 219 c 0
 132 116 178 54 271 54 c 0
 371 54 438 140 470 222 c 1
 495 378 l 1
EndSplineSet
EndChar

StartChar: Dcroat
Encoding: 272 272 211
Width: 770
GlyphClass: 2
Flags: W
AnchorPoint: "LatinBelow.mark" 260 0 basechar 0
AnchorPoint: "LatinAbove.mark" 284 150 basechar 0
LayerCount: 2
Fore
SplineSet
10 363 m 1
 19 417 l 1
 104 417 l 1
 162 780 l 1
 162 780 271 789 355 789 c 0
 623 789 713 644 713 482 c 0
 713 457 711 431 707 406 c 2
 702 374 l 2
 672 184 538 -9 229 -9 c 0
 145 -9 38 0 38 0 c 1
 95 363 l 1
 10 363 l 1
143 64 m 1
 173 63 212 61 240 61 c 0
 474 61 579 195 607 374 c 2
 612 406 l 2
 616 432 618 457 618 481 c 0
 618 621 544 719 344 719 c 0
 316 719 276 717 246 716 c 1
 199 417 l 1
 409 417 l 1
 400 363 l 1
 190 363 l 1
 143 64 l 1
EndSplineSet
EndChar

StartChar: dcroat
Encoding: 273 273 212
Width: 680
GlyphClass: 2
Flags: W
AnchorPoint: "LatinBelow.mark" 300 0 basechar 0
AnchorPoint: "LatinAbove.mark" 494 180 basechar 0
LayerCount: 2
Fore
SplineSet
372 693 m 1
 380 747 l 1
 553 747 l 1
 563 810 l 1
 650 810 l 1
 640 747 l 1
 710 747 l 1
 702 693 l 1
 632 693 l 1
 544 137 l 2
 542 125 541 114 541 105 c 0
 541 68 558 52 599 47 c 1
 568 -13 l 1
 524 -7 463 15 463 94 c 0
 463 100 463 107 464 114 c 1
 415 47 344 -13 250 -13 c 0
 94 -13 42 99 42 218 c 0
 42 241 44 265 48 288 c 2
 51 312 l 1
 73 454 163 613 349 613 c 0
 437 613 487 561 514 500 c 1
 545 693 l 1
 372 693 l 1
495 378 m 1
 489 460 448 546 348 546 c 0
 236 546 164 456 141 312 c 1
 138 288 l 2
 134 263 132 240 132 219 c 0
 132 116 178 54 271 54 c 0
 371 54 438 140 470 222 c 1
 495 378 l 1
EndSplineSet
EndChar

StartChar: Emacron
Encoding: 274 274 213
Width: 675
GlyphClass: 2
Flags: W
AnchorPoint: "LatinBelow.mark" 290 0 basechar 0
AnchorPoint: "LatinAbove.mark" 342 330 basechar 0
LayerCount: 2
Fore
SplineSet
246 900 m 1
 255 960 l 1
 629 960 l 1
 620 900 l 1
 246 900 l 1
38 0 m 1
 162 780 l 1
 662 780 l 1
 650 706 l 1
 246 706 l 1
 201 420 l 1
 571 420 l 1
 559 350 l 1
 189 350 l 1
 146 74 l 1
 565 74 l 1
 553 0 l 1
 38 0 l 1
EndSplineSet
EndChar

StartChar: emacron
Encoding: 275 275 214
Width: 640
GlyphClass: 2
Flags: W
AnchorPoint: "LatinBelow.mark" 270 0 basechar 0
AnchorPoint: "LatinAbove.mark" 299 180 basechar 0
LayerCount: 2
Fore
SplineSet
202 750 m 1
 211 810 l 1
 585 810 l 1
 576 750 l 1
 202 750 l 1
48 286 m 2
 53 314 l 2
 75 456 162 618 365 618 c 0
 511 618 579 524 579 410 c 0
 579 394 578 378 575 362 c 0
 571 337 565 311 556 286 c 1
 136 286 l 1
 132 261 130 239 130 217 c 0
 130 114 175 47 274 47 c 0
 364 47 422 107 437 153 c 1
 523 145 l 1
 502 81 416 -18 264 -18 c 0
 93 -18 42 93 42 212 c 0
 42 237 44 262 48 286 c 2
146 344 m 1
 487 344 l 1
 488 351 489 357 490 363 c 0
 493 380 494 395 494 410 c 0
 494 504 440 554 355 554 c 0
 245 554 174 470 146 344 c 1
EndSplineSet
EndChar

StartChar: Ebreve
Encoding: 276 276 215
Width: 675
GlyphClass: 2
Flags: W
AnchorPoint: "LatinBelow.mark" 290 0 basechar 0
AnchorPoint: "LatinAbove.mark" 342 330 basechar 0
LayerCount: 2
Fore
SplineSet
260 988 m 1
 320 1007 l 1
 324 959 346 905 434 905 c 0
 522 905 560 959 580 1007 c 1
 634 988 l 1
 605 920 541 847 424 847 c 0
 307 847 267 920 260 988 c 1
38 0 m 1
 162 780 l 1
 662 780 l 1
 650 706 l 1
 246 706 l 1
 201 420 l 1
 571 420 l 1
 559 350 l 1
 189 350 l 1
 146 74 l 1
 565 74 l 1
 553 0 l 1
 38 0 l 1
EndSplineSet
EndChar

StartChar: ebreve
Encoding: 277 277 216
Width: 640
GlyphClass: 2
Flags: W
AnchorPoint: "LatinBelow.mark" 270 0 basechar 0
AnchorPoint: "LatinAbove.mark" 299 180 basechar 0
LayerCount: 2
Fore
SplineSet
216 838 m 1
 276 857 l 1
 280 809 302 755 390 755 c 0
 478 755 516 809 536 857 c 1
 590 838 l 1
 561 770 497 697 380 697 c 0
 263 697 223 770 216 838 c 1
48 286 m 2
 53 314 l 2
 75 456 162 618 365 618 c 0
 511 618 579 524 579 410 c 0
 579 394 578 378 575 362 c 0
 571 337 565 311 556 286 c 1
 136 286 l 1
 132 261 130 239 130 217 c 0
 130 114 175 47 274 47 c 0
 364 47 422 107 437 153 c 1
 523 145 l 1
 502 81 416 -18 264 -18 c 0
 93 -18 42 93 42 212 c 0
 42 237 44 262 48 286 c 2
146 344 m 1
 487 344 l 1
 488 351 489 357 490 363 c 0
 493 380 494 395 494 410 c 0
 494 504 440 554 355 554 c 0
 245 554 174 470 146 344 c 1
EndSplineSet
EndChar

StartChar: Edotaccent
Encoding: 278 278 217
Width: 675
GlyphClass: 2
Flags: W
AnchorPoint: "LatinBelow.mark" 290 0 basechar 0
AnchorPoint: "LatinAbove.mark" 342 330 basechar 0
LayerCount: 2
Fore
SplineSet
448 998 m 0
 485 998 511 977 511 942 c 0
 511 938 511 934 510 930 c 0
 503 888 468 862 427 862 c 0
 390 862 365 883 365 917 c 0
 365 921 365 926 366 930 c 0
 373 972 407 998 448 998 c 0
38 0 m 1
 162 780 l 1
 662 780 l 1
 650 706 l 1
 246 706 l 1
 201 420 l 1
 571 420 l 1
 559 350 l 1
 189 350 l 1
 146 74 l 1
 565 74 l 1
 553 0 l 1
 38 0 l 1
EndSplineSet
EndChar

StartChar: edotaccent
Encoding: 279 279 218
Width: 640
GlyphClass: 2
Flags: W
AnchorPoint: "LatinBelow.mark" 270 0 basechar 0
AnchorPoint: "LatinAbove.mark" 299 180 basechar 0
LayerCount: 2
Fore
SplineSet
404 848 m 0
 441 848 467 827 467 792 c 0
 467 788 467 784 466 780 c 0
 459 738 424 712 383 712 c 0
 346 712 321 733 321 767 c 0
 321 771 321 776 322 780 c 0
 329 822 363 848 404 848 c 0
48 286 m 2
 53 314 l 2
 75 456 162 618 365 618 c 0
 511 618 579 524 579 410 c 0
 579 394 578 378 575 362 c 0
 571 337 565 311 556 286 c 1
 136 286 l 1
 132 261 130 239 130 217 c 0
 130 114 175 47 274 47 c 0
 364 47 422 107 437 153 c 1
 523 145 l 1
 502 81 416 -18 264 -18 c 0
 93 -18 42 93 42 212 c 0
 42 237 44 262 48 286 c 2
146 344 m 1
 487 344 l 1
 488 351 489 357 490 363 c 0
 493 380 494 395 494 410 c 0
 494 504 440 554 355 554 c 0
 245 554 174 470 146 344 c 1
EndSplineSet
EndChar

StartChar: Eogonek
Encoding: 280 280 219
Width: 675
GlyphClass: 2
Flags: W
AnchorPoint: "LatinAbove.mark" 314 150 basechar 0
LayerCount: 2
Fore
SplineSet
38 0 m 1
 162 780 l 1
 662 780 l 1
 650 706 l 1
 246 706 l 1
 201 420 l 1
 571 420 l 1
 559 350 l 1
 189 350 l 1
 146 74 l 1
 565 74 l 1
 553 0 l 1
 516 0 l 1
 484 -32 456 -75 446 -135 c 0
 445 -142 444 -147 444 -153 c 0
 444 -189 466 -204 495 -204 c 0
 523 -204 548 -195 561 -188 c 1
 570 -232 l 1
 543 -245 513 -252 477 -252 c 0
 414 -252 383 -217 383 -165 c 0
 383 -158 384 -150 385 -142 c 0
 395 -81 426 -36 461 0 c 1
 38 0 l 1
EndSplineSet
EndChar

StartChar: eogonek
Encoding: 281 281 220
Width: 640
GlyphClass: 2
Flags: W
AnchorPoint: "LatinAbove.mark" 270 0 basechar 0
LayerCount: 2
Fore
SplineSet
146 344 m 1
 487 344 l 1
 488 351 489 357 490 363 c 0
 493 380 494 395 494 410 c 0
 494 504 440 554 355 554 c 0
 245 554 174 470 146 344 c 1
48 286 m 2
 53 314 l 2
 75 456 162 618 365 618 c 0
 511 618 579 524 579 410 c 0
 579 394 578 378 575 362 c 0
 571 337 565 311 556 286 c 1
 136 286 l 1
 132 261 130 239 130 217 c 0
 130 114 175 47 274 47 c 0
 364 47 422 107 437 153 c 1
 523 145 l 1
 509 101 463 42 389 8 c 1
 354 -26 321 -70 311 -135 c 0
 310 -142 309 -147 309 -153 c 0
 309 -189 331 -204 360 -204 c 0
 388 -204 413 -195 426 -188 c 1
 435 -232 l 1
 408 -245 378 -252 342 -252 c 0
 279 -252 248 -217 248 -165 c 0
 248 -158 249 -150 250 -142 c 0
 258 -89 284 -47 313 -14 c 1
 298 -16 281 -18 264 -18 c 0
 93 -18 42 93 42 212 c 0
 42 237 44 262 48 286 c 2
EndSplineSet
EndChar

StartChar: Ecaron
Encoding: 282 282 221
Width: 675
GlyphClass: 2
Flags: W
AnchorPoint: "LatinBelow.mark" 290 0 basechar 0
AnchorPoint: "LatinAbove.mark" 342 330 basechar 0
LayerCount: 2
Fore
SplineSet
634 992 m 1
 436 843 l 1
 412 843 l 1
 260 992 l 1
 293 1023 l 1
 435 917 l 1
 611 1023 l 1
 634 992 l 1
38 0 m 1
 162 780 l 1
 662 780 l 1
 650 706 l 1
 246 706 l 1
 201 420 l 1
 571 420 l 1
 559 350 l 1
 189 350 l 1
 146 74 l 1
 565 74 l 1
 553 0 l 1
 38 0 l 1
EndSplineSet
EndChar

StartChar: ecaron
Encoding: 283 283 222
Width: 640
GlyphClass: 2
Flags: W
AnchorPoint: "LatinBelow.mark" 270 0 basechar 0
AnchorPoint: "LatinAbove.mark" 299 180 basechar 0
LayerCount: 2
Fore
SplineSet
590 842 m 1
 392 693 l 1
 368 693 l 1
 216 842 l 1
 249 873 l 1
 391 767 l 1
 567 873 l 1
 590 842 l 1
48 286 m 2
 53 314 l 2
 75 456 162 618 365 618 c 0
 511 618 579 524 579 410 c 0
 579 394 578 378 575 362 c 0
 571 337 565 311 556 286 c 1
 136 286 l 1
 132 261 130 239 130 217 c 0
 130 114 175 47 274 47 c 0
 364 47 422 107 437 153 c 1
 523 145 l 1
 502 81 416 -18 264 -18 c 0
 93 -18 42 93 42 212 c 0
 42 237 44 262 48 286 c 2
146 344 m 1
 487 344 l 1
 488 351 489 357 490 363 c 0
 493 380 494 395 494 410 c 0
 494 504 440 554 355 554 c 0
 245 554 174 470 146 344 c 1
EndSplineSet
EndChar

StartChar: Gcircumflex
Encoding: 284 284 223
Width: 770
GlyphClass: 2
Flags: W
AnchorPoint: "LatinBelow.mark" 350 0 basechar 0
LayerCount: 2
Fore
SplineSet
300 863 m 1
 499 1012 l 1
 523 1012 l 1
 674 863 l 1
 641 832 l 1
 499 938 l 1
 323 832 l 1
 300 863 l 1
411 311 m 1
 422 379 l 1
 703 379 l 1
 665 138 l 1
 625 74 522 -18 350 -18 c 0
 130 -18 59 123 59 279 c 0
 59 310 62 342 67 373 c 2
 72 407 l 2
 102 595 215 798 479 798 c 0
 673 798 741 672 742 592 c 1
 643 583 l 1
 641 644 592 726 468 726 c 0
 298 726 200 596 170 407 c 2
 165 373 l 2
 160 341 157 311 157 283 c 0
 157 144 221 54 362 54 c 0
 480 54 544 103 579 147 c 1
 605 311 l 1
 411 311 l 1
EndSplineSet
EndChar

StartChar: gcircumflex
Encoding: 285 285 224
Width: 670
GlyphClass: 2
Flags: W
AnchorPoint: "LatinBelow.mark" 271 -180 basechar 0
LayerCount: 2
Fore
SplineSet
226 713 m 1
 425 862 l 1
 449 862 l 1
 600 713 l 1
 567 682 l 1
 425 788 l 1
 249 682 l 1
 226 713 l 1
52 315 m 0
 74 451 163 613 349 613 c 0
 439 613 489 557 516 493 c 1
 540 600 l 1
 617 600 l 1
 517 -31 l 2
 499 -146 394 -228 252 -228 c 0
 112 -228 47 -159 39 -113 c 1
 127 -90 l 1
 132 -118 170 -165 262 -165 c 0
 350 -165 418 -121 432 -31 c 2
 459 136 l 1
 412 72 344 17 255 17 c 0
 99 17 46 131 46 248 c 0
 46 271 48 293 52 315 c 0
494 375 m 1
 488 457 449 547 349 547 c 0
 237 547 164 453 142 315 c 0
 138 292 136 270 136 249 c 0
 136 148 182 83 275 83 c 0
 375 83 443 173 475 255 c 1
 494 375 l 1
EndSplineSet
MultipleSubs2: "Latin.g.decomp subtable" g.alt uni0302
EndChar

StartChar: Gbreve
Encoding: 286 286 225
Width: 770
GlyphClass: 2
Flags: W
AnchorPoint: "LatinBelow.mark" 350 0 basechar 0
LayerCount: 2
Fore
SplineSet
320 988 m 1
 380 1007 l 1
 384 959 406 905 494 905 c 0
 582 905 620 959 640 1007 c 1
 694 988 l 1
 665 920 601 847 484 847 c 0
 367 847 327 920 320 988 c 1
411 311 m 1
 422 379 l 1
 703 379 l 1
 665 138 l 1
 625 74 522 -18 350 -18 c 0
 130 -18 59 123 59 279 c 0
 59 310 62 342 67 373 c 2
 72 407 l 2
 102 595 215 798 479 798 c 0
 673 798 741 672 742 592 c 1
 643 583 l 1
 641 644 592 726 468 726 c 0
 298 726 200 596 170 407 c 2
 165 373 l 2
 160 341 157 311 157 283 c 0
 157 144 221 54 362 54 c 0
 480 54 544 103 579 147 c 1
 605 311 l 1
 411 311 l 1
EndSplineSet
EndChar

StartChar: gbreve
Encoding: 287 287 226
Width: 670
GlyphClass: 2
Flags: W
AnchorPoint: "LatinBelow.mark" 271 -180 basechar 0
LayerCount: 2
Fore
SplineSet
246 838 m 1
 306 857 l 1
 310 809 332 755 420 755 c 0
 508 755 546 809 566 857 c 1
 620 838 l 1
 591 770 527 697 410 697 c 0
 293 697 253 770 246 838 c 1
52 315 m 0
 74 451 163 613 349 613 c 0
 439 613 489 557 516 493 c 1
 540 600 l 1
 617 600 l 1
 517 -31 l 2
 499 -146 394 -228 252 -228 c 0
 112 -228 47 -159 39 -113 c 1
 127 -90 l 1
 132 -118 170 -165 262 -165 c 0
 350 -165 418 -121 432 -31 c 2
 459 136 l 1
 412 72 344 17 255 17 c 0
 99 17 46 131 46 248 c 0
 46 271 48 293 52 315 c 0
494 375 m 1
 488 457 449 547 349 547 c 0
 237 547 164 453 142 315 c 0
 138 292 136 270 136 249 c 0
 136 148 182 83 275 83 c 0
 375 83 443 173 475 255 c 1
 494 375 l 1
EndSplineSet
MultipleSubs2: "Latin.g.decomp subtable" g.alt uni0306
EndChar

StartChar: Gdotaccent
Encoding: 288 288 227
Width: 770
GlyphClass: 2
Flags: W
AnchorPoint: "LatinBelow.mark" 350 0 basechar 0
LayerCount: 2
Fore
SplineSet
508 998 m 0
 545 998 571 977 571 942 c 0
 571 938 571 934 570 930 c 0
 563 888 528 862 487 862 c 0
 450 862 425 883 425 917 c 0
 425 921 425 926 426 930 c 0
 433 972 467 998 508 998 c 0
411 311 m 1
 422 379 l 1
 703 379 l 1
 665 138 l 1
 625 74 522 -18 350 -18 c 0
 130 -18 59 123 59 279 c 0
 59 310 62 342 67 373 c 2
 72 407 l 2
 102 595 215 798 479 798 c 0
 673 798 741 672 742 592 c 1
 643 583 l 1
 641 644 592 726 468 726 c 0
 298 726 200 596 170 407 c 2
 165 373 l 2
 160 341 157 311 157 283 c 0
 157 144 221 54 362 54 c 0
 480 54 544 103 579 147 c 1
 605 311 l 1
 411 311 l 1
EndSplineSet
EndChar

StartChar: gdotaccent
Encoding: 289 289 228
Width: 670
GlyphClass: 2
Flags: W
AnchorPoint: "LatinBelow.mark" 271 -180 basechar 0
LayerCount: 2
Fore
SplineSet
434 848 m 0
 471 848 497 827 497 792 c 0
 497 788 497 784 496 780 c 0
 489 738 454 712 413 712 c 0
 376 712 351 733 351 767 c 0
 351 771 351 776 352 780 c 0
 359 822 393 848 434 848 c 0
52 315 m 0
 74 451 163 613 349 613 c 0
 439 613 489 557 516 493 c 1
 540 600 l 1
 617 600 l 1
 517 -31 l 2
 499 -146 394 -228 252 -228 c 0
 112 -228 47 -159 39 -113 c 1
 127 -90 l 1
 132 -118 170 -165 262 -165 c 0
 350 -165 418 -121 432 -31 c 2
 459 136 l 1
 412 72 344 17 255 17 c 0
 99 17 46 131 46 248 c 0
 46 271 48 293 52 315 c 0
494 375 m 1
 488 457 449 547 349 547 c 0
 237 547 164 453 142 315 c 0
 138 292 136 270 136 249 c 0
 136 148 182 83 275 83 c 0
 375 83 443 173 475 255 c 1
 494 375 l 1
EndSplineSet
MultipleSubs2: "Latin.g.decomp subtable" g.alt uni0307
EndChar

StartChar: uni0122
Encoding: 290 290 229
Width: 770
GlyphClass: 2
Flags: W
AnchorPoint: "LatinAbove.mark" 374 150 basechar 0
LayerCount: 2
Fore
SplineSet
335 -190 m 1
 325 -195 313 -197 301 -197 c 0
 269 -197 247 -179 247 -150 c 0
 247 -146 247 -143 248 -139 c 0
 254 -99 283 -71 327 -71 c 0
 379 -71 396 -106 396 -143 c 0
 396 -150 395 -158 394 -165 c 0
 379 -260 302 -319 247 -341 c 1
 229 -309 l 1
 268 -293 317 -251 335 -190 c 1
411 311 m 1
 422 379 l 1
 703 379 l 1
 665 138 l 1
 625 74 522 -18 350 -18 c 0
 130 -18 59 123 59 279 c 0
 59 310 62 342 67 373 c 2
 72 407 l 2
 102 595 215 798 479 798 c 0
 673 798 741 672 742 592 c 1
 643 583 l 1
 641 644 592 726 468 726 c 0
 298 726 200 596 170 407 c 2
 165 373 l 2
 160 341 157 311 157 283 c 0
 157 144 221 54 362 54 c 0
 480 54 544 103 579 147 c 1
 605 311 l 1
 411 311 l 1
EndSplineSet
EndChar

StartChar: uni0123
Encoding: 291 291 230
Width: 670
GlyphClass: 2
Flags: W
AnchorPoint: "LatinBelow.mark" 271 -180 basechar 0
LayerCount: 2
Fore
SplineSet
415 820 m 1
 425 825 437 827 449 827 c 0
 481 827 503 809 503 780 c 0
 503 776 503 773 502 769 c 0
 496 729 467 701 423 701 c 0
 371 701 354 736 354 773 c 0
 354 780 355 788 356 795 c 0
 371 890 448 949 503 971 c 1
 521 939 l 1
 482 923 433 881 415 820 c 1
52 315 m 0
 74 451 163 613 349 613 c 0
 439 613 489 557 516 493 c 1
 540 600 l 1
 617 600 l 1
 517 -31 l 2
 499 -146 394 -228 252 -228 c 0
 112 -228 47 -159 39 -113 c 1
 127 -90 l 1
 132 -118 170 -165 262 -165 c 0
 350 -165 418 -121 432 -31 c 2
 459 136 l 1
 412 72 344 17 255 17 c 0
 99 17 46 131 46 248 c 0
 46 271 48 293 52 315 c 0
494 375 m 1
 488 457 449 547 349 547 c 0
 237 547 164 453 142 315 c 0
 138 292 136 270 136 249 c 0
 136 148 182 83 275 83 c 0
 375 83 443 173 475 255 c 1
 494 375 l 1
EndSplineSet
MultipleSubs2: "Latin.g.decomp subtable" g.alt uni0312
EndChar

StartChar: Hcircumflex
Encoding: 292 292 231
Width: 790
GlyphClass: 2
Flags: W
AnchorPoint: "LatinBelow.mark" 335 0 basechar 0
LayerCount: 2
Fore
SplineSet
285 863 m 1
 484 1012 l 1
 508 1012 l 1
 659 863 l 1
 626 832 l 1
 484 938 l 1
 308 832 l 1
 285 863 l 1
37 0 m 1
 161 780 l 1
 257 780 l 1
 201 427 l 1
 605 427 l 1
 661 780 l 1
 757 780 l 1
 633 0 l 1
 537 0 l 1
 593 353 l 1
 189 353 l 1
 133 0 l 1
 37 0 l 1
EndSplineSet
EndChar

StartChar: hcircumflex
Encoding: 293 293 232
Width: 665
GlyphClass: 2
Flags: W
AnchorPoint: "LatinBelow.mark" 300 0 basechar 0
LayerCount: 2
Fore
SplineSet
30 893 m 1
 229 1042 l 1
 253 1042 l 1
 404 893 l 1
 371 862 l 1
 229 968 l 1
 53 862 l 1
 30 893 l 1
33 0 m 1
 161 810 l 1
 249 810 l 1
 190 433 l 1
 246 524 335 613 453 613 c 0
 555 613 598 548 598 463 c 0
 598 449 597 435 595 421 c 2
 528 0 l 1
 438 0 l 1
 504 418 l 2
 506 430 507 441 507 451 c 0
 507 515 471 541 419 541 c 0
 310 541 206 412 171 301 c 1
 123 0 l 1
 33 0 l 1
EndSplineSet
EndChar

StartChar: Hbar
Encoding: 294 294 233
Width: 790
GlyphClass: 2
Flags: W
AnchorPoint: "LatinBelow.mark" 335 0 basechar 0
AnchorPoint: "LatinAbove.mark" 359 150 basechar 0
LayerCount: 2
Fore
SplineSet
67 633 m 1
 76 687 l 1
 146 687 l 1
 161 780 l 1
 257 780 l 1
 242 687 l 1
 646 687 l 1
 661 780 l 1
 757 780 l 1
 742 687 l 1
 812 687 l 1
 803 633 l 1
 733 633 l 1
 633 0 l 1
 537 0 l 1
 593 353 l 1
 189 353 l 1
 133 0 l 1
 37 0 l 1
 137 633 l 1
 67 633 l 1
637 633 m 1
 233 633 l 1
 201 427 l 1
 605 427 l 1
 637 633 l 1
EndSplineSet
EndChar

StartChar: hbar
Encoding: 295 295 234
Width: 665
GlyphClass: 2
Flags: W
AnchorPoint: "LatinBelow.mark" 300 0 basechar 0
LayerCount: 2
Fore
SplineSet
73 693 m 1
 81 747 l 1
 151 747 l 1
 161 810 l 1
 249 810 l 1
 239 747 l 1
 411 747 l 1
 403 693 l 1
 231 693 l 1
 190 433 l 1
 246 524 335 613 453 613 c 0
 555 613 598 548 598 463 c 0
 598 449 597 435 595 421 c 2
 528 0 l 1
 438 0 l 1
 504 418 l 2
 506 430 507 441 507 451 c 0
 507 515 471 541 419 541 c 0
 310 541 206 412 171 301 c 1
 123 0 l 1
 33 0 l 1
 143 693 l 1
 73 693 l 1
EndSplineSet
EndChar

StartChar: Itilde
Encoding: 296 296 235
Width: 320
GlyphClass: 2
Flags: W
AnchorPoint: "LatinBelow.mark" 100 0 basechar 0
AnchorPoint: "LatinAbove.mark" 152 330 basechar 0
LayerCount: 2
Fore
SplineSet
54 887 m 1
 82 938 120 1007 184 1007 c 0
 234 1007 256 976 275 955 c 0
 293 934 305 913 324 913 c 0
 356 913 385 974 399 1000 c 1
 443 983 l 1
 417 931 377 863 314 863 c 0
 264 863 241 894 222 915 c 0
 204 936 193 957 174 957 c 0
 142 957 113 896 99 870 c 1
 54 887 l 1
52 0 m 1
 176 780 l 1
 272 780 l 1
 148 0 l 1
 52 0 l 1
EndSplineSet
EndChar

StartChar: itilde
Encoding: 297 297 236
Width: 300
GlyphClass: 2
Flags: W
AnchorPoint: "LatinBelow.mark" 90 0 basechar 0
AnchorPoint: "LatinAbove.mark" 119 180 basechar 0
LayerCount: 2
Fore
SplineSet
20 737 m 1
 48 788 86 857 150 857 c 0
 200 857 222 826 241 805 c 0
 259 784 271 763 290 763 c 0
 322 763 351 824 365 850 c 1
 409 833 l 1
 383 781 343 713 280 713 c 0
 230 713 207 744 188 765 c 0
 170 786 159 807 140 807 c 0
 108 807 79 746 65 720 c 1
 20 737 l 1
45 0 m 1
 140 600 l 1
 230 600 l 1
 135 0 l 1
 45 0 l 1
EndSplineSet
EndChar

StartChar: Imacron
Encoding: 298 298 237
Width: 320
GlyphClass: 2
Flags: W
AnchorPoint: "LatinBelow.mark" 100 0 basechar 0
AnchorPoint: "LatinAbove.mark" 152 330 basechar 0
LayerCount: 2
Fore
SplineSet
56 900 m 1
 65 960 l 1
 439 960 l 1
 430 900 l 1
 56 900 l 1
52 0 m 1
 176 780 l 1
 272 780 l 1
 148 0 l 1
 52 0 l 1
EndSplineSet
EndChar

StartChar: imacron
Encoding: 299 299 238
Width: 300
GlyphClass: 2
Flags: W
AnchorPoint: "LatinBelow.mark" 90 0 basechar 0
AnchorPoint: "LatinAbove.mark" 119 180 basechar 0
LayerCount: 2
Fore
SplineSet
22 750 m 1
 31 810 l 1
 405 810 l 1
 396 750 l 1
 22 750 l 1
45 0 m 1
 140 600 l 1
 230 600 l 1
 135 0 l 1
 45 0 l 1
EndSplineSet
EndChar

StartChar: Ibreve
Encoding: 300 300 239
Width: 320
GlyphClass: 2
Flags: W
LayerCount: 2
Fore
SplineSet
70 988 m 1
 130 1007 l 1
 134 959 156 905 244 905 c 0
 332 905 370 959 390 1007 c 1
 444 988 l 1
 415 920 351 847 234 847 c 0
 117 847 77 920 70 988 c 1
52 0 m 1
 176 780 l 1
 272 780 l 1
 148 0 l 1
 52 0 l 1
EndSplineSet
EndChar

StartChar: ibreve
Encoding: 301 301 240
Width: 300
GlyphClass: 2
Flags: W
LayerCount: 2
Fore
SplineSet
36 838 m 1
 96 857 l 1
 100 809 122 755 210 755 c 0
 298 755 336 809 356 857 c 1
 410 838 l 1
 381 770 317 697 200 697 c 0
 83 697 43 770 36 838 c 1
45 0 m 1
 140 600 l 1
 230 600 l 1
 135 0 l 1
 45 0 l 1
EndSplineSet
EndChar

StartChar: Iogonek
Encoding: 302 302 241
Width: 320
GlyphClass: 2
Flags: W
AnchorPoint: "LatinAbove.mark" 124 150 basechar 0
LayerCount: 2
Fore
SplineSet
52 0 m 1
 176 780 l 1
 272 780 l 1
 148 0 l 1
 136 0 l 1
 104 -32 76 -75 66 -135 c 0
 65 -142 64 -147 64 -153 c 0
 64 -189 86 -204 115 -204 c 0
 143 -204 168 -195 181 -188 c 1
 190 -232 l 1
 163 -245 133 -252 97 -252 c 0
 34 -252 3 -217 3 -165 c 0
 3 -158 4 -150 5 -142 c 0
 15 -81 46 -36 81 0 c 1
 52 0 l 1
EndSplineSet
EndChar

StartChar: iogonek
Encoding: 303 303 242
Width: 300
GlyphClass: 2
Flags: W
AnchorPoint: "LatinAbove.mark" 119 180 basechar 0
LayerCount: 2
Fore
SplineSet
224 848 m 0
 261 848 287 827 287 792 c 0
 287 788 287 784 286 780 c 0
 279 738 244 712 203 712 c 0
 166 712 141 733 141 767 c 0
 141 771 141 776 142 780 c 0
 149 822 183 848 224 848 c 0
45 0 m 1
 140 600 l 1
 230 600 l 1
 135 0 l 1
 126 0 l 1
 94 -32 66 -75 56 -135 c 0
 55 -142 54 -147 54 -153 c 0
 54 -189 76 -204 105 -204 c 0
 133 -204 158 -195 171 -188 c 1
 180 -232 l 1
 153 -245 123 -252 87 -252 c 0
 24 -252 -7 -217 -7 -165 c 0
 -7 -158 -6 -150 -5 -142 c 0
 5 -81 36 -36 71 0 c 1
 45 0 l 1
EndSplineSet
EndChar

StartChar: Idotaccent
Encoding: 304 304 243
Width: 320
GlyphClass: 2
Flags: W
AnchorPoint: "LatinBelow.mark" 100 0 basechar 0
AnchorPoint: "LatinAbove.mark" 152 330 basechar 0
LayerCount: 2
Fore
SplineSet
52 0 m 1
 176 780 l 1
 272 780 l 1
 148 0 l 1
 52 0 l 1
258 998 m 0
 295 998 320 977 320 943 c 0
 320 939 320 934 319 930 c 0
 312 888 278 862 237 862 c 0
 200 862 174 883 174 918 c 0
 174 922 174 926 175 930 c 0
 182 972 217 998 258 998 c 0
EndSplineSet
EndChar

StartChar: dotlessi
Encoding: 305 305 244
Width: 300
GlyphClass: 2
Flags: W
AnchorPoint: "LatinOgonek.mark" 95 0 basechar 0
AnchorPoint: "LatinBelow.mark" 90 0 basechar 0
AnchorPoint: "LatinAbove.mark" 90 0 basechar 0
LayerCount: 2
Fore
SplineSet
45 0 m 1
 140 600 l 1
 230 600 l 1
 135 0 l 1
 45 0 l 1
EndSplineSet
EndChar

StartChar: Jcircumflex
Encoding: 308 308 245
Width: 520
GlyphClass: 2
Flags: W
AnchorPoint: "LatinBelow.mark" 170 0 basechar 0
LayerCount: 2
Fore
SplineSet
250 863 m 1
 449 1012 l 1
 473 1012 l 1
 624 863 l 1
 591 832 l 1
 449 938 l 1
 273 832 l 1
 250 863 l 1
-10 136 m 1
 87 143 l 1
 87 85 118 53 174 53 c 0
 230 53 281 84 293 162 c 2
 391 781 l 1
 487 781 l 1
 389 162 l 2
 373 63 288 -17 163 -17 c 0
 40 -17 -10 61 -10 134 c 2
 -10 136 l 1
EndSplineSet
EndChar

StartChar: jcircumflex
Encoding: 309 309 246
Width: 310
GlyphClass: 2
Flags: W
AnchorPoint: "LatinBelow.mark" 61 -180 basechar 0
AnchorPoint: "LatinAbove.mark" 119 180 basechar 0
LayerCount: 2
Fore
SplineSet
26 713 m 1
 225 862 l 1
 249 862 l 1
 400 713 l 1
 367 682 l 1
 225 788 l 1
 49 682 l 1
 26 713 l 1
-85 -164 m 1
 -12 -140 40 -102 53 -19 c 2
 151 600 l 1
 241 600 l 1
 142 -24 l 2
 125 -133 32 -195 -66 -223 c 1
 -85 -164 l 1
EndSplineSet
EndChar

StartChar: uni0136
Encoding: 310 310 247
Width: 715
GlyphClass: 2
Flags: W
LayerCount: 2
Fore
SplineSet
285 -190 m 1
 275 -195 263 -197 251 -197 c 0
 219 -197 197 -179 197 -150 c 0
 197 -146 197 -143 198 -139 c 0
 204 -99 233 -71 277 -71 c 0
 329 -71 346 -106 346 -143 c 0
 346 -150 345 -158 344 -165 c 0
 329 -260 252 -319 197 -341 c 1
 179 -309 l 1
 218 -293 267 -251 285 -190 c 1
37 0 m 1
 161 780 l 1
 253 780 l 1
 189 378 l 1
 612 780 l 1
 716 772 l 1
 716 768 l 1
 367 452 l 1
 643 5 l 1
 642 0 l 1
 529 0 l 1
 295 388 l 1
 173 276 l 1
 129 0 l 1
 37 0 l 1
EndSplineSet
EndChar

StartChar: uni0137
Encoding: 311 311 248
Width: 605
GlyphClass: 2
Flags: W
AnchorPoint: "LatinAbove.mark" 104 180 basechar 0
LayerCount: 2
Fore
SplineSet
285 -190 m 1
 275 -195 263 -197 251 -197 c 0
 219 -197 197 -179 197 -150 c 0
 197 -146 197 -143 198 -139 c 0
 204 -99 233 -71 277 -71 c 0
 329 -71 346 -106 346 -143 c 0
 346 -150 345 -158 344 -165 c 0
 329 -260 252 -319 197 -341 c 1
 179 -309 l 1
 218 -293 267 -251 285 -190 c 1
42 0 m 1
 170 810 l 1
 256 810 l 1
 176 305 l 1
 494 600 l 1
 591 594 l 1
 590 590 l 1
 315 345 l 1
 533 4 l 1
 532 0 l 1
 428 0 l 1
 248 287 l 1
 161 209 l 1
 128 0 l 1
 42 0 l 1
EndSplineSet
EndChar

StartChar: kgreenlandic
Encoding: 312 312 249
Width: 610
GlyphClass: 2
Flags: W
AnchorPoint: "LatinBelow.mark" 300 0 basechar 0
AnchorPoint: "LatinAbove.mark" 270 0 basechar 0
LayerCount: 2
Fore
SplineSet
42 0 m 1
 137 600 l 1
 223 600 l 1
 176 305 l 1
 494 600 l 1
 591 594 l 1
 590 590 l 1
 315 345 l 1
 533 4 l 1
 532 0 l 1
 428 0 l 1
 248 287 l 1
 161 209 l 1
 128 0 l 1
 42 0 l 1
EndSplineSet
EndChar

StartChar: Lacute
Encoding: 313 313 250
Width: 570
GlyphClass: 2
Flags: W
AnchorPoint: "LatinBelow.mark" 260 0 basechar 0
LayerCount: 2
Fore
SplineSet
407 990 m 1
 156 848 l 1
 135 884 l 1
 377 1052 l 1
 407 990 l 1
38 0 m 1
 162 780 l 1
 258 780 l 1
 146 74 l 1
 490 74 l 1
 478 0 l 1
 38 0 l 1
EndSplineSet
EndChar

StartChar: lacute
Encoding: 314 314 251
Width: 315
GlyphClass: 2
Flags: W
AnchorPoint: "LatinBelow.mark" 130 0 basechar 0
LayerCount: 2
Fore
SplineSet
392 1020 m 1
 141 878 l 1
 120 914 l 1
 362 1082 l 1
 392 1020 l 1
59 122 m 2
 168 810 l 1
 258 810 l 1
 151 130 l 2
 150 124 149 118 149 113 c 0
 149 67 187 52 247 47 c 1
 220 -13 l 1
 149 -7 57 12 57 99 c 0
 57 106 58 114 59 122 c 2
EndSplineSet
EndChar

StartChar: uni013B
Encoding: 315 315 252
Width: 570
GlyphClass: 2
Flags: W
AnchorPoint: "LatinAbove.mark" 124 150 basechar 0
LayerCount: 2
Fore
SplineSet
245 -190 m 1
 235 -195 223 -197 211 -197 c 0
 179 -197 157 -179 157 -150 c 0
 157 -146 157 -143 158 -139 c 0
 164 -99 193 -71 237 -71 c 0
 289 -71 306 -106 306 -143 c 0
 306 -150 305 -158 304 -165 c 0
 289 -260 212 -319 157 -341 c 1
 139 -309 l 1
 178 -293 227 -251 245 -190 c 1
38 0 m 1
 162 780 l 1
 258 780 l 1
 146 74 l 1
 490 74 l 1
 478 0 l 1
 38 0 l 1
EndSplineSet
EndChar

StartChar: uni013C
Encoding: 316 316 253
Width: 315
GlyphClass: 2
Flags: W
AnchorPoint: "LatinAbove.mark" 109 180 basechar 0
LayerCount: 2
Fore
SplineSet
115 -190 m 1
 105 -195 93 -197 81 -197 c 0
 49 -197 27 -179 27 -150 c 0
 27 -146 27 -143 28 -139 c 0
 34 -99 63 -71 107 -71 c 0
 159 -71 176 -106 176 -143 c 0
 176 -150 175 -158 174 -165 c 0
 159 -260 82 -319 27 -341 c 1
 9 -309 l 1
 48 -293 97 -251 115 -190 c 1
59 122 m 2
 168 810 l 1
 258 810 l 1
 151 130 l 2
 150 124 149 118 149 113 c 0
 149 67 187 52 247 47 c 1
 220 -13 l 1
 149 -7 57 12 57 99 c 0
 57 106 58 114 59 122 c 2
EndSplineSet
EndChar

StartChar: Lcaron
Encoding: 317 317 254
Width: 570
GlyphClass: 2
Flags: W
LayerCount: 2
Fore
SplineSet
38 0 m 1
 162 780 l 1
 258 780 l 1
 146 74 l 1
 490 74 l 1
 478 0 l 1
 38 0 l 1
512 710 m 1
 502 705 490 703 478 703 c 0
 446 703 425 721 425 750 c 0
 425 754 425 757 426 761 c 0
 432 801 460 829 504 829 c 0
 556 829 573 794 573 757 c 0
 573 750 572 742 571 735 c 0
 556 640 480 581 425 559 c 1
 407 591 l 1
 446 607 494 649 512 710 c 1
EndSplineSet
EndChar

StartChar: lcaron
Encoding: 318 318 255
Width: 525
GlyphClass: 2
Flags: W
LayerCount: 2
Fore
SplineSet
59 122 m 2
 168 810 l 1
 258 810 l 1
 151 130 l 2
 150 124 149 118 149 113 c 0
 149 67 187 52 247 47 c 1
 220 -13 l 1
 149 -7 57 12 57 99 c 0
 57 106 58 114 59 122 c 2
497 710 m 1
 487 705 475 703 463 703 c 0
 431 703 410 721 410 750 c 0
 410 754 410 757 411 761 c 0
 417 801 445 829 489 829 c 0
 541 829 558 794 558 757 c 0
 558 750 557 742 556 735 c 0
 541 640 465 581 410 559 c 1
 392 591 l 1
 431 607 479 649 497 710 c 1
EndSplineSet
EndChar

StartChar: Ldot
Encoding: 319 319 256
Width: 570
GlyphClass: 2
Flags: W
LayerCount: 2
Fore
SplineSet
38 0 m 1
 162 780 l 1
 258 780 l 1
 146 74 l 1
 490 74 l 1
 478 0 l 1
 38 0 l 1
443 428 m 0
 480 428 505 407 505 373 c 0
 505 369 505 364 504 360 c 0
 497 318 462 292 421 292 c 0
 384 292 359 313 359 347 c 0
 359 351 359 356 360 360 c 0
 367 402 402 428 443 428 c 0
EndSplineSet
EndChar

StartChar: ldot
Encoding: 320 320 257
Width: 510
GlyphClass: 2
Flags: W
LayerCount: 2
Fore
SplineSet
59 122 m 2
 168 810 l 1
 258 810 l 1
 151 130 l 2
 150 124 149 118 149 113 c 0
 149 67 187 52 247 47 c 1
 220 -13 l 1
 149 -7 57 12 57 99 c 0
 57 106 58 114 59 122 c 2
393 428 m 0
 430 428 455 407 455 373 c 0
 455 369 455 364 454 360 c 0
 447 318 412 292 371 292 c 0
 334 292 309 313 309 347 c 0
 309 351 309 356 310 360 c 0
 317 402 352 428 393 428 c 0
EndSplineSet
EndChar

StartChar: Lslash
Encoding: 321 321 258
Width: 580
GlyphClass: 2
Flags: W
LayerCount: 2
Fore
SplineSet
213 436 m 1
 370 528 l 1
 367 468 l 1
 203 371 l 1
 156 74 l 1
 500 74 l 1
 488 0 l 1
 48 0 l 1
 97 309 l 1
 0 252 l 1
 2 312 l 1
 107 374 l 1
 172 780 l 1
 268 780 l 1
 213 436 l 1
EndSplineSet
EndChar

StartChar: lslash
Encoding: 322 322 259
Width: 360
GlyphClass: 2
Flags: W
AnchorPoint: "LatinBelow.mark" 130 0 basechar 0
LayerCount: 2
Fore
SplineSet
208 432 m 1
 372 528 l 1
 369 468 l 1
 198 367 l 1
 161 130 l 2
 160 124 159 118 159 113 c 0
 159 67 197 52 257 47 c 1
 230 -13 l 1
 159 -7 67 12 67 99 c 0
 67 106 68 114 69 122 c 2
 99 309 l 1
 2 252 l 1
 4 312 l 1
 109 374 l 1
 178 810 l 1
 268 810 l 1
 208 432 l 1
EndSplineSet
EndChar

StartChar: Nacute
Encoding: 323 323 260
Width: 790
GlyphClass: 2
Flags: W
AnchorPoint: "LatinBelow.mark" 335 0 basechar 0
LayerCount: 2
Fore
SplineSet
642 990 m 1
 391 848 l 1
 370 884 l 1
 612 1052 l 1
 642 990 l 1
38 0 m 1
 160 771 l 1
 244 780 l 1
 563 152 l 1
 663 780 l 1
 756 780 l 1
 632 0 l 1
 550 0 l 1
 230 628 l 1
 131 0 l 1
 38 0 l 1
EndSplineSet
EndChar

StartChar: nacute
Encoding: 324 324 261
Width: 655
GlyphClass: 2
Flags: W
AnchorPoint: "LatinBelow.mark" 300 0 basechar 0
LayerCount: 2
Fore
SplineSet
553 840 m 1
 302 698 l 1
 281 734 l 1
 523 902 l 1
 553 840 l 1
32 0 m 1
 99 420 l 1
 116 595 l 1
 200 603 l 1
 189 438 l 1
 243 527 329 613 444 613 c 0
 543 613 587 548 587 463 c 0
 587 449 586 435 584 421 c 2
 517 0 l 1
 427 0 l 1
 493 418 l 2
 495 430 496 442 496 452 c 0
 496 515 460 541 411 541 c 0
 304 541 205 413 170 302 c 1
 122 0 l 1
 32 0 l 1
EndSplineSet
EndChar

StartChar: uni0145
Encoding: 325 325 262
Width: 790
GlyphClass: 2
Flags: W
AnchorPoint: "LatinAbove.mark" 359 150 basechar 0
LayerCount: 2
Fore
SplineSet
320 -190 m 1
 310 -195 298 -197 286 -197 c 0
 254 -197 232 -179 232 -150 c 0
 232 -146 232 -143 233 -139 c 0
 239 -99 268 -71 312 -71 c 0
 364 -71 381 -106 381 -143 c 0
 381 -150 380 -158 379 -165 c 0
 364 -260 287 -319 232 -341 c 1
 214 -309 l 1
 253 -293 302 -251 320 -190 c 1
38 0 m 1
 160 771 l 1
 244 780 l 1
 563 152 l 1
 663 780 l 1
 756 780 l 1
 632 0 l 1
 550 0 l 1
 230 628 l 1
 131 0 l 1
 38 0 l 1
EndSplineSet
EndChar

StartChar: uni0146
Encoding: 326 326 263
Width: 655
GlyphClass: 2
Flags: W
AnchorPoint: "LatinAbove.mark" 270 0 basechar 0
LayerCount: 2
Fore
SplineSet
285 -190 m 1
 275 -195 263 -197 251 -197 c 0
 219 -197 197 -179 197 -150 c 0
 197 -146 197 -143 198 -139 c 0
 204 -99 233 -71 277 -71 c 0
 329 -71 346 -106 346 -143 c 0
 346 -150 345 -158 344 -165 c 0
 329 -260 252 -319 197 -341 c 1
 179 -309 l 1
 218 -293 267 -251 285 -190 c 1
32 0 m 1
 99 420 l 1
 116 595 l 1
 200 603 l 1
 189 438 l 1
 243 527 329 613 444 613 c 0
 543 613 587 548 587 463 c 0
 587 449 586 435 584 421 c 2
 517 0 l 1
 427 0 l 1
 493 418 l 2
 495 430 496 442 496 452 c 0
 496 515 460 541 411 541 c 0
 304 541 205 413 170 302 c 1
 122 0 l 1
 32 0 l 1
EndSplineSet
EndChar

StartChar: Ncaron
Encoding: 327 327 264
Width: 790
GlyphClass: 2
Flags: W
AnchorPoint: "LatinBelow.mark" 335 0 basechar 0
LayerCount: 2
Fore
SplineSet
679 992 m 1
 481 843 l 1
 457 843 l 1
 305 992 l 1
 338 1023 l 1
 480 917 l 1
 656 1023 l 1
 679 992 l 1
38 0 m 1
 160 771 l 1
 244 780 l 1
 563 152 l 1
 663 780 l 1
 756 780 l 1
 632 0 l 1
 550 0 l 1
 230 628 l 1
 131 0 l 1
 38 0 l 1
EndSplineSet
EndChar

StartChar: ncaron
Encoding: 328 328 265
Width: 655
GlyphClass: 2
Flags: W
AnchorPoint: "LatinBelow.mark" 300 0 basechar 0
LayerCount: 2
Fore
SplineSet
590 842 m 1
 392 693 l 1
 368 693 l 1
 216 842 l 1
 249 873 l 1
 391 767 l 1
 567 873 l 1
 590 842 l 1
32 0 m 1
 99 420 l 1
 116 595 l 1
 200 603 l 1
 189 438 l 1
 243 527 329 613 444 613 c 0
 543 613 587 548 587 463 c 0
 587 449 586 435 584 421 c 2
 517 0 l 1
 427 0 l 1
 493 418 l 2
 495 430 496 442 496 452 c 0
 496 515 460 541 411 541 c 0
 304 541 205 413 170 302 c 1
 122 0 l 1
 32 0 l 1
EndSplineSet
EndChar

StartChar: napostrophe
Encoding: 329 329 266
Width: 865
GlyphClass: 2
Flags: W
LayerCount: 2
Fore
SplineSet
99 803 m 0
 105 844 138 873 182 873 c 0
 234 873 255 836 255 791 c 0
 255 783 254 774 253 765 c 0
 237 661 157 588 86 545 c 1
 64 584 l 1
 118 617 167 668 186 741 c 1
 178 738 169 737 159 737 c 0
 123 737 98 758 98 792 c 0
 98 796 98 799 99 803 c 0
242 0 m 1
 309 420 l 1
 326 595 l 1
 410 603 l 1
 399 438 l 1
 453 527 539 613 654 613 c 0
 753 613 797 548 797 463 c 0
 797 449 796 435 794 421 c 2
 727 0 l 1
 637 0 l 1
 703 418 l 2
 705 430 706 442 706 452 c 0
 706 515 670 541 621 541 c 0
 514 541 415 413 380 302 c 1
 332 0 l 1
 242 0 l 1
EndSplineSet
EndChar

StartChar: Omacron
Encoding: 332 332 267
Width: 820
GlyphClass: 2
Flags: W
AnchorPoint: "LatinBelow.mark" 350 0 basechar 0
AnchorPoint: "LatinAbove.mark" 402 330 basechar 0
LayerCount: 2
Fore
SplineSet
306 900 m 1
 315 960 l 1
 689 960 l 1
 680 900 l 1
 306 900 l 1
67 372 m 2
 73 408 l 2
 102 594 213 798 476 798 c 0
 695 798 765 656 765 501 c 0
 765 470 762 439 757 408 c 2
 751 372 l 2
 722 186 610 -18 347 -18 c 0
 128 -18 59 123 59 278 c 0
 59 309 62 341 67 372 c 2
359 54 m 0
 528 54 624 186 653 372 c 2
 659 408 l 2
 664 439 666 469 666 497 c 0
 666 634 605 726 465 726 c 0
 296 726 200 594 171 408 c 2
 165 372 l 2
 160 341 158 311 158 283 c 0
 158 146 219 54 359 54 c 0
EndSplineSet
EndChar

StartChar: omacron
Encoding: 333 333 268
Width: 660
GlyphClass: 2
Flags: W
AnchorPoint: "LatinBelow.mark" 270 0 basechar 0
AnchorPoint: "LatinAbove.mark" 299 180 basechar 0
LayerCount: 2
Fore
SplineSet
202 750 m 1
 211 810 l 1
 585 810 l 1
 576 750 l 1
 202 750 l 1
47 286 m 2
 52 314 l 2
 74 456 160 618 368 618 c 0
 541 618 594 506 594 386 c 0
 594 362 592 338 588 314 c 2
 583 286 l 2
 561 144 475 -18 267 -18 c 0
 94 -18 41 94 41 214 c 0
 41 238 43 262 47 286 c 2
278 48 m 0
 398 48 470 143 493 286 c 2
 498 314 l 2
 502 338 504 361 504 382 c 0
 504 486 457 552 357 552 c 0
 237 552 165 457 142 314 c 2
 137 286 l 2
 133 262 131 239 131 218 c 0
 131 114 178 48 278 48 c 0
EndSplineSet
EndChar

StartChar: Obreve
Encoding: 334 334 269
Width: 820
GlyphClass: 2
Flags: W
AnchorPoint: "LatinBelow.mark" 350 0 basechar 0
AnchorPoint: "LatinAbove.mark" 402 330 basechar 0
LayerCount: 2
Fore
SplineSet
320 988 m 1
 380 1007 l 1
 384 959 406 905 494 905 c 0
 582 905 620 959 640 1007 c 1
 694 988 l 1
 665 920 601 847 484 847 c 0
 367 847 327 920 320 988 c 1
67 372 m 2
 73 408 l 2
 102 594 213 798 476 798 c 0
 695 798 765 656 765 501 c 0
 765 470 762 439 757 408 c 2
 751 372 l 2
 722 186 610 -18 347 -18 c 0
 128 -18 59 123 59 278 c 0
 59 309 62 341 67 372 c 2
359 54 m 0
 528 54 624 186 653 372 c 2
 659 408 l 2
 664 439 666 469 666 497 c 0
 666 634 605 726 465 726 c 0
 296 726 200 594 171 408 c 2
 165 372 l 2
 160 341 158 311 158 283 c 0
 158 146 219 54 359 54 c 0
EndSplineSet
EndChar

StartChar: obreve
Encoding: 335 335 270
Width: 660
GlyphClass: 2
Flags: W
AnchorPoint: "LatinBelow.mark" 270 0 basechar 0
AnchorPoint: "LatinAbove.mark" 299 180 basechar 0
LayerCount: 2
Fore
SplineSet
216 838 m 1
 276 857 l 1
 280 809 302 755 390 755 c 0
 478 755 516 809 536 857 c 1
 590 838 l 1
 561 770 497 697 380 697 c 0
 263 697 223 770 216 838 c 1
47 286 m 2
 52 314 l 2
 74 456 160 618 368 618 c 0
 541 618 594 506 594 386 c 0
 594 362 592 338 588 314 c 2
 583 286 l 2
 561 144 475 -18 267 -18 c 0
 94 -18 41 94 41 214 c 0
 41 238 43 262 47 286 c 2
278 48 m 0
 398 48 470 143 493 286 c 2
 498 314 l 2
 502 338 504 361 504 382 c 0
 504 486 457 552 357 552 c 0
 237 552 165 457 142 314 c 2
 137 286 l 2
 133 262 131 239 131 218 c 0
 131 114 178 48 278 48 c 0
EndSplineSet
EndChar

StartChar: Ohungarumlaut
Encoding: 336 336 271
Width: 820
GlyphClass: 2
Flags: W
AnchorPoint: "LatinBelow.mark" 350 0 basechar 0
AnchorPoint: "LatinAbove.mark" 402 330 basechar 0
LayerCount: 2
Fore
SplineSet
331 873 m 1
 477 1062 l 1
 527 1022 l 1
 361 848 l 1
 331 873 l 1
534 873 m 1
 680 1062 l 1
 729 1022 l 1
 564 848 l 1
 534 873 l 1
67 372 m 2
 73 408 l 2
 102 594 213 798 476 798 c 0
 695 798 765 656 765 501 c 0
 765 470 762 439 757 408 c 2
 751 372 l 2
 722 186 610 -18 347 -18 c 0
 128 -18 59 123 59 278 c 0
 59 309 62 341 67 372 c 2
359 54 m 0
 528 54 624 186 653 372 c 2
 659 408 l 2
 664 439 666 469 666 497 c 0
 666 634 605 726 465 726 c 0
 296 726 200 594 171 408 c 2
 165 372 l 2
 160 341 158 311 158 283 c 0
 158 146 219 54 359 54 c 0
EndSplineSet
EndChar

StartChar: ohungarumlaut
Encoding: 337 337 272
Width: 660
GlyphClass: 2
Flags: W
AnchorPoint: "LatinBelow.mark" 270 0 basechar 0
AnchorPoint: "LatinAbove.mark" 299 180 basechar 0
LayerCount: 2
Fore
SplineSet
227 723 m 1
 373 912 l 1
 423 872 l 1
 257 698 l 1
 227 723 l 1
430 723 m 1
 576 912 l 1
 625 872 l 1
 460 698 l 1
 430 723 l 1
47 286 m 2
 52 314 l 2
 74 456 160 618 368 618 c 0
 541 618 594 506 594 386 c 0
 594 362 592 338 588 314 c 2
 583 286 l 2
 561 144 475 -18 267 -18 c 0
 94 -18 41 94 41 214 c 0
 41 238 43 262 47 286 c 2
278 48 m 0
 398 48 470 143 493 286 c 2
 498 314 l 2
 502 338 504 361 504 382 c 0
 504 486 457 552 357 552 c 0
 237 552 165 457 142 314 c 2
 137 286 l 2
 133 262 131 239 131 218 c 0
 131 114 178 48 278 48 c 0
EndSplineSet
EndChar

StartChar: OE
Encoding: 338 338 273
Width: 980
GlyphClass: 2
Flags: W
AnchorPoint: "LatinBelow.mark" 450 0 basechar 0
AnchorPoint: "LatinAbove.mark" 474 150 basechar 0
LayerCount: 2
Fore
SplineSet
67 372 m 2
 73 408 l 2
 102 594 213 798 476 798 c 0
 524 798 566 792 600 780 c 1
 967 780 l 1
 955 706 l 1
 611 706 l 1
 566 420 l 1
 876 420 l 1
 864 350 l 1
 554 350 l 1
 511 74 l 1
 870 74 l 1
 858 0 l 1
 476 0 l 1
 438 -12 395 -18 347 -18 c 0
 128 -18 59 123 59 278 c 0
 59 309 62 341 67 372 c 2
517 720 m 1
 502 724 484 726 465 726 c 0
 296 726 200 594 171 408 c 2
 165 372 l 2
 160 341 158 311 158 283 c 0
 158 146 219 54 359 54 c 0
 378 54 396 56 413 60 c 1
 517 720 l 1
EndSplineSet
EndChar

StartChar: oe
Encoding: 339 339 274
Width: 960
GlyphClass: 2
Flags: W
AnchorPoint: "LatinBelow.mark" 420 0 basechar 0
AnchorPoint: "LatinAbove.mark" 420 0 basechar 0
LayerCount: 2
Fore
SplineSet
48 286 m 2
 53 314 l 2
 75 452 147 618 331 618 c 0
 427 618 473 572 494 507 c 1
 539 572 607 618 702 618 c 0
 838 618 900 529 900 417 c 0
 900 399 898 381 895 362 c 0
 891 338 883 311 875 287 c 1
 876 286 l 1
 875 286 l 1
 496 286 l 1
 491 258 489 231 489 207 c 0
 489 108 528 46 611 46 c 0
 695 46 745 107 760 153 c 1
 847 145 l 1
 827 81 741 -18 601 -18 c 0
 505 -18 454 28 429 93 c 1
 388 29 325 -18 230 -18 c 0
 83 -18 41 87 41 200 c 0
 41 229 44 258 48 286 c 2
320 552 m 0
 228 552 166 460 143 314 c 2
 138 286 l 2
 133 257 131 230 131 205 c 0
 131 107 168 48 241 48 c 0
 331 48 390 140 413 286 c 2
 418 314 l 2
 423 345 425 373 425 399 c 0
 425 495 391 552 320 552 c 0
506 344 m 1
 807 344 l 1
 809 350 810 356 811 362 c 0
 814 380 815 398 815 414 c 0
 815 504 771 554 692 554 c 0
 600 554 533 470 506 344 c 1
EndSplineSet
EndChar

StartChar: Racute
Encoding: 340 340 275
Width: 730
GlyphClass: 2
Flags: W
AnchorPoint: "LatinBelow.mark" 300 0 basechar 0
LayerCount: 2
Fore
SplineSet
607 990 m 1
 356 848 l 1
 335 884 l 1
 577 1052 l 1
 607 990 l 1
196 402 m 1
 232 400 286 398 343 398 c 0
 471 398 579 443 597 559 c 0
 599 569 599 578 599 587 c 0
 599 683 511 720 394 720 c 0
 337 720 281 718 245 716 c 1
 196 402 l 1
310 329 m 1
 265 330 222 331 185 333 c 1
 132 0 l 1
 38 0 l 1
 92 338 l 1
 162 780 l 1
 190 782 303 789 415 789 c 0
 580 789 695 720 695 594 c 0
 695 583 694 571 692 559 c 0
 672 431 559 352 413 333 c 1
 634 5 l 1
 633 0 l 1
 525 0 l 1
 310 329 l 1
EndSplineSet
EndChar

StartChar: racute
Encoding: 341 341 276
Width: 435
GlyphClass: 2
Flags: W
AnchorPoint: "LatinBelow.mark" 110 0 basechar 0
LayerCount: 2
Fore
SplineSet
463 840 m 1
 212 698 l 1
 191 734 l 1
 433 902 l 1
 463 840 l 1
111 594 m 1
 189 603 l 1
 199 453 l 1
 236 535 297 613 394 613 c 0
 422 613 443 607 462 598 c 1
 416 524 l 1
 403 531 388 535 368 535 c 0
 280 535 222 428 194 327 c 1
 142 0 l 1
 52 0 l 1
 120 427 l 1
 111 594 l 1
EndSplineSet
EndChar

StartChar: uni0156
Encoding: 342 342 277
Width: 730
GlyphClass: 2
Flags: W
AnchorPoint: "LatinAbove.mark" 324 150 basechar 0
LayerCount: 2
Fore
SplineSet
285 -190 m 1
 275 -195 263 -197 251 -197 c 0
 219 -197 197 -179 197 -150 c 0
 197 -146 197 -143 198 -139 c 0
 204 -99 233 -71 277 -71 c 0
 329 -71 346 -106 346 -143 c 0
 346 -150 345 -158 344 -165 c 0
 329 -260 252 -319 197 -341 c 1
 179 -309 l 1
 218 -293 267 -251 285 -190 c 1
196 402 m 1
 232 400 286 398 343 398 c 0
 471 398 579 443 597 559 c 0
 599 569 599 578 599 587 c 0
 599 683 511 720 394 720 c 0
 337 720 281 718 245 716 c 1
 196 402 l 1
310 329 m 1
 265 330 222 331 185 333 c 1
 132 0 l 1
 38 0 l 1
 92 338 l 1
 162 780 l 1
 190 782 303 789 415 789 c 0
 580 789 695 720 695 594 c 0
 695 583 694 571 692 559 c 0
 672 431 559 352 413 333 c 1
 634 5 l 1
 633 0 l 1
 525 0 l 1
 310 329 l 1
EndSplineSet
EndChar

StartChar: uni0157
Encoding: 343 343 278
Width: 435
GlyphClass: 2
Flags: W
AnchorPoint: "LatinAbove.mark" 180 0 basechar 0
LayerCount: 2
Fore
SplineSet
95 -190 m 1
 85 -195 73 -197 61 -197 c 0
 29 -197 7 -179 7 -150 c 0
 7 -146 7 -143 8 -139 c 0
 14 -99 43 -71 87 -71 c 0
 139 -71 156 -106 156 -143 c 0
 156 -150 155 -158 154 -165 c 0
 139 -260 62 -319 7 -341 c 1
 -11 -309 l 1
 28 -293 77 -251 95 -190 c 1
111 594 m 1
 189 603 l 1
 199 453 l 1
 236 535 297 613 394 613 c 0
 422 613 443 607 462 598 c 1
 416 524 l 1
 403 531 388 535 368 535 c 0
 280 535 222 428 194 327 c 1
 142 0 l 1
 52 0 l 1
 120 427 l 1
 111 594 l 1
EndSplineSet
EndChar

StartChar: Rcaron
Encoding: 344 344 279
Width: 730
GlyphClass: 2
Flags: W
AnchorPoint: "LatinBelow.mark" 300 0 basechar 0
LayerCount: 2
Fore
SplineSet
644 992 m 1
 446 843 l 1
 422 843 l 1
 270 992 l 1
 303 1023 l 1
 445 917 l 1
 621 1023 l 1
 644 992 l 1
196 402 m 1
 232 400 286 398 343 398 c 0
 471 398 579 443 597 559 c 0
 599 569 599 578 599 587 c 0
 599 683 511 720 394 720 c 0
 337 720 281 718 245 716 c 1
 196 402 l 1
310 329 m 1
 265 330 222 331 185 333 c 1
 132 0 l 1
 38 0 l 1
 92 338 l 1
 162 780 l 1
 190 782 303 789 415 789 c 0
 580 789 695 720 695 594 c 0
 695 583 694 571 692 559 c 0
 672 431 559 352 413 333 c 1
 634 5 l 1
 633 0 l 1
 525 0 l 1
 310 329 l 1
EndSplineSet
EndChar

StartChar: rcaron
Encoding: 345 345 280
Width: 435
GlyphClass: 2
Flags: W
AnchorPoint: "LatinBelow.mark" 110 0 basechar 0
LayerCount: 2
Fore
SplineSet
500 842 m 1
 302 693 l 1
 278 693 l 1
 126 842 l 1
 159 873 l 1
 301 767 l 1
 477 873 l 1
 500 842 l 1
111 594 m 1
 189 603 l 1
 199 453 l 1
 236 535 297 613 394 613 c 0
 422 613 443 607 462 598 c 1
 416 524 l 1
 403 531 388 535 368 535 c 0
 280 535 222 428 194 327 c 1
 142 0 l 1
 52 0 l 1
 120 427 l 1
 111 594 l 1
EndSplineSet
EndChar

StartChar: Sacute
Encoding: 346 346 281
Width: 710
GlyphClass: 2
Flags: W
AnchorPoint: "LatinBelow.mark" 295 0 basechar 0
LayerCount: 2
Fore
SplineSet
602 990 m 1
 351 848 l 1
 330 884 l 1
 572 1052 l 1
 602 990 l 1
30 177 m 1
 126 190 l 1
 126 128 177 52 303 52 c 0
 434 52 511 109 525 197 c 0
 526 205 527 214 527 221 c 0
 527 286 478 314 438 327 c 0
 383 343 300 370 244 392 c 0
 184 416 111 463 111 554 c 0
 111 563 111 573 113 583 c 0
 133 707 257 798 421 798 c 0
 593 798 661 685 663 607 c 1
 566 594 l 1
 564 656 516 728 410 728 c 0
 298 728 220 672 207 587 c 0
 206 581 206 575 206 569 c 0
 206 512 253 487 298 469 c 0
 351 449 433 421 484 405 c 0
 550 383 622 334 622 236 c 0
 622 225 621 213 619 201 c 0
 599 75 476 -18 292 -18 c 0
 103 -18 32 97 30 177 c 1
EndSplineSet
EndChar

StartChar: sacute
Encoding: 347 347 282
Width: 570
GlyphClass: 2
Flags: W
AnchorPoint: "LatinBelow.mark" 225 0 basechar 0
LayerCount: 2
Fore
SplineSet
508 840 m 1
 257 698 l 1
 236 734 l 1
 478 902 l 1
 508 840 l 1
14 137 m 1
 103 147 l 1
 104 100 142 47 235 47 c 0
 327 47 385 89 395 153 c 0
 396 159 396 165 396 170 c 0
 396 218 358 240 329 249 c 0
 286 263 224 281 183 297 c 0
 135 315 77 351 77 424 c 0
 77 432 78 440 79 448 c 0
 95 546 190 618 322 618 c 0
 462 618 514 529 515 467 c 1
 426 455 l 1
 425 501 392 553 312 553 c 0
 232 553 175 514 165 451 c 0
 164 447 164 442 164 438 c 0
 164 396 200 374 231 363 c 0
 273 349 336 329 374 317 c 0
 428 300 484 264 484 185 c 0
 484 176 484 166 482 155 c 0
 466 56 365 -18 221 -18 c 0
 69 -18 16 73 14 137 c 1
EndSplineSet
EndChar

StartChar: Scircumflex
Encoding: 348 348 283
Width: 710
GlyphClass: 2
Flags: W
AnchorPoint: "LatinBelow.mark" 295 0 basechar 0
LayerCount: 2
Fore
SplineSet
245 863 m 1
 444 1012 l 1
 468 1012 l 1
 619 863 l 1
 586 832 l 1
 444 938 l 1
 268 832 l 1
 245 863 l 1
30 177 m 1
 126 190 l 1
 126 128 177 52 303 52 c 0
 434 52 511 109 525 197 c 0
 526 205 527 214 527 221 c 0
 527 286 478 314 438 327 c 0
 383 343 300 370 244 392 c 0
 184 416 111 463 111 554 c 0
 111 563 111 573 113 583 c 0
 133 707 257 798 421 798 c 0
 593 798 661 685 663 607 c 1
 566 594 l 1
 564 656 516 728 410 728 c 0
 298 728 220 672 207 587 c 0
 206 581 206 575 206 569 c 0
 206 512 253 487 298 469 c 0
 351 449 433 421 484 405 c 0
 550 383 622 334 622 236 c 0
 622 225 621 213 619 201 c 0
 599 75 476 -18 292 -18 c 0
 103 -18 32 97 30 177 c 1
EndSplineSet
EndChar

StartChar: scircumflex
Encoding: 349 349 284
Width: 570
GlyphClass: 2
Flags: W
AnchorPoint: "LatinBelow.mark" 225 0 basechar 0
LayerCount: 2
Fore
SplineSet
151 713 m 1
 350 862 l 1
 374 862 l 1
 525 713 l 1
 492 682 l 1
 350 788 l 1
 174 682 l 1
 151 713 l 1
14 137 m 1
 103 147 l 1
 104 100 142 47 235 47 c 0
 327 47 385 89 395 153 c 0
 396 159 396 165 396 170 c 0
 396 218 358 240 329 249 c 0
 286 263 224 281 183 297 c 0
 135 315 77 351 77 424 c 0
 77 432 78 440 79 448 c 0
 95 546 190 618 322 618 c 0
 462 618 514 529 515 467 c 1
 426 455 l 1
 425 501 392 553 312 553 c 0
 232 553 175 514 165 451 c 0
 164 447 164 442 164 438 c 0
 164 396 200 374 231 363 c 0
 273 349 336 329 374 317 c 0
 428 300 484 264 484 185 c 0
 484 176 484 166 482 155 c 0
 466 56 365 -18 221 -18 c 0
 69 -18 16 73 14 137 c 1
EndSplineSet
EndChar

StartChar: Scedilla
Encoding: 350 350 285
Width: 710
GlyphClass: 2
Flags: W
AnchorPoint: "LatinAbove.mark" 319 150 basechar 0
LayerCount: 2
Fore
SplineSet
185 -284 m 1
 252 -268 342 -240 352 -175 c 0
 352 -173 353 -170 353 -168 c 0
 353 -148 336 -130 284 -130 c 0
 268 -130 248 -133 237 -135 c 1
 213 -107 l 1
 277 -18 l 1
 100 -12 33 99 30 177 c 1
 126 190 l 1
 126 128 177 52 303 52 c 0
 434 52 511 109 525 197 c 0
 526 205 527 214 527 221 c 0
 527 286 478 314 438 327 c 0
 383 343 300 370 244 392 c 0
 184 416 111 463 111 554 c 0
 111 563 111 573 113 583 c 0
 133 707 257 798 421 798 c 0
 593 798 661 685 663 607 c 1
 566 594 l 1
 564 656 516 728 410 728 c 0
 298 728 220 672 207 587 c 0
 206 581 206 575 206 569 c 0
 206 512 253 487 298 469 c 0
 351 449 433 421 484 405 c 0
 550 383 622 334 622 236 c 0
 622 225 621 213 619 201 c 0
 600 84 493 -5 330 -17 c 1
 278 -89 l 1
 285 -88 293 -88 301 -88 c 0
 372 -88 413 -114 413 -161 c 0
 413 -166 413 -170 412 -175 c 0
 395 -283 248 -314 193 -328 c 1
 185 -284 l 1
EndSplineSet
Substitution2: "Latin.st.cedilla subtable" uni0218
EndChar

StartChar: scedilla
Encoding: 351 351 286
Width: 570
GlyphClass: 2
Flags: W
AnchorPoint: "LatinAbove.mark" 225 0 basechar 0
LayerCount: 2
Fore
SplineSet
115 -284 m 1
 182 -268 272 -240 282 -175 c 0
 282 -173 283 -170 283 -168 c 0
 283 -148 266 -130 214 -130 c 0
 198 -130 178 -133 167 -135 c 1
 143 -107 l 1
 207 -18 l 1
 66 -12 16 75 14 137 c 1
 103 147 l 1
 104 100 142 47 235 47 c 0
 327 47 385 89 395 153 c 0
 396 159 396 165 396 170 c 0
 396 218 358 240 329 249 c 0
 286 263 224 281 183 297 c 0
 135 315 77 351 77 424 c 0
 77 432 78 440 79 448 c 0
 95 546 190 618 322 618 c 0
 462 618 514 529 515 467 c 1
 426 455 l 1
 425 501 392 553 312 553 c 0
 232 553 175 514 165 451 c 0
 164 447 164 442 164 438 c 0
 164 396 200 374 231 363 c 0
 273 349 336 329 374 317 c 0
 428 300 484 264 484 185 c 0
 484 176 484 166 482 155 c 0
 468 65 383 -4 260 -16 c 1
 208 -89 l 1
 215 -88 223 -88 231 -88 c 0
 302 -88 343 -114 343 -161 c 0
 343 -166 343 -170 342 -175 c 0
 325 -283 178 -314 123 -328 c 1
 115 -284 l 1
EndSplineSet
Substitution2: "Latin.st.cedilla subtable" uni0219
EndChar

StartChar: Scaron
Encoding: 352 352 287
Width: 710
GlyphClass: 2
Flags: W
AnchorPoint: "LatinBelow.mark" 295 0 basechar 0
LayerCount: 2
Fore
SplineSet
639 992 m 1
 441 843 l 1
 417 843 l 1
 265 992 l 1
 298 1023 l 1
 440 917 l 1
 616 1023 l 1
 639 992 l 1
30 177 m 1
 126 190 l 1
 126 128 177 52 303 52 c 0
 434 52 511 109 525 197 c 0
 526 205 527 214 527 221 c 0
 527 286 478 314 438 327 c 0
 383 343 300 370 244 392 c 0
 184 416 111 463 111 554 c 0
 111 563 111 573 113 583 c 0
 133 707 257 798 421 798 c 0
 593 798 661 685 663 607 c 1
 566 594 l 1
 564 656 516 728 410 728 c 0
 298 728 220 672 207 587 c 0
 206 581 206 575 206 569 c 0
 206 512 253 487 298 469 c 0
 351 449 433 421 484 405 c 0
 550 383 622 334 622 236 c 0
 622 225 621 213 619 201 c 0
 599 75 476 -18 292 -18 c 0
 103 -18 32 97 30 177 c 1
EndSplineSet
EndChar

StartChar: scaron
Encoding: 353 353 288
Width: 570
GlyphClass: 2
Flags: W
AnchorPoint: "LatinBelow.mark" 225 0 basechar 0
LayerCount: 2
Fore
SplineSet
545 842 m 1
 347 693 l 1
 323 693 l 1
 171 842 l 1
 204 873 l 1
 346 767 l 1
 522 873 l 1
 545 842 l 1
14 137 m 1
 103 147 l 1
 104 100 142 47 235 47 c 0
 327 47 385 89 395 153 c 0
 396 159 396 165 396 170 c 0
 396 218 358 240 329 249 c 0
 286 263 224 281 183 297 c 0
 135 315 77 351 77 424 c 0
 77 432 78 440 79 448 c 0
 95 546 190 618 322 618 c 0
 462 618 514 529 515 467 c 1
 426 455 l 1
 425 501 392 553 312 553 c 0
 232 553 175 514 165 451 c 0
 164 447 164 442 164 438 c 0
 164 396 200 374 231 363 c 0
 273 349 336 329 374 317 c 0
 428 300 484 264 484 185 c 0
 484 176 484 166 482 155 c 0
 466 56 365 -18 221 -18 c 0
 69 -18 16 73 14 137 c 1
EndSplineSet
EndChar

StartChar: uni0162
Encoding: 354 354 289
Width: 620
GlyphClass: 2
Flags: W
AnchorPoint: "LatinAbove.mark" 274 150 basechar 0
LayerCount: 2
Fore
SplineSet
125 -284 m 1
 192 -268 282 -240 292 -175 c 0
 292 -173 293 -170 293 -168 c 0
 293 -148 276 -130 224 -130 c 0
 208 -130 188 -133 177 -135 c 1
 153 -107 l 1
 229 0 l 1
 202 0 l 1
 314 708 l 1
 89 708 l 1
 101 780 l 1
 647 780 l 1
 635 708 l 1
 410 708 l 1
 298 0 l 1
 282 0 l 1
 218 -89 l 1
 225 -88 233 -88 241 -88 c 0
 312 -88 353 -114 353 -161 c 0
 353 -166 353 -170 352 -175 c 0
 335 -283 188 -314 133 -328 c 1
 125 -284 l 1
EndSplineSet
Substitution2: "Latin.st.cedilla subtable" uni021A
EndChar

StartChar: uni0163
Encoding: 355 355 290
Width: 415
GlyphClass: 2
Flags: W
AnchorPoint: "LatinAbove.mark" 139 120 basechar 0
LayerCount: 2
Fore
SplineSet
75 -284 m 1
 142 -268 232 -240 242 -175 c 0
 242 -173 243 -170 243 -168 c 0
 243 -148 226 -130 174 -130 c 0
 158 -130 138 -133 127 -135 c 1
 103 -107 l 1
 172 -10 l 1
 119 -1 86 29 86 89 c 0
 86 99 87 109 89 121 c 2
 156 542 l 1
 61 542 l 1
 70 600 l 1
 168 600 l 1
 188 728 l 1
 275 735 l 1
 254 600 l 1
 410 600 l 1
 401 542 l 1
 246 542 l 1
 181 133 l 2
 179 121 178 111 178 102 c 0
 178 63 196 52 230 52 c 0
 274 52 318 69 336 79 c 1
 348 19 l 1
 321 4 275 -11 223 -13 c 1
 168 -89 l 1
 175 -88 183 -88 191 -88 c 0
 262 -88 303 -114 303 -161 c 0
 303 -166 303 -170 302 -175 c 0
 285 -283 138 -314 83 -328 c 1
 75 -284 l 1
EndSplineSet
Substitution2: "Latin.st.cedilla subtable" uni021B
EndChar

StartChar: Tcaron
Encoding: 356 356 291
Width: 620
GlyphClass: 2
Flags: W
AnchorPoint: "LatinBelow.mark" 250 0 basechar 0
LayerCount: 2
Fore
SplineSet
594 992 m 1
 396 843 l 1
 372 843 l 1
 220 992 l 1
 253 1023 l 1
 395 917 l 1
 571 1023 l 1
 594 992 l 1
89 708 m 1
 101 780 l 1
 647 780 l 1
 635 708 l 1
 410 708 l 1
 298 0 l 1
 202 0 l 1
 314 708 l 1
 89 708 l 1
EndSplineSet
EndChar

StartChar: tcaron
Encoding: 357 357 292
Width: 625
GlyphClass: 2
Flags: W
LayerCount: 2
Fore
SplineSet
61 542 m 1
 70 600 l 1
 168 600 l 1
 188 728 l 1
 275 735 l 1
 254 600 l 1
 410 600 l 1
 401 542 l 1
 246 542 l 1
 181 133 l 2
 179 121 178 111 178 102 c 0
 178 63 196 52 230 52 c 0
 274 52 318 69 336 79 c 1
 348 19 l 1
 318 3 267 -13 209 -13 c 0
 134 -13 86 16 86 89 c 0
 86 99 87 110 89 121 c 2
 156 542 l 1
 61 542 l 1
597 710 m 1
 587 705 575 703 563 703 c 0
 531 703 510 721 510 750 c 0
 510 754 510 757 511 761 c 0
 517 801 545 829 589 829 c 0
 641 829 658 794 658 757 c 0
 658 750 657 742 656 735 c 0
 641 640 565 581 510 559 c 1
 492 591 l 1
 531 607 579 649 597 710 c 1
EndSplineSet
EndChar

StartChar: Utilde
Encoding: 360 360 293
Width: 770
GlyphClass: 2
Flags: W
AnchorPoint: "LatinBelow.mark" 325 0 basechar 0
AnchorPoint: "LatinAbove.mark" 377 330 basechar 0
LayerCount: 2
Fore
SplineSet
279 887 m 1
 307 938 345 1007 409 1007 c 0
 459 1007 481 976 500 955 c 0
 518 934 530 913 549 913 c 0
 581 913 610 974 624 1000 c 1
 668 983 l 1
 642 931 602 863 539 863 c 0
 489 863 466 894 447 915 c 0
 429 936 418 957 399 957 c 0
 367 957 338 896 324 870 c 1
 279 887 l 1
64 236 m 2
 151 780 l 1
 247 780 l 1
 160 236 l 2
 158 224 157 212 157 201 c 0
 157 105 228 54 334 54 c 0
 452 54 545 118 564 236 c 2
 651 780 l 1
 747 780 l 1
 660 236 l 2
 637 90 502 -18 322 -18 c 0
 159 -18 61 71 61 196 c 0
 61 209 62 222 64 236 c 2
EndSplineSet
EndChar

StartChar: utilde
Encoding: 361 361 294
Width: 620
GlyphClass: 2
Flags: W
AnchorPoint: "LatinBelow.mark" 250 0 basechar 0
AnchorPoint: "LatinAbove.mark" 279 180 basechar 0
LayerCount: 2
Fore
SplineSet
180 737 m 1
 208 788 246 857 310 857 c 0
 360 857 382 826 401 805 c 0
 419 784 431 763 450 763 c 0
 482 763 511 824 525 850 c 1
 569 833 l 1
 543 781 503 713 440 713 c 0
 390 713 367 744 348 765 c 0
 330 786 319 807 300 807 c 0
 268 807 239 746 225 720 c 1
 180 737 l 1
41 184 m 2
 107 600 l 1
 197 600 l 1
 131 184 l 2
 130 175 129 165 129 157 c 0
 129 85 181 48 258 48 c 0
 344 48 413 94 427 184 c 2
 493 600 l 1
 583 600 l 1
 517 184 l 2
 499 69 393 -18 247 -18 c 0
 115 -18 38 53 38 152 c 0
 38 162 39 173 41 184 c 2
EndSplineSet
EndChar

StartChar: Umacron
Encoding: 362 362 295
Width: 770
GlyphClass: 2
Flags: W
AnchorPoint: "LatinBelow.mark" 325 0 basechar 0
AnchorPoint: "LatinAbove.mark" 377 330 basechar 0
LayerCount: 2
Fore
SplineSet
281 900 m 1
 290 960 l 1
 664 960 l 1
 655 900 l 1
 281 900 l 1
64 236 m 2
 151 780 l 1
 247 780 l 1
 160 236 l 2
 158 224 157 212 157 201 c 0
 157 105 228 54 334 54 c 0
 452 54 545 118 564 236 c 2
 651 780 l 1
 747 780 l 1
 660 236 l 2
 637 90 502 -18 322 -18 c 0
 159 -18 61 71 61 196 c 0
 61 209 62 222 64 236 c 2
EndSplineSet
EndChar

StartChar: umacron
Encoding: 363 363 296
Width: 620
GlyphClass: 2
Flags: W
AnchorPoint: "LatinBelow.mark" 250 0 basechar 0
AnchorPoint: "LatinAbove.mark" 279 180 basechar 0
LayerCount: 2
Fore
SplineSet
182 750 m 1
 191 810 l 1
 565 810 l 1
 556 750 l 1
 182 750 l 1
41 184 m 2
 107 600 l 1
 197 600 l 1
 131 184 l 2
 130 175 129 165 129 157 c 0
 129 85 181 48 258 48 c 0
 344 48 413 94 427 184 c 2
 493 600 l 1
 583 600 l 1
 517 184 l 2
 499 69 393 -18 247 -18 c 0
 115 -18 38 53 38 152 c 0
 38 162 39 173 41 184 c 2
EndSplineSet
EndChar

StartChar: Ubreve
Encoding: 364 364 297
Width: 770
GlyphClass: 2
Flags: W
AnchorPoint: "LatinBelow.mark" 325 0 basechar 0
AnchorPoint: "LatinAbove.mark" 377 330 basechar 0
LayerCount: 2
Fore
SplineSet
295 988 m 1
 355 1007 l 1
 359 959 381 905 469 905 c 0
 557 905 595 959 615 1007 c 1
 669 988 l 1
 640 920 576 847 459 847 c 0
 342 847 302 920 295 988 c 1
64 236 m 2
 151 780 l 1
 247 780 l 1
 160 236 l 2
 158 224 157 212 157 201 c 0
 157 105 228 54 334 54 c 0
 452 54 545 118 564 236 c 2
 651 780 l 1
 747 780 l 1
 660 236 l 2
 637 90 502 -18 322 -18 c 0
 159 -18 61 71 61 196 c 0
 61 209 62 222 64 236 c 2
EndSplineSet
EndChar

StartChar: ubreve
Encoding: 365 365 298
Width: 620
GlyphClass: 2
Flags: W
AnchorPoint: "LatinBelow.mark" 250 0 basechar 0
AnchorPoint: "LatinAbove.mark" 279 180 basechar 0
LayerCount: 2
Fore
SplineSet
196 838 m 1
 256 857 l 1
 260 809 282 755 370 755 c 0
 458 755 496 809 516 857 c 1
 570 838 l 1
 541 770 477 697 360 697 c 0
 243 697 203 770 196 838 c 1
41 184 m 2
 107 600 l 1
 197 600 l 1
 131 184 l 2
 130 175 129 165 129 157 c 0
 129 85 181 48 258 48 c 0
 344 48 413 94 427 184 c 2
 493 600 l 1
 583 600 l 1
 517 184 l 2
 499 69 393 -18 247 -18 c 0
 115 -18 38 53 38 152 c 0
 38 162 39 173 41 184 c 2
EndSplineSet
EndChar

StartChar: Uring
Encoding: 366 366 299
Width: 770
GlyphClass: 2
Flags: W
AnchorPoint: "LatinBelow.mark" 325 0 basechar 0
AnchorPoint: "LatinAbove.mark" 377 330 basechar 0
LayerCount: 2
Fore
SplineSet
453 807 m 0
 393 807 354 842 354 896 c 0
 354 902 354 909 355 915 c 0
 365 979 420 1023 487 1023 c 0
 547 1023 586 988 586 934 c 0
 586 928 586 921 585 915 c 0
 575 851 520 807 453 807 c 0
460 851 m 0
 500 851 530 877 536 915 c 0
 537 919 537 923 537 927 c 0
 537 958 516 979 480 979 c 0
 440 979 410 953 404 915 c 0
 403 911 403 907 403 903 c 0
 403 872 424 851 460 851 c 0
64 236 m 2
 151 780 l 1
 247 780 l 1
 160 236 l 2
 158 224 157 212 157 201 c 0
 157 105 228 54 334 54 c 0
 452 54 545 118 564 236 c 2
 651 780 l 1
 747 780 l 1
 660 236 l 2
 637 90 502 -18 322 -18 c 0
 159 -18 61 71 61 196 c 0
 61 209 62 222 64 236 c 2
EndSplineSet
EndChar

StartChar: uring
Encoding: 367 367 300
Width: 620
GlyphClass: 2
Flags: W
AnchorPoint: "LatinBelow.mark" 250 0 basechar 0
AnchorPoint: "LatinAbove.mark" 279 180 basechar 0
LayerCount: 2
Fore
SplineSet
354 657 m 0
 294 657 255 692 255 746 c 0
 255 752 255 759 256 765 c 0
 266 829 321 873 388 873 c 0
 448 873 487 838 487 784 c 0
 487 778 487 771 486 765 c 0
 476 701 421 657 354 657 c 0
361 701 m 0
 401 701 431 727 437 765 c 0
 438 769 438 773 438 777 c 0
 438 808 417 829 381 829 c 0
 341 829 311 803 305 765 c 0
 304 761 304 757 304 753 c 0
 304 722 325 701 361 701 c 0
41 184 m 2
 107 600 l 1
 197 600 l 1
 131 184 l 2
 130 175 129 165 129 157 c 0
 129 85 181 48 258 48 c 0
 344 48 413 94 427 184 c 2
 493 600 l 1
 583 600 l 1
 517 184 l 2
 499 69 393 -18 247 -18 c 0
 115 -18 38 53 38 152 c 0
 38 162 39 173 41 184 c 2
EndSplineSet
EndChar

StartChar: Uhungarumlaut
Encoding: 368 368 301
Width: 770
GlyphClass: 2
Flags: W
AnchorPoint: "LatinBelow.mark" 325 0 basechar 0
AnchorPoint: "LatinAbove.mark" 377 330 basechar 0
LayerCount: 2
Fore
SplineSet
306 873 m 1
 452 1062 l 1
 502 1022 l 1
 336 848 l 1
 306 873 l 1
509 873 m 1
 655 1062 l 1
 704 1022 l 1
 539 848 l 1
 509 873 l 1
64 236 m 2
 151 780 l 1
 247 780 l 1
 160 236 l 2
 158 224 157 212 157 201 c 0
 157 105 228 54 334 54 c 0
 452 54 545 118 564 236 c 2
 651 780 l 1
 747 780 l 1
 660 236 l 2
 637 90 502 -18 322 -18 c 0
 159 -18 61 71 61 196 c 0
 61 209 62 222 64 236 c 2
EndSplineSet
EndChar

StartChar: uhungarumlaut
Encoding: 369 369 302
Width: 620
GlyphClass: 2
Flags: W
AnchorPoint: "LatinBelow.mark" 250 0 basechar 0
AnchorPoint: "LatinAbove.mark" 279 180 basechar 0
LayerCount: 2
Fore
SplineSet
207 723 m 1
 353 912 l 1
 403 872 l 1
 237 698 l 1
 207 723 l 1
410 723 m 1
 556 912 l 1
 605 872 l 1
 440 698 l 1
 410 723 l 1
41 184 m 2
 107 600 l 1
 197 600 l 1
 131 184 l 2
 130 175 129 165 129 157 c 0
 129 85 181 48 258 48 c 0
 344 48 413 94 427 184 c 2
 493 600 l 1
 583 600 l 1
 517 184 l 2
 499 69 393 -18 247 -18 c 0
 115 -18 38 53 38 152 c 0
 38 162 39 173 41 184 c 2
EndSplineSet
EndChar

StartChar: Uogonek
Encoding: 370 370 303
Width: 770
GlyphClass: 2
Flags: W
AnchorPoint: "LatinAbove.mark" 349 150 basechar 0
LayerCount: 2
Fore
SplineSet
64 236 m 2
 151 780 l 1
 247 780 l 1
 160 236 l 2
 158 224 157 212 157 201 c 0
 157 105 228 54 334 54 c 0
 452 54 545 118 564 236 c 2
 651 780 l 1
 747 780 l 1
 660 236 l 2
 643 129 566 43 455 4 c 1
 421 -29 391 -72 381 -135 c 0
 380 -142 379 -147 379 -153 c 0
 379 -189 401 -204 430 -204 c 0
 458 -204 483 -195 496 -188 c 1
 505 -232 l 1
 478 -245 448 -252 412 -252 c 0
 349 -252 318 -217 318 -165 c 0
 318 -158 319 -150 320 -142 c 0
 328 -89 354 -47 383 -14 c 1
 364 -17 343 -18 322 -18 c 0
 159 -18 61 71 61 196 c 0
 61 209 62 222 64 236 c 2
EndSplineSet
EndChar

StartChar: uogonek
Encoding: 371 371 304
Width: 620
GlyphClass: 2
Flags: W
AnchorPoint: "LatinAbove.mark" 250 0 basechar 0
LayerCount: 2
Fore
SplineSet
41 184 m 2
 107 600 l 1
 197 600 l 1
 131 184 l 2
 130 175 129 165 129 157 c 0
 129 85 181 48 258 48 c 0
 344 48 413 94 427 184 c 2
 493 600 l 1
 583 600 l 1
 517 184 l 2
 503 98 441 28 349 -2 c 1
 318 -34 290 -76 281 -135 c 0
 280 -142 279 -147 279 -153 c 0
 279 -189 301 -204 330 -204 c 0
 358 -204 383 -195 396 -188 c 1
 405 -232 l 1
 378 -245 348 -252 312 -252 c 0
 249 -252 218 -217 218 -165 c 0
 218 -158 219 -150 220 -142 c 0
 228 -90 251 -49 280 -16 c 1
 269 -17 258 -18 247 -18 c 0
 115 -18 38 53 38 152 c 0
 38 162 39 173 41 184 c 2
EndSplineSet
EndChar

StartChar: Wcircumflex
Encoding: 372 372 305
Width: 1060
GlyphClass: 2
Flags: W
AnchorPoint: "LatinBelow.mark" 470 0 basechar 0
LayerCount: 2
Fore
SplineSet
420 863 m 1
 619 1012 l 1
 643 1012 l 1
 794 863 l 1
 761 832 l 1
 619 938 l 1
 443 832 l 1
 420 863 l 1
1089 765 m 1
 738 0 l 1
 654 0 l 1
 569 624 l 1
 286 0 l 1
 202 0 l 1
 93 765 l 1
 94 771 l 1
 200 780 l 1
 271 129 l 1
 550 760 l 1
 630 760 l 1
 709 129 l 1
 988 780 l 1
 1090 771 l 1
 1089 765 l 1
EndSplineSet
EndChar

StartChar: wcircumflex
Encoding: 373 373 306
Width: 830
GlyphClass: 2
Flags: W
AnchorPoint: "LatinBelow.mark" 355 0 basechar 0
LayerCount: 2
Fore
SplineSet
281 713 m 1
 480 862 l 1
 504 862 l 1
 655 713 l 1
 622 682 l 1
 480 788 l 1
 304 682 l 1
 281 713 l 1
836 588 m 1
 567 0 l 1
 489 0 l 1
 428 461 l 1
 221 0 l 1
 143 0 l 1
 60 588 l 1
 61 592 l 1
 158 600 l 1
 208 125 l 1
 412 585 l 1
 484 585 l 1
 542 125 l 1
 742 600 l 1
 837 592 l 1
 836 588 l 1
EndSplineSet
EndChar

StartChar: Ycircumflex
Encoding: 374 374 307
Width: 670
GlyphClass: 2
Flags: W
AnchorPoint: "LatinBelow.mark" 275 0 basechar 0
AnchorPoint: "LatinAbove.mark" 337 330 basechar 0
LayerCount: 2
Fore
SplineSet
225 863 m 1
 424 1012 l 1
 448 1012 l 1
 599 863 l 1
 566 832 l 1
 424 938 l 1
 248 832 l 1
 225 863 l 1
79 765 m 1
 80 772 l 1
 189 780 l 1
 337 392 l 1
 609 780 l 1
 714 772 l 1
 713 765 l 1
 371 301 l 1
 323 0 l 1
 227 0 l 1
 275 301 l 1
 79 765 l 1
EndSplineSet
EndChar

StartChar: ycircumflex
Encoding: 375 375 308
Width: 600
GlyphClass: 2
Flags: W
AnchorPoint: "LatinBelow.mark" 211 -180 basechar 0
AnchorPoint: "LatinAbove.mark" 269 180 basechar 0
LayerCount: 2
Fore
SplineSet
166 713 m 1
 365 862 l 1
 389 862 l 1
 540 713 l 1
 507 682 l 1
 365 788 l 1
 189 682 l 1
 166 713 l 1
55 588 m 1
 56 593 l 1
 155 600 l 1
 255 103 l 1
 516 600 l 1
 612 593 l 1
 611 588 l 1
 263 -29 l 2
 212 -113 149 -228 42 -228 c 0
 -8 -228 -36 -206 -57 -186 c 1
 -5 -131 l 1
 10 -147 25 -165 50 -165 c 0
 98 -165 143 -96 192 -12 c 2
 201 3 l 1
 55 588 l 1
EndSplineSet
EndChar

StartChar: Ydieresis
Encoding: 376 376 309
Width: 670
GlyphClass: 2
Flags: W
AnchorPoint: "LatinBelow.mark" 275 0 basechar 0
AnchorPoint: "LatinAbove.mark" 337 330 basechar 0
LayerCount: 2
Fore
SplineSet
236 930 m 0
 242 969 276 993 314 993 c 0
 348 993 373 974 373 941 c 0
 373 938 373 934 372 930 c 0
 366 891 332 867 294 867 c 0
 260 867 235 886 235 919 c 0
 235 922 235 926 236 930 c 0
474 930 m 0
 480 969 514 993 552 993 c 0
 586 993 611 974 611 941 c 0
 611 938 611 934 610 930 c 0
 604 891 570 867 532 867 c 0
 498 867 473 886 473 919 c 0
 473 922 473 926 474 930 c 0
79 765 m 1
 80 772 l 1
 189 780 l 1
 337 392 l 1
 609 780 l 1
 714 772 l 1
 713 765 l 1
 371 301 l 1
 323 0 l 1
 227 0 l 1
 275 301 l 1
 79 765 l 1
EndSplineSet
EndChar

StartChar: Zacute
Encoding: 377 377 310
Width: 670
GlyphClass: 2
Flags: W
AnchorPoint: "LatinBelow.mark" 275 0 basechar 0
LayerCount: 2
Fore
SplineSet
582 990 m 1
 331 848 l 1
 310 884 l 1
 552 1052 l 1
 582 990 l 1
-8 55 m 1
 542 706 l 1
 119 706 l 1
 131 780 l 1
 675 780 l 1
 673 725 l 1
 123 74 l 1
 580 74 l 1
 568 0 l 1
 -10 0 l 1
 -8 55 l 1
EndSplineSet
EndChar

StartChar: zacute
Encoding: 378 378 311
Width: 530
GlyphClass: 2
Flags: W
AnchorPoint: "LatinBelow.mark" 205 0 basechar 0
LayerCount: 2
Fore
SplineSet
488 840 m 1
 237 698 l 1
 216 734 l 1
 458 902 l 1
 488 840 l 1
-16 46 m 1
 392 536 l 1
 82 536 l 1
 92 600 l 1
 514 600 l 1
 513 554 l 1
 106 64 l 1
 442 64 l 1
 432 0 l 1
 -17 0 l 1
 -16 46 l 1
EndSplineSet
EndChar

StartChar: Zdotaccent
Encoding: 379 379 312
Width: 670
GlyphClass: 2
Flags: W
AnchorPoint: "LatinBelow.mark" 275 0 basechar 0
LayerCount: 2
Fore
SplineSet
433 998 m 0
 470 998 496 977 496 942 c 0
 496 938 496 934 495 930 c 0
 488 888 453 862 412 862 c 0
 375 862 350 883 350 917 c 0
 350 921 350 926 351 930 c 0
 358 972 392 998 433 998 c 0
-8 55 m 1
 542 706 l 1
 119 706 l 1
 131 780 l 1
 675 780 l 1
 673 725 l 1
 123 74 l 1
 580 74 l 1
 568 0 l 1
 -10 0 l 1
 -8 55 l 1
EndSplineSet
EndChar

StartChar: zdotaccent
Encoding: 380 380 313
Width: 530
GlyphClass: 2
Flags: W
AnchorPoint: "LatinBelow.mark" 205 0 basechar 0
LayerCount: 2
Fore
SplineSet
339 848 m 0
 376 848 402 827 402 792 c 0
 402 788 402 784 401 780 c 0
 394 738 359 712 318 712 c 0
 281 712 256 733 256 767 c 0
 256 771 256 776 257 780 c 0
 264 822 298 848 339 848 c 0
-16 46 m 1
 392 536 l 1
 82 536 l 1
 92 600 l 1
 514 600 l 1
 513 554 l 1
 106 64 l 1
 442 64 l 1
 432 0 l 1
 -17 0 l 1
 -16 46 l 1
EndSplineSet
EndChar

StartChar: Zcaron
Encoding: 381 381 314
Width: 670
GlyphClass: 2
Flags: W
AnchorPoint: "LatinBelow.mark" 275 0 basechar 0
LayerCount: 2
Fore
SplineSet
619 992 m 1
 421 843 l 1
 397 843 l 1
 245 992 l 1
 278 1023 l 1
 420 917 l 1
 596 1023 l 1
 619 992 l 1
-8 55 m 1
 542 706 l 1
 119 706 l 1
 131 780 l 1
 675 780 l 1
 673 725 l 1
 123 74 l 1
 580 74 l 1
 568 0 l 1
 -10 0 l 1
 -8 55 l 1
EndSplineSet
EndChar

StartChar: zcaron
Encoding: 382 382 315
Width: 530
GlyphClass: 2
Flags: W
AnchorPoint: "LatinBelow.mark" 205 0 basechar 0
LayerCount: 2
Fore
SplineSet
525 842 m 1
 327 693 l 1
 303 693 l 1
 151 842 l 1
 184 873 l 1
 326 767 l 1
 502 873 l 1
 525 842 l 1
-16 46 m 1
 392 536 l 1
 82 536 l 1
 92 600 l 1
 514 600 l 1
 513 554 l 1
 106 64 l 1
 442 64 l 1
 432 0 l 1
 -17 0 l 1
 -16 46 l 1
EndSplineSet
EndChar

StartChar: uni018F
Encoding: 399 399 316
Width: 780
GlyphClass: 2
Flags: W
AnchorPoint: "LatinBelow.mark" 315 0 basechar 0
AnchorPoint: "LatinAbove.mark" 339 150 basechar 0
LayerCount: 2
Fore
SplineSet
717 408 m 2
 711 372 l 2
 682 187 571 -18 311 -18 c 0
 123 -18 40 96 40 241 c 0
 40 263 42 285 46 308 c 0
 51 340 61 373 72 406 c 1
 624 406 l 1
 625 408 l 1
 630 439 632 468 632 496 c 0
 632 635 570 728 429 728 c 0
 305 728 227 645 206 583 c 1
 114 591 l 1
 141 671 248 798 440 798 c 0
 656 798 725 656 725 502 c 0
 725 471 722 439 717 408 c 2
613 344 m 1
 146 344 l 1
 143 332 141 320 139 308 c 0
 135 285 134 264 134 244 c 0
 134 120 202 51 322 51 c 0
 482 51 579 173 613 344 c 1
EndSplineSet
EndChar

StartChar: florin
Encoding: 402 402 317
Width: 400
GlyphClass: 2
Flags: W
AnchorPoint: "LatinBelow.mark" 120 0 basechar 0
AnchorPoint: "LatinAbove.mark" 239 180 basechar 0
LayerCount: 2
Fore
SplineSet
61 542 m 1
 70 600 l 1
 165 600 l 1
 178 683 l 2
 188 743 238 828 354 828 c 0
 431 828 472 794 484 784 c 1
 437 735 l 1
 425 744 398 765 350 765 c 0
 302 765 272 729 265 683 c 2
 252 600 l 1
 410 600 l 1
 401 542 l 1
 246 542 l 1
 156 -24 l 2
 139 -133 46 -195 -52 -223 c 1
 -71 -164 l 1
 2 -140 54 -102 67 -19 c 2
 156 542 l 1
 61 542 l 1
EndSplineSet
EndChar

StartChar: Ohorn
Encoding: 416 416 318
Width: 820
GlyphClass: 3
Flags: W
AnchorPoint: "LatinBelow.mark" 350 0 basechar 0
AnchorPoint: "LatinAbove.mark" 374 150 basechar 0
LayerCount: 2
Fore
SplineSet
67 372 m 2
 73 408 l 2
 102 594 213 798 476 798 c 0
 574 798 643 769 688 724 c 1
 714 736 748 765 756 815 c 0
 757 821 757 826 757 831 c 0
 757 853 749 868 741 879 c 1
 802 912 l 1
 815 896 824 873 824 843 c 0
 824 835 823 827 822 818 c 0
 812 753 761 712 715 692 c 1
 751 640 765 573 765 503 c 0
 765 472 762 439 757 408 c 2
 751 372 l 2
 722 186 610 -18 347 -18 c 0
 128 -18 59 123 59 278 c 0
 59 309 62 341 67 372 c 2
359 54 m 0
 528 54 624 186 653 372 c 2
 659 408 l 2
 664 439 666 469 666 497 c 0
 666 634 605 726 465 726 c 0
 296 726 200 594 171 408 c 2
 165 372 l 2
 160 341 158 311 158 283 c 0
 158 146 219 54 359 54 c 0
EndSplineSet
Ligature2: "Latin.horn subtable" O uni031B
Ligature2: "Latin.horn subtable" O uni200D uni031B
EndChar

StartChar: ohorn
Encoding: 417 417 319
Width: 660
GlyphClass: 3
Flags: W
AnchorPoint: "LatinBelow.mark" 270 0 basechar 0
AnchorPoint: "LatinAbove.mark" 270 0 basechar 0
LayerCount: 2
Fore
SplineSet
47 286 m 2
 52 314 l 2
 74 456 160 618 368 618 c 0
 453 618 509 591 544 549 c 1
 568 563 596 591 603 635 c 0
 604 641 604 646 604 651 c 0
 604 673 596 688 588 699 c 1
 649 732 l 1
 661 716 670 693 670 664 c 0
 670 656 670 647 668 638 c 0
 658 576 611 536 567 515 c 1
 586 477 594 433 594 388 c 0
 594 363 592 338 588 314 c 2
 583 286 l 2
 561 144 475 -18 267 -18 c 0
 94 -18 41 94 41 214 c 0
 41 238 43 262 47 286 c 2
278 48 m 0
 398 48 470 143 493 286 c 2
 498 314 l 2
 502 338 504 361 504 382 c 0
 504 486 457 552 357 552 c 0
 237 552 165 457 142 314 c 2
 137 286 l 2
 133 262 131 239 131 218 c 0
 131 114 178 48 278 48 c 0
EndSplineSet
Ligature2: "Latin.horn subtable" o uni031B
Ligature2: "Latin.horn subtable" o uni200D uni031B
EndChar

StartChar: Uhorn
Encoding: 431 431 320
Width: 780
GlyphClass: 3
Flags: W
AnchorPoint: "LatinBelow.mark" 325 0 basechar 0
AnchorPoint: "LatinAbove.mark" 349 150 basechar 0
LayerCount: 2
Fore
SplineSet
64 236 m 2
 151 780 l 1
 247 780 l 1
 160 236 l 2
 158 224 157 212 157 201 c 0
 157 105 228 54 334 54 c 0
 452 54 545 118 564 236 c 2
 643 735 l 1
 661 735 l 1
 699 727 l 1
 724 741 754 768 761 815 c 0
 762 821 762 826 762 831 c 0
 762 853 754 868 746 879 c 1
 807 912 l 1
 820 896 829 873 829 843 c 0
 829 835 828 827 827 818 c 0
 818 760 775 721 734 699 c 1
 660 236 l 2
 637 90 502 -18 322 -18 c 0
 159 -18 61 71 61 196 c 0
 61 209 62 222 64 236 c 2
EndSplineSet
Ligature2: "Latin.horn subtable" U uni031B
Ligature2: "Latin.horn subtable" U uni200D uni031B
EndChar

StartChar: uhorn
Encoding: 432 432 321
Width: 635
GlyphClass: 3
Flags: W
AnchorPoint: "LatinBelow.mark" 250 0 basechar 0
AnchorPoint: "LatinAbove.mark" 250 0 basechar 0
LayerCount: 2
Fore
SplineSet
41 184 m 2
 107 600 l 1
 197 600 l 1
 131 184 l 2
 130 175 129 165 129 157 c 0
 129 85 181 48 258 48 c 0
 344 48 413 94 427 184 c 2
 486 555 l 1
 504 555 l 1
 537 547 l 1
 562 561 591 588 598 635 c 0
 599 641 599 646 599 651 c 0
 599 673 591 688 583 699 c 1
 644 732 l 1
 656 716 665 693 665 664 c 0
 665 656 665 647 663 638 c 0
 654 580 611 541 570 519 c 1
 517 184 l 2
 499 69 393 -18 247 -18 c 0
 115 -18 38 53 38 152 c 0
 38 162 39 173 41 184 c 2
EndSplineSet
Ligature2: "Latin.horn subtable" u uni031B
Ligature2: "Latin.horn subtable" u uni200D uni031B
EndChar

StartChar: uni01CD
Encoding: 461 461 322
Width: 750
GlyphClass: 2
Flags: W
AnchorPoint: "LatinBelow.mark" 315 0 basechar 0
AnchorPoint: "LatinAbove.mark" 367 330 basechar 0
LayerCount: 2
Fore
SplineSet
659 992 m 1
 461 843 l 1
 437 843 l 1
 285 992 l 1
 318 1023 l 1
 460 917 l 1
 636 1023 l 1
 659 992 l 1
667 0 m 1
 559 0 l 1
 523 176 l 1
 163 176 l 1
 71 0 l 1
 -37 0 l 1
 -36 6 l 1
 399 780 l 1
 479 780 l 1
 668 6 l 1
 667 0 l 1
509 244 m 1
 421 670 l 1
 199 244 l 1
 509 244 l 1
EndSplineSet
EndChar

StartChar: uni01CE
Encoding: 462 462 323
Width: 625
GlyphClass: 2
Flags: W
AnchorPoint: "LatinBelow.mark" 270 0 basechar 0
AnchorPoint: "LatinAbove.mark" 279 180 basechar 0
LayerCount: 2
Fore
SplineSet
570 842 m 1
 372 693 l 1
 348 693 l 1
 196 842 l 1
 229 873 l 1
 371 767 l 1
 547 873 l 1
 570 842 l 1
30 172 m 0
 42 249 116 320 242 320 c 0
 315 320 385 314 435 308 c 1
 453 422 l 2
 454 431 455 440 455 448 c 0
 455 519 402 552 327 552 c 0
 247 552 189 505 166 429 c 1
 77 435 l 1
 105 528 194 618 338 618 c 0
 466 618 543 551 543 454 c 0
 543 444 542 433 540 422 c 2
 495 137 l 2
 493 125 492 114 492 105 c 0
 492 68 509 52 550 47 c 1
 519 -13 l 1
 475 -8 418 14 416 89 c 1
 372 35 307 -13 213 -13 c 0
 97 -13 27 43 27 138 c 0
 27 149 28 160 30 172 c 0
430 252 m 1
 386 258 318 266 238 266 c 0
 180 266 128 232 118 171 c 0
 117 162 116 153 116 145 c 0
 116 75 168 43 232 43 c 0
 339 43 397 133 423 210 c 1
 430 252 l 1
EndSplineSet
MultipleSubs2: "Latin.a.decomp subtable" uni0251 uni030C
EndChar

StartChar: uni01CF
Encoding: 463 463 324
Width: 320
GlyphClass: 2
Flags: W
AnchorPoint: "LatinBelow.mark" 100 0 basechar 0
AnchorPoint: "LatinAbove.mark" 152 330 basechar 0
LayerCount: 2
Fore
SplineSet
444 992 m 1
 246 843 l 1
 222 843 l 1
 70 992 l 1
 103 1023 l 1
 245 917 l 1
 421 1023 l 1
 444 992 l 1
52 0 m 1
 176 780 l 1
 272 780 l 1
 148 0 l 1
 52 0 l 1
EndSplineSet
EndChar

StartChar: uni01D0
Encoding: 464 464 325
Width: 300
GlyphClass: 2
Flags: W
AnchorPoint: "LatinBelow.mark" 90 0 basechar 0
AnchorPoint: "LatinAbove.mark" 119 180 basechar 0
LayerCount: 2
Fore
SplineSet
410 842 m 1
 212 693 l 1
 188 693 l 1
 36 842 l 1
 69 873 l 1
 211 767 l 1
 387 873 l 1
 410 842 l 1
45 0 m 1
 140 600 l 1
 230 600 l 1
 135 0 l 1
 45 0 l 1
EndSplineSet
EndChar

StartChar: uni01D1
Encoding: 465 465 326
Width: 820
GlyphClass: 2
Flags: W
AnchorPoint: "LatinBelow.mark" 350 0 basechar 0
AnchorPoint: "LatinAbove.mark" 402 330 basechar 0
LayerCount: 2
Fore
SplineSet
694 992 m 1
 496 843 l 1
 472 843 l 1
 320 992 l 1
 353 1023 l 1
 495 917 l 1
 671 1023 l 1
 694 992 l 1
67 372 m 2
 73 408 l 2
 102 594 213 798 476 798 c 0
 695 798 765 656 765 501 c 0
 765 470 762 439 757 408 c 2
 751 372 l 2
 722 186 610 -18 347 -18 c 0
 128 -18 59 123 59 278 c 0
 59 309 62 341 67 372 c 2
359 54 m 0
 528 54 624 186 653 372 c 2
 659 408 l 2
 664 439 666 469 666 497 c 0
 666 634 605 726 465 726 c 0
 296 726 200 594 171 408 c 2
 165 372 l 2
 160 341 158 311 158 283 c 0
 158 146 219 54 359 54 c 0
EndSplineSet
EndChar

StartChar: uni01D2
Encoding: 466 466 327
Width: 660
GlyphClass: 2
Flags: W
AnchorPoint: "LatinBelow.mark" 270 0 basechar 0
AnchorPoint: "LatinAbove.mark" 299 180 basechar 0
LayerCount: 2
Fore
SplineSet
590 842 m 1
 392 693 l 1
 368 693 l 1
 216 842 l 1
 249 873 l 1
 391 767 l 1
 567 873 l 1
 590 842 l 1
47 286 m 2
 52 314 l 2
 74 456 160 618 368 618 c 0
 541 618 594 506 594 386 c 0
 594 362 592 338 588 314 c 2
 583 286 l 2
 561 144 475 -18 267 -18 c 0
 94 -18 41 94 41 214 c 0
 41 238 43 262 47 286 c 2
278 48 m 0
 398 48 470 143 493 286 c 2
 498 314 l 2
 502 338 504 361 504 382 c 0
 504 486 457 552 357 552 c 0
 237 552 165 457 142 314 c 2
 137 286 l 2
 133 262 131 239 131 218 c 0
 131 114 178 48 278 48 c 0
EndSplineSet
EndChar

StartChar: uni01D3
Encoding: 467 467 328
Width: 770
GlyphClass: 2
Flags: W
AnchorPoint: "LatinBelow.mark" 325 0 basechar 0
AnchorPoint: "LatinAbove.mark" 377 330 basechar 0
LayerCount: 2
Fore
SplineSet
669 992 m 1
 471 843 l 1
 447 843 l 1
 295 992 l 1
 328 1023 l 1
 470 917 l 1
 646 1023 l 1
 669 992 l 1
64 236 m 2
 151 780 l 1
 247 780 l 1
 160 236 l 2
 158 224 157 212 157 201 c 0
 157 105 228 54 334 54 c 0
 452 54 545 118 564 236 c 2
 651 780 l 1
 747 780 l 1
 660 236 l 2
 637 90 502 -18 322 -18 c 0
 159 -18 61 71 61 196 c 0
 61 209 62 222 64 236 c 2
EndSplineSet
EndChar

